<svg width="48" height="48" viewBox="0 0 48 48" fill="none" xmlns="http://www.w3.org/2000/svg">
<path d="M24 44L23.4405 43.9923C12.6588 43.6957 4 34.8529 4 24C4 12.98 12.96 4 24 4C35.02 4 44 12.98 44 24C44 35.04 35.02 44 24 44ZM20.04 32C20.64 32.6 21.58 32.6 22.16 32L29.14 25.06C29.42 24.78 29.58 24.4 29.58 24C29.58 23.6 29.42 23.22 29.14 22.94L22.16 16C21.88 15.7 21.5 15.56 21.12 15.56C20.72 15.56 20.34 15.7 20.04 16C19.46 16.6 19.46 17.54 20.06 18.12L25.96 24L20.06 29.88C19.46 30.46 19.46 31.42 20.04 32Z" fill="#FAFAFA"/>
</svg>
