<svg width="24" height="25" viewBox="0 0 24 25" fill="none" xmlns="http://www.w3.org/2000/svg">
<path fill-rule="evenodd" clip-rule="evenodd" d="M0 12.1263C0 7.28234 0 4.86035 1.11704 3.11586C1.61586 2.33686 2.26148 1.66972 3.01535 1.15428C4.70356 0 7.04742 0 11.7351 0C16.4229 0 18.7667 0 20.4549 1.15428C21.2088 1.66972 21.8544 2.33686 22.3532 3.11586C23.4703 4.86035 23.4703 7.28234 23.4703 12.1263C23.4703 16.9703 23.4703 19.3923 22.3532 21.1368C21.8544 21.9158 21.2088 22.5829 20.4549 23.0984C18.7667 24.2526 16.4229 24.2526 11.7352 24.2526H11.7351H11.7351C7.04742 24.2526 4.70356 24.2526 3.01535 23.0984C2.26148 22.5829 1.61586 21.9158 1.11704 21.1368C0 19.3923 0 16.9703 0 12.1263ZM17.811 12.1266C17.811 15.5938 15.0909 18.4046 11.7355 18.4046C8.38018 18.4046 5.66012 15.5938 5.66012 12.1266C5.66012 8.65941 8.38018 5.84868 11.7355 5.84868C15.0909 5.84868 17.811 8.65941 17.811 12.1266ZM11.7355 16.2806C13.9557 16.2806 15.7555 14.4208 15.7555 12.1266C15.7555 9.83246 13.9557 7.97267 11.7355 7.97267C9.5154 7.97267 7.7156 9.83246 7.7156 12.1266C7.7156 14.4208 9.5154 16.2806 11.7355 16.2806ZM18.0516 7.0084C18.84 7.0084 19.4791 6.34796 19.4791 5.53327C19.4791 4.71857 18.84 4.05814 18.0516 4.05814C17.2632 4.05814 16.624 4.71857 16.624 5.53327C16.624 6.34796 17.2632 7.0084 18.0516 7.0084Z" fill="white"/>
</svg>
