<svg width="90" height="90" viewBox="0 0 90 90" fill="none" xmlns="http://www.w3.org/2000/svg">
<rect width="90" height="90" rx="12" fill="#757575"/>
<path d="M16.124 69.0524V41.1361C19.9631 41.1361 21.5559 42.3496 21.5559 43.0306C21.5559 49.9092 21.5524 64.7282 21.5937 67.04C21.635 69.3517 17.9644 69.3448 16.124 69.0524Z" stroke="#FAFAFA" stroke-width="1.5"/>
<path d="M26.0175 45.7729H22.639C22.1777 45.7729 21.8037 46.1469 21.8037 46.6082V61.9645C21.8037 62.4258 22.1777 62.7997 22.639 62.7997H26.0175C26.4787 62.7997 26.8527 62.4258 26.8527 61.9645V46.6082C26.8527 46.1469 26.4787 45.7729 26.0175 45.7729Z" stroke="#FAFAFA" stroke-width="1.5"/>
<path d="M34.6408 52.2184C37.733 52.2184 39.2968 49.2805 39.8728 47.2425C40.0401 46.65 40.743 46.304 41.2729 46.6176L45.0167 48.8333C45.3082 49.0058 45.4711 49.3378 45.3941 49.6677C44.3993 53.9278 39.1789 58.288 36.7356 58.288H27.7384C27.277 58.288 26.9062 57.9139 26.9062 57.4527V53.0537C26.9062 52.5924 27.2802 52.2184 27.7415 52.2184H34.6408Z" stroke="#FAFAFA" stroke-width="1.5"/>
<path d="M60.2591 46.9929L29.3952 29.5768C28.997 29.3521 28.4923 29.4893 28.2626 29.8845L25.1737 35.1996C24.7147 35.9894 24.9752 37.0016 25.7586 37.4716L53.6707 54.2161C54.8194 54.9053 56.3072 54.569 57.0478 53.4527L60.5446 48.1821C60.8128 47.7779 60.6815 47.2312 60.2591 46.9929Z" stroke="#FAFAFA" stroke-width="1.5"/>
<path d="M73.8036 40.9099L37.2175 20.1243C36.0521 19.4622 34.572 19.8344 33.8584 20.9691L28.5527 29.4058L67.7932 51.0415C68.6306 51.5031 69.684 51.169 70.1022 50.3091L74.1422 42.0015C74.3348 41.6053 74.1866 41.1275 73.8036 40.9099Z" stroke="#FAFAFA" stroke-width="1.5"/>
<path d="M66.7498 50.5988C66.7498 50.5988 64.4903 53.2129 62.6854 53.6201C60.8803 54.0275 57.5059 52.685 57.5059 52.685" stroke="#FAFAFA" stroke-width="1.5"/>
<path d="M66.4981 46.4475C67.9796 46.4475 69.1807 45.2464 69.1807 43.7648C69.1807 42.2833 67.9796 41.0822 66.4981 41.0822C65.0165 41.0822 63.8154 42.2833 63.8154 43.7648C63.8154 45.2464 65.0165 46.4475 66.4981 46.4475Z" stroke="#FAFAFA" stroke-width="1.5"/>
<path d="M44.8412 27.2834L37.7918 23.2545C37.4527 23.0606 37.0206 23.1784 36.8268 23.5176C36.6329 23.8568 36.7507 24.2888 37.0899 24.4827L44.1392 28.5116C44.4784 28.7054 44.9104 28.5876 45.1043 28.2485C45.2981 27.9093 45.1803 27.4772 44.8412 27.2834Z" fill="#FAFAFA"/>
</svg>
