<svg width="90" height="90" viewBox="0 0 90 90" fill="none" xmlns="http://www.w3.org/2000/svg">
<path d="M0 12C0 5.37258 5.37258 0 12 0H78C84.6274 0 90 5.37258 90 12V78C90 84.6274 84.6274 90 78 90H12C5.37258 90 0 84.6274 0 78V12Z" fill="#FFE1DA"/>
<rect width="90" height="90" rx="12" fill="#757575"/>
<path d="M42.4668 37.4944C42.0526 37.4944 41.7168 37.8302 41.7168 38.2444C41.7168 38.6587 42.0526 38.9944 42.4668 38.9944V37.4944ZM61.889 28.5333V29.2833V28.5333ZM66.9557 29.2833C67.3699 29.2833 67.7057 28.9475 67.7057 28.5333C67.7057 28.1191 67.3699 27.7833 66.9557 27.7833V29.2833ZM42.4668 38.2444C42.4668 38.9944 42.4668 38.9944 42.4669 38.9944C42.467 38.9944 42.4671 38.9944 42.4672 38.9944C42.4673 38.9944 42.4675 38.9944 42.4677 38.9944C42.4679 38.9944 42.4681 38.9944 42.4683 38.9944C42.4686 38.9944 42.4689 38.9944 42.4692 38.9944C42.4695 38.9944 42.4699 38.9944 42.4703 38.9944C42.4706 38.9944 42.471 38.9944 42.4715 38.9944C42.4719 38.9944 42.4724 38.9944 42.4729 38.9944C42.4734 38.9944 42.474 38.9944 42.4745 38.9944C42.4751 38.9944 42.4757 38.9944 42.4764 38.9944C42.477 38.9944 42.4777 38.9944 42.4783 38.9944C42.479 38.9944 42.4798 38.9944 42.4805 38.9944C42.4813 38.9944 42.4821 38.9944 42.4829 38.9944C42.4837 38.9944 42.4846 38.9944 42.4854 38.9944C42.4863 38.9944 42.4872 38.9944 42.4882 38.9944C42.4891 38.9944 42.4901 38.9944 42.4911 38.9944C42.4921 38.9944 42.4931 38.9944 42.4942 38.9944C42.4953 38.9944 42.4964 38.9944 42.4975 38.9944C42.4986 38.9944 42.4998 38.9944 42.5009 38.9944C42.5021 38.9944 42.5034 38.9944 42.5046 38.9944C42.5058 38.9944 42.5071 38.9944 42.5084 38.9944C42.5097 38.9944 42.5111 38.9944 42.5124 38.9944C42.5138 38.9944 42.5152 38.9944 42.5166 38.9944C42.518 38.9944 42.5195 38.9944 42.521 38.9944C42.5225 38.9944 42.524 38.9944 42.5255 38.9944C42.5271 38.9944 42.5286 38.9944 42.5302 38.9944C42.5318 38.9944 42.5335 38.9944 42.5351 38.9944C42.5368 38.9944 42.5385 38.9944 42.5402 38.9944C42.5419 38.9944 42.5437 38.9944 42.5455 38.9944C42.5472 38.9944 42.549 38.9944 42.5509 38.9944C42.5527 38.9944 42.5546 38.9944 42.5565 38.9944C42.5584 38.9944 42.5603 38.9944 42.5623 38.9944C42.5642 38.9944 42.5662 38.9944 42.5682 38.9944C42.5702 38.9944 42.5722 38.9944 42.5743 38.9944C42.5764 38.9944 42.5785 38.9944 42.5806 38.9944C42.5827 38.9944 42.5849 38.9944 42.5871 38.9944C42.5892 38.9944 42.5914 38.9944 42.5937 38.9944C42.5959 38.9944 42.5982 38.9944 42.6005 38.9944C42.6028 38.9944 42.6051 38.9944 42.6074 38.9944C42.6098 38.9944 42.6122 38.9944 42.6146 38.9944C42.617 38.9944 42.6194 38.9944 42.6219 38.9944C42.6243 38.9944 42.6268 38.9944 42.6293 38.9944C42.6319 38.9944 42.6344 38.9944 42.637 38.9944C42.6396 38.9944 42.6422 38.9944 42.6448 38.9944C42.6474 38.9944 42.6501 38.9944 42.6527 38.9944C42.6554 38.9944 42.6581 38.9944 42.6609 38.9944C42.6636 38.9944 42.6664 38.9944 42.6692 38.9944C42.672 38.9944 42.6748 38.9944 42.6776 38.9944C42.6805 38.9944 42.6833 38.9944 42.6862 38.9944C42.6891 38.9944 42.6921 38.9944 42.695 38.9944C42.698 38.9944 42.701 38.9944 42.704 38.9944C42.707 38.9944 42.71 38.9944 42.7131 38.9944C42.7161 38.9944 42.7192 38.9944 42.7223 38.9944C42.7254 38.9944 42.7286 38.9944 42.7318 38.9944C42.7349 38.9944 42.7381 38.9944 42.7413 38.9944C42.7446 38.9944 42.7478 38.9944 42.7511 38.9944C42.7543 38.9944 42.7576 38.9944 42.761 38.9944C42.7643 38.9944 42.7676 38.9944 42.771 38.9944C42.7744 38.9944 42.7778 38.9944 42.7812 38.9944C42.7847 38.9944 42.7881 38.9944 42.7916 38.9944C42.7951 38.9944 42.7986 38.9944 42.8021 38.9944C42.8056 38.9944 42.8092 38.9944 42.8128 38.9944C42.8164 38.9944 42.82 38.9944 42.8236 38.9944C42.8272 38.9944 42.8309 38.9944 42.8346 38.9944C42.8383 38.9944 42.842 38.9944 42.8457 38.9944C42.8495 38.9944 42.8532 38.9944 42.857 38.9944C42.8608 38.9944 42.8646 38.9944 42.8684 38.9944C42.8723 38.9944 42.8761 38.9944 42.88 38.9944C42.8839 38.9944 42.8878 38.9944 42.8918 38.9944C42.8957 38.9944 42.8997 38.9944 42.9036 38.9944C42.9076 38.9944 42.9116 38.9944 42.9157 38.9944C42.9197 38.9944 42.9238 38.9944 42.9279 38.9944C42.9319 38.9944 42.936 38.9944 42.9402 38.9944C42.9443 38.9944 42.9485 38.9944 42.9527 38.9944C42.9568 38.9944 42.961 38.9944 42.9653 38.9944C42.9695 38.9944 42.9738 38.9944 42.978 38.9944C42.9823 38.9944 42.9866 38.9944 42.9909 38.9944C42.9953 38.9944 42.9996 38.9944 43.004 38.9944C43.0084 38.9944 43.0128 38.9944 43.0172 38.9944C43.0216 38.9944 43.0261 38.9944 43.0305 38.9944C43.035 38.9944 43.0395 38.9944 43.044 38.9944C43.0485 38.9944 43.0531 38.9944 43.0576 38.9944C43.0622 38.9944 43.0668 38.9944 43.0714 38.9944C43.076 38.9944 43.0806 38.9944 43.0853 38.9944C43.0899 38.9944 43.0946 38.9944 43.0993 38.9944C43.104 38.9944 43.1088 38.9944 43.1135 38.9944C43.1183 38.9944 43.123 38.9944 43.1278 38.9944C43.1326 38.9944 43.1374 38.9944 43.1423 38.9944C43.1471 38.9944 43.152 38.9944 43.1569 38.9944C43.1618 38.9944 43.1667 38.9944 43.1716 38.9944C43.1765 38.9944 43.1815 38.9944 43.1865 38.9944C43.1914 38.9944 43.1964 38.9944 43.2015 38.9944C43.2065 38.9944 43.2115 38.9944 43.2166 38.9944C43.2217 38.9944 43.2268 38.9944 43.2319 38.9944C43.237 38.9944 43.2421 38.9944 43.2473 38.9944C43.2524 38.9944 43.2576 38.9944 43.2628 38.9944C43.268 38.9944 43.2732 38.9944 43.2785 38.9944C43.2837 38.9944 43.289 38.9944 43.2943 38.9944C43.2995 38.9944 43.3048 38.9944 43.3102 38.9944C43.3155 38.9944 43.3209 38.9944 43.3262 38.9944C43.3316 38.9944 43.337 38.9944 43.3424 38.9944C43.3478 38.9944 43.3533 38.9944 43.3587 38.9944C43.3642 38.9944 43.3697 38.9944 43.3752 38.9944C43.3807 38.9944 43.3862 38.9944 43.3917 38.9944C43.3973 38.9944 43.4028 38.9944 43.4084 38.9944C43.414 38.9944 43.4196 38.9944 43.4252 38.9944C43.4309 38.9944 43.4365 38.9944 43.4422 38.9944C43.4479 38.9944 43.4535 38.9944 43.4593 38.9944C43.465 38.9944 43.4707 38.9944 43.4765 38.9944C43.4822 38.9944 43.488 38.9944 43.4938 38.9944C43.4996 38.9944 43.5054 38.9944 43.5112 38.9944C43.517 38.9944 43.5229 38.9944 43.5288 38.9944C43.5346 38.9944 43.5405 38.9944 43.5465 38.9944C43.5524 38.9944 43.5583 38.9944 43.5643 38.9944C43.5702 38.9944 43.5762 38.9944 43.5822 38.9944C43.5882 38.9944 43.5942 38.9944 43.6002 38.9944C43.6063 38.9944 43.6123 38.9944 43.6184 38.9944C43.6245 38.9944 43.6306 38.9944 43.6367 38.9944C43.6428 38.9944 43.6489 38.9944 43.6551 38.9944C43.6612 38.9944 43.6674 38.9944 43.6736 38.9944C43.6798 38.9944 43.686 38.9944 43.6922 38.9944C43.6984 38.9944 43.7047 38.9944 43.711 38.9944C43.7172 38.9944 43.7235 38.9944 43.7298 38.9944C43.7361 38.9944 43.7424 38.9944 43.7488 38.9944C43.7551 38.9944 43.7615 38.9944 43.7679 38.9944C43.7743 38.9944 43.7807 38.9944 43.7871 38.9944C43.7935 38.9944 43.7999 38.9944 43.8064 38.9944C43.8129 38.9944 43.8193 38.9944 43.8258 38.9944C43.8323 38.9944 43.8388 38.9944 43.8454 38.9944C43.8519 38.9944 43.8584 38.9944 43.865 38.9944C43.8716 38.9944 43.8782 38.9944 43.8848 38.9944C43.8914 38.9944 43.898 38.9944 43.9046 38.9944C43.9113 38.9944 43.9179 38.9944 43.9246 38.9944C43.9313 38.9944 43.938 38.9944 43.9447 38.9944C43.9514 38.9944 43.9581 38.9944 43.9649 38.9944C43.9716 38.9944 43.9784 38.9944 43.9852 38.9944C43.992 38.9944 43.9988 38.9944 44.0056 38.9944C44.0124 38.9944 44.0192 38.9944 44.0261 38.9944C44.033 38.9944 44.0398 38.9944 44.0467 38.9944C44.0536 38.9944 44.0605 38.9944 44.0674 38.9944C44.0744 38.9944 44.0813 38.9944 44.0883 38.9944C44.0952 38.9944 44.1022 38.9944 44.1092 38.9944C44.1162 38.9944 44.1232 38.9944 44.1302 38.9944C44.1372 38.9944 44.1443 38.9944 44.1513 38.9944C44.1584 38.9944 44.1655 38.9944 44.1726 38.9944C44.1797 38.9944 44.1868 38.9944 44.1939 38.9944C44.201 38.9944 44.2082 38.9944 44.2153 38.9944C44.2225 38.9944 44.2297 38.9944 44.2368 38.9944C44.244 38.9944 44.2512 38.9944 44.2585 38.9944C44.2657 38.9944 44.2729 38.9944 44.2802 38.9944C44.2875 38.9944 44.2947 38.9944 44.302 38.9944C44.3093 38.9944 44.3166 38.9944 44.3239 38.9944C44.3313 38.9944 44.3386 38.9944 44.3459 38.9944C44.3533 38.9944 44.3607 38.9944 44.3681 38.9944C44.3754 38.9944 44.3828 38.9944 44.3903 38.9944C44.3977 38.9944 44.4051 38.9944 44.4125 38.9944C44.42 38.9944 44.4275 38.9944 44.4349 38.9944C44.4424 38.9944 44.4499 38.9944 44.4574 38.9944C44.4649 38.9944 44.4725 38.9944 44.48 38.9944C44.4875 38.9944 44.4951 38.9944 44.5027 38.9944C44.5102 38.9944 44.5178 38.9944 44.5254 38.9944C44.533 38.9944 44.5406 38.9944 44.5483 38.9944C44.5559 38.9944 44.5635 38.9944 44.5712 38.9944C44.5789 38.9944 44.5865 38.9944 44.5942 38.9944C44.6019 38.9944 44.6096 38.9944 44.6173 38.9944C44.625 38.9944 44.6328 38.9944 44.6405 38.9944C44.6483 38.9944 44.656 38.9944 44.6638 38.9944C44.6716 38.9944 44.6794 38.9944 44.6872 38.9944C44.695 38.9944 44.7028 38.9944 44.7106 38.9944C44.7185 38.9944 44.7263 38.9944 44.7342 38.9944C44.742 38.9944 44.7499 38.9944 44.7578 38.9944C44.7657 38.9944 44.7736 38.9944 44.7815 38.9944C44.7894 38.9944 44.7974 38.9944 44.8053 38.9944C44.8133 38.9944 44.8212 38.9944 44.8292 38.9944C44.8372 38.9944 44.8451 38.9944 44.8531 38.9944C44.8611 38.9944 44.8692 38.9944 44.8772 38.9944C44.8852 38.9944 44.8932 38.9944 44.9013 38.9944C44.9093 38.9944 44.9174 38.9944 44.9255 38.9944C44.9336 38.9944 44.9417 38.9944 44.9498 38.9944C44.9579 38.9944 44.966 38.9944 44.9741 38.9944C44.9823 38.9944 44.9904 38.9944 44.9986 38.9944C45.0067 38.9944 45.0149 38.9944 45.0231 38.9944C45.0313 38.9944 45.0394 38.9944 45.0477 38.9944C45.0559 38.9944 45.0641 38.9944 45.0723 38.9944C45.0805 38.9944 45.0888 38.9944 45.0971 38.9944C45.1053 38.9944 45.1136 38.9944 45.1219 38.9944C45.1301 38.9944 45.1384 38.9944 45.1468 38.9944C45.1551 38.9944 45.1634 38.9944 45.1717 38.9944C45.18 38.9944 45.1884 38.9944 45.1967 38.9944C45.2051 38.9944 45.2135 38.9944 45.2218 38.9944C45.2302 38.9944 45.2386 38.9944 45.247 38.9944C45.2554 38.9944 45.2638 38.9944 45.2723 38.9944C45.2807 38.9944 45.2891 38.9944 45.2976 38.9944C45.306 38.9944 45.3145 38.9944 45.323 38.9944C45.3314 38.9944 45.3399 38.9944 45.3484 38.9944C45.3569 38.9944 45.3654 38.9944 45.3739 38.9944C45.3825 38.9944 45.391 38.9944 45.3995 38.9944C45.4081 38.9944 45.4166 38.9944 45.4252 38.9944C45.4338 38.9944 45.4423 38.9944 45.4509 38.9944C45.4595 38.9944 45.4681 38.9944 45.4767 38.9944C45.4853 38.9944 45.4939 38.9944 45.5026 38.9944C45.5112 38.9944 45.5198 38.9944 45.5285 38.9944C45.5371 38.9944 45.5458 38.9944 45.5545 38.9944C45.5631 38.9944 45.5718 38.9944 45.5805 38.9944C45.5892 38.9944 45.5979 38.9944 45.6066 38.9944C45.6153 38.9944 45.624 38.9944 45.6328 38.9944C45.6415 38.9944 45.6502 38.9944 45.659 38.9944C45.6678 38.9944 45.6765 38.9944 45.6853 38.9944C45.6941 38.9944 45.7028 38.9944 45.7116 38.9944C45.7204 38.9944 45.7292 38.9944 45.738 38.9944C45.7469 38.9944 45.7557 38.9944 45.7645 38.9944C45.7733 38.9944 45.7822 38.9944 45.791 38.9944C45.7999 38.9944 45.8087 38.9944 45.8176 38.9944C45.8265 38.9944 45.8354 38.9944 45.8443 38.9944C45.8531 38.9944 45.862 38.9944 45.871 38.9944C45.8799 38.9944 45.8888 38.9944 45.8977 38.9944C45.9066 38.9944 45.9156 38.9944 45.9245 38.9944C45.9335 38.9944 45.9424 38.9944 45.9514 38.9944C45.9603 38.9944 45.9693 38.9944 45.9783 38.9944C45.9873 38.9944 45.9962 38.9944 46.0052 38.9944C46.0142 38.9944 46.0232 38.9944 46.0323 38.9944C46.0413 38.9944 46.0503 38.9944 46.0593 38.9944C46.0684 38.9944 46.0774 38.9944 46.0864 38.9944C46.0955 38.9944 46.1046 38.9944 46.1136 38.9944C46.1227 38.9944 46.1318 38.9944 46.1408 38.9944C46.1499 38.9944 46.159 38.9944 46.1681 38.9944C46.1772 38.9944 46.1863 38.9944 46.1954 38.9944C46.2045 38.9944 46.2137 38.9944 46.2228 38.9944C46.2319 38.9944 46.241 38.9944 46.2502 38.9944C46.2593 38.9944 46.2685 38.9944 46.2777 38.9944C46.2868 38.9944 46.296 38.9944 46.3052 38.9944C46.3143 38.9944 46.3235 38.9944 46.3327 38.9944C46.3419 38.9944 46.3511 38.9944 46.3603 38.9944C46.3695 38.9944 46.3787 38.9944 46.3879 38.9944C46.3971 38.9944 46.4064 38.9944 46.4156 38.9944C46.4248 38.9944 46.4341 38.9944 46.4433 38.9944C46.4526 38.9944 46.4618 38.9944 46.4711 38.9944C46.4804 38.9944 46.4896 38.9944 46.4989 38.9944C46.5082 38.9944 46.5175 38.9944 46.5267 38.9944C46.536 38.9944 46.5453 38.9944 46.5546 38.9944C46.5639 38.9944 46.5732 38.9944 46.5826 38.9944C46.5919 38.9944 46.6012 38.9944 46.6105 38.9944C46.6198 38.9944 46.6292 38.9944 46.6385 38.9944C46.6479 38.9944 46.6572 38.9944 46.6666 38.9944C46.6759 38.9944 46.6853 38.9944 46.6946 38.9944C46.704 38.9944 46.7134 38.9944 46.7227 38.9944C46.7321 38.9944 46.7415 38.9944 46.7509 38.9944C46.7603 38.9944 46.7697 38.9944 46.7791 38.9944C46.7885 38.9944 46.7979 38.9944 46.8073 38.9944C46.8167 38.9944 46.8261 38.9944 46.8355 38.9944C46.8449 38.9944 46.8544 38.9944 46.8638 38.9944C46.8732 38.9944 46.8827 38.9944 46.8921 38.9944C46.9016 38.9944 46.911 38.9944 46.9205 38.9944C46.9299 38.9944 46.9394 38.9944 46.9488 38.9944C46.9583 38.9944 46.9678 38.9944 46.9773 38.9944C46.9867 38.9944 46.9962 38.9944 47.0057 38.9944C47.0152 38.9944 47.0247 38.9944 47.0342 38.9944C47.0436 38.9944 47.0531 38.9944 47.0626 38.9944C47.0721 38.9944 47.0817 38.9944 47.0912 38.9944C47.1007 38.9944 47.1102 38.9944 47.1197 38.9944C47.1292 38.9944 47.1388 38.9944 47.1483 38.9944C47.1578 38.9944 47.1673 38.9944 47.1769 38.9944C47.1864 38.9944 47.196 38.9944 47.2055 38.9944C47.2151 38.9944 47.2246 38.9944 47.2342 38.9944C47.2437 38.9944 47.2533 38.9944 47.2628 38.9944C47.2724 38.9944 47.282 38.9944 47.2915 38.9944C47.3011 38.9944 47.3107 38.9944 47.3203 38.9944C47.3298 38.9944 47.3394 38.9944 47.349 38.9944C47.3586 38.9944 47.3682 38.9944 47.3778 38.9944C47.3873 38.9944 47.3969 38.9944 47.4065 38.9944C47.4161 38.9944 47.4257 38.9944 47.4353 38.9944C47.4449 38.9944 47.4546 38.9944 47.4642 38.9944C47.4738 38.9944 47.4834 38.9944 47.493 38.9944C47.5026 38.9944 47.5122 38.9944 47.5219 38.9944C47.5315 38.9944 47.5411 38.9944 47.5507 38.9944C47.5604 38.9944 47.57 38.9944 47.5796 38.9944C47.5893 38.9944 47.5989 38.9944 47.6085 38.9944C47.6182 38.9944 47.6278 38.9944 47.6375 38.9944C47.6471 38.9944 47.6568 38.9944 47.6664 38.9944C47.6761 38.9944 47.6857 38.9944 47.6954 38.9944C47.705 38.9944 47.7147 38.9944 47.7243 38.9944C47.734 38.9944 47.7437 38.9944 47.7533 38.9944C47.763 38.9944 47.7726 38.9944 47.7823 38.9944C47.792 38.9944 47.8016 38.9944 47.8113 38.9944C47.821 38.9944 47.8307 38.9944 47.8403 38.9944C47.85 38.9944 47.8597 38.9944 47.8694 38.9944C47.879 38.9944 47.8887 38.9944 47.8984 38.9944C47.9081 38.9944 47.9178 38.9944 47.9274 38.9944C47.9371 38.9944 47.9468 38.9944 47.9565 38.9944C47.9662 38.9944 47.9759 38.9944 47.9856 38.9944C47.9952 38.9944 48.0049 38.9944 48.0146 38.9944C48.0243 38.9944 48.034 38.9944 48.0437 38.9944C48.0534 38.9944 48.0631 38.9944 48.0728 38.9944C48.0825 38.9944 48.0922 38.9944 48.1019 38.9944C48.1116 38.9944 48.1213 38.9944 48.131 38.9944C48.1407 38.9944 48.1504 38.9944 48.1601 38.9944C48.1698 38.9944 48.1795 38.9944 48.1892 38.9944C48.1989 38.9944 48.2086 38.9944 48.2183 38.9944C48.228 38.9944 48.2377 38.9944 48.2474 38.9944C48.2571 38.9944 48.2668 38.9944 48.2765 38.9944C48.2862 38.9944 48.2959 38.9944 48.3056 38.9944C48.3153 38.9944 48.325 38.9944 48.3347 38.9944C48.3444 38.9944 48.3541 38.9944 48.3638 38.9944C48.3735 38.9944 48.3832 38.9944 48.3929 38.9944C48.4026 38.9944 48.4123 38.9944 48.422 38.9944C48.4317 38.9944 48.4414 38.9944 48.4511 38.9944C48.4608 38.9944 48.4705 38.9944 48.4802 38.9944C48.4899 38.9944 48.4996 38.9944 48.5093 38.9944C48.519 38.9944 48.5287 38.9944 48.5384 38.9944C48.5481 38.9944 48.5577 38.9944 48.5674 38.9944C48.5771 38.9944 48.5868 38.9944 48.5965 38.9944C48.6062 38.9944 48.6159 38.9944 48.6256 38.9944C48.6353 38.9944 48.645 38.9944 48.6547 38.9944C48.6643 38.9944 48.674 38.9944 48.6837 38.9944C48.6934 38.9944 48.7031 38.9944 48.7128 38.9944C48.7224 38.9944 48.7321 38.9944 48.7418 38.9944C48.7515 38.9944 48.7612 38.9944 48.7708 38.9944C48.7805 38.9944 48.7902 38.9944 48.7998 38.9944C48.8095 38.9944 48.8192 38.9944 48.8289 38.9944C48.8385 38.9944 48.8482 38.9944 48.8579 38.9944C48.8675 38.9944 48.8772 38.9944 48.8868 38.9944C48.8965 38.9944 48.9062 38.9944 48.9158 38.9944C48.9255 38.9944 48.9351 38.9944 48.9448 38.9944C48.9544 38.9944 48.9641 38.9944 48.9737 38.9944C48.9834 38.9944 48.993 38.9944 49.0027 38.9944C49.0123 38.9944 49.0219 38.9944 49.0316 38.9944C49.0412 38.9944 49.0508 38.9944 49.0605 38.9944C49.0701 38.9944 49.0797 38.9944 49.0893 38.9944C49.099 38.9944 49.1086 38.9944 49.1182 38.9944C49.1278 38.9944 49.1374 38.9944 49.1471 38.9944C49.1567 38.9944 49.1663 38.9944 49.1759 38.9944C49.1855 38.9944 49.1951 38.9944 49.2047 38.9944C49.2143 38.9944 49.2239 38.9944 49.2335 38.9944C49.2431 38.9944 49.2527 38.9944 49.2623 38.9944C49.2718 38.9944 49.2814 38.9944 49.291 38.9944C49.3006 38.9944 49.3102 38.9944 49.3197 38.9944C49.3293 38.9944 49.3389 38.9944 49.3484 38.9944C49.358 38.9944 49.3676 38.9944 49.3771 38.9944C49.3867 38.9944 49.3962 38.9944 49.4058 38.9944C49.4153 38.9944 49.4249 38.9944 49.4344 38.9944C49.444 38.9944 49.4535 38.9944 49.463 38.9944C49.4726 38.9944 49.4821 38.9944 49.4916 38.9944C49.5011 38.9944 49.5107 38.9944 49.5202 38.9944C49.5297 38.9944 49.5392 38.9944 49.5487 38.9944C49.5582 38.9944 49.5677 38.9944 49.5772 38.9944C49.5867 38.9944 49.5962 38.9944 49.6057 38.9944C49.6152 38.9944 49.6246 38.9944 49.6341 38.9944C49.6436 38.9944 49.6531 38.9944 49.6625 38.9944C49.672 38.9944 49.6815 38.9944 49.6909 38.9944C49.7004 38.9944 49.7098 38.9944 49.7193 38.9944C49.7287 38.9944 49.7382 38.9944 49.7476 38.9944C49.757 38.9944 49.7665 38.9944 49.7759 38.9944C49.7853 38.9944 49.7947 38.9944 49.8042 38.9944C49.8136 38.9944 49.823 38.9944 49.8324 38.9944C49.8418 38.9944 49.8512 38.9944 49.8606 38.9944C49.87 38.9944 49.8794 38.9944 49.8887 38.9944C49.8981 38.9944 49.9075 38.9944 49.9169 38.9944C49.9262 38.9944 49.9356 38.9944 49.945 38.9944C49.9543 38.9944 49.9637 38.9944 49.973 38.9944C49.9823 38.9944 49.9917 38.9944 50.001 38.9944C50.0103 38.9944 50.0197 38.9944 50.029 38.9944C50.0383 38.9944 50.0476 38.9944 50.0569 38.9944C50.0662 38.9944 50.0755 38.9944 50.0848 38.9944C50.0941 38.9944 50.1034 38.9944 50.1127 38.9944C50.122 38.9944 50.1312 38.9944 50.1405 38.9944C50.1498 38.9944 50.159 38.9944 50.1683 38.9944C50.1775 38.9944 50.1868 38.9944 50.196 38.9944C50.2053 38.9944 50.2145 38.9944 50.2237 38.9944C50.2329 38.9944 50.2422 38.9944 50.2514 38.9944C50.2606 38.9944 50.2698 38.9944 50.279 38.9944C50.2882 38.9944 50.2974 38.9944 50.3065 38.9944C50.3157 38.9944 50.3249 38.9944 50.3341 38.9944C50.3432 38.9944 50.3524 38.9944 50.3615 38.9944C50.3707 38.9944 50.3798 38.9944 50.389 38.9944C50.3981 38.9944 50.4072 38.9944 50.4163 38.9944C50.4255 38.9944 50.4346 38.9944 50.4437 38.9944C50.4528 38.9944 50.4619 38.9944 50.471 38.9944C50.48 38.9944 50.4891 38.9944 50.4982 38.9944C50.5073 38.9944 50.5163 38.9944 50.5254 38.9944C50.5344 38.9944 50.5435 38.9944 50.5525 38.9944C50.5615 38.9944 50.5706 38.9944 50.5796 38.9944C50.5886 38.9944 50.5976 38.9944 50.6066 38.9944C50.6156 38.9944 50.6246 38.9944 50.6336 38.9944C50.6426 38.9944 50.6516 38.9944 50.6605 38.9944C50.6695 38.9944 50.6785 38.9944 50.6874 38.9944C50.6964 38.9944 50.7053 38.9944 50.7142 38.9944C50.7232 38.9944 50.7321 38.9944 50.741 38.9944C50.7499 38.9944 50.7588 38.9944 50.7677 38.9944C50.7766 38.9944 50.7855 38.9944 50.7944 38.9944C50.8033 38.9944 50.8121 38.9944 50.821 38.9944C50.8299 38.9944 50.8387 38.9944 50.8475 38.9944C50.8564 38.9944 50.8652 38.9944 50.874 38.9944C50.8828 38.9944 50.8917 38.9944 50.9005 38.9944C50.9093 38.9944 50.918 38.9944 50.9268 38.9944C50.9356 38.9944 50.9444 38.9944 50.9531 38.9944C50.9619 38.9944 50.9706 38.9944 50.9794 38.9944C50.9881 38.9944 50.9969 38.9944 51.0056 38.9944C51.0143 38.9944 51.023 38.9944 51.0317 38.9944C51.0404 38.9944 51.0491 38.9944 51.0578 38.9944C51.0664 38.9944 51.0751 38.9944 51.0838 38.9944C51.0924 38.9944 51.1011 38.9944 51.1097 38.9944C51.1184 38.9944 51.127 38.9944 51.1356 38.9944C51.1442 38.9944 51.1528 38.9944 51.1614 38.9944C51.17 38.9944 51.1786 38.9944 51.1871 38.9944C51.1957 38.9944 51.2043 38.9944 51.2128 38.9944C51.2214 38.9944 51.2299 38.9944 51.2384 38.9944C51.247 38.9944 51.2555 38.9944 51.264 38.9944C51.2725 38.9944 51.281 38.9944 51.2895 38.9944C51.2979 38.9944 51.3064 38.9944 51.3149 38.9944C51.3233 38.9944 51.3318 38.9944 51.3402 38.9944C51.3486 38.9944 51.3571 38.9944 51.3655 38.9944C51.3739 38.9944 51.3823 38.9944 51.3907 38.9944C51.3991 38.9944 51.4074 38.9944 51.4158 38.9944C51.4242 38.9944 51.4325 38.9944 51.4409 38.9944C51.4492 38.9944 51.4575 38.9944 51.4659 38.9944C51.4742 38.9944 51.4825 38.9944 51.4908 38.9944C51.4991 38.9944 51.5073 38.9944 51.5156 38.9944C51.5239 38.9944 51.5321 38.9944 51.5404 38.9944C51.5486 38.9944 51.5568 38.9944 51.5651 38.9944C51.5733 38.9944 51.5815 38.9944 51.5897 38.9944C51.5979 38.9944 51.606 38.9944 51.6142 38.9944C51.6224 38.9944 51.6305 38.9944 51.6387 38.9944C51.6468 38.9944 51.6549 38.9944 51.663 38.9944C51.6712 38.9944 51.6793 38.9944 51.6874 38.9944C51.6954 38.9944 51.7035 38.9944 51.7116 38.9944C51.7196 38.9944 51.7277 38.9944 51.7357 38.9944C51.7438 38.9944 51.7518 38.9944 51.7598 38.9944C51.7678 38.9944 51.7758 38.9944 51.7838 38.9944C51.7918 38.9944 51.7997 38.9944 51.8077 38.9944C51.8156 38.9944 51.8236 38.9944 51.8315 38.9944C51.8394 38.9944 51.8473 38.9944 51.8552 38.9944C51.8631 38.9944 51.871 38.9944 51.8789 38.9944C51.8868 38.9944 51.8946 38.9944 51.9025 38.9944C51.9103 38.9944 51.9181 38.9944 51.926 38.9944C51.9338 38.9944 51.9416 38.9944 51.9494 38.9944C51.9571 38.9944 51.9649 38.9944 51.9727 38.9944C51.9804 38.9944 51.9882 38.9944 51.9959 38.9944C52.0036 38.9944 52.0113 38.9944 52.019 38.9944C52.0267 38.9944 52.0344 38.9944 52.0421 38.9944C52.0498 38.9944 52.0574 38.9944 52.0651 38.9944C52.0727 38.9944 52.0803 38.9944 52.0879 38.9944C52.0956 38.9944 52.1031 38.9944 52.1107 38.9944C52.1183 38.9944 52.1259 38.9944 52.1334 38.9944C52.141 38.9944 52.1485 38.9944 52.156 38.9944C52.1635 38.9944 52.1711 38.9944 52.1785 38.9944C52.186 38.9944 52.1935 38.9944 52.201 38.9944C52.2084 38.9944 52.2159 38.9944 52.2233 38.9944C52.2307 38.9944 52.2381 38.9944 52.2455 38.9944C52.2529 38.9944 52.2603 38.9944 52.2677 38.9944C52.275 38.9944 52.2824 38.9944 52.2897 38.9944C52.297 38.9944 52.3044 38.9944 52.3117 38.9944C52.319 38.9944 52.3263 38.9944 52.3335 38.9944C52.3408 38.9944 52.348 38.9944 52.3553 38.9944C52.3625 38.9944 52.3697 38.9944 52.3769 38.9944C52.3841 38.9944 52.3913 38.9944 52.3985 38.9944C52.4057 38.9944 52.4128 38.9944 52.42 38.9944C52.4271 38.9944 52.4342 38.9944 52.4413 38.9944C52.4484 38.9944 52.4555 38.9944 52.4626 38.9944C52.4697 38.9944 52.4767 38.9944 52.4838 38.9944C52.4908 38.9944 52.4978 38.9944 52.5048 38.9944C52.5118 38.9944 52.5188 38.9944 52.5258 38.9944C52.5328 38.9944 52.5397 38.9944 52.5466 38.9944C52.5536 38.9944 52.5605 38.9944 52.5674 38.9944C52.5743 38.9944 52.5812 38.9944 52.588 38.9944C52.5949 38.9944 52.6018 38.9944 52.6086 38.9944C52.6154 38.9944 52.6222 38.9944 52.629 38.9944C52.6358 38.9944 52.6426 38.9944 52.6494 38.9944C52.6561 38.9944 52.6629 38.9944 52.6696 38.9944C52.6763 38.9944 52.683 38.9944 52.6897 38.9944C52.6964 38.9944 52.7031 38.9944 52.7097 38.9944C52.7164 38.9944 52.723 38.9944 52.7296 38.9944C52.7363 38.9944 52.7429 38.9944 52.7494 38.9944C52.756 38.9944 52.7626 38.9944 52.7691 38.9944C52.7757 38.9944 52.7822 38.9944 52.7887 38.9944C52.7952 38.9944 52.8017 38.9944 52.8082 38.9944C52.8146 38.9944 52.8211 38.9944 52.8275 38.9944C52.834 38.9944 52.8404 38.9944 52.8468 38.9944C52.8532 38.9944 52.8595 38.9944 52.8659 38.9944C52.8722 38.9944 52.8786 38.9944 52.8849 38.9944C52.8912 38.9944 52.8975 38.9944 52.9038 38.9944C52.9101 38.9944 52.9164 38.9944 52.9226 38.9944C52.9288 38.9944 52.9351 38.9944 52.9413 38.9944C52.9475 38.9944 52.9537 38.9944 52.9598 38.9944C52.966 38.9944 52.9721 38.9944 52.9783 38.9944C52.9844 38.9944 52.9905 38.9944 52.9966 38.9944C53.0027 38.9944 53.0087 38.9944 53.0148 38.9944C53.0208 38.9944 53.0269 38.9944 53.0329 38.9944C53.0389 38.9944 53.0449 38.9944 53.0508 38.9944C53.0568 38.9944 53.0628 38.9944 53.0687 38.9944C53.0746 38.9944 53.0805 38.9944 53.0864 38.9944C53.0923 38.9944 53.0982 38.9944 53.104 38.9944C53.1099 38.9944 53.1157 38.9944 53.1215 38.9944C53.1273 38.9944 53.1331 38.9944 53.1389 38.9944C53.1446 38.9944 53.1504 38.9944 53.1561 38.9944C53.1618 38.9944 53.1675 38.9944 53.1732 38.9944C53.1789 38.9944 53.1846 38.9944 53.1902 38.9944C53.1958 38.9944 53.2015 38.9944 53.2071 38.9944C53.2127 38.9944 53.2182 38.9944 53.2238 38.9944C53.2294 38.9944 53.2349 38.9944 53.2404 38.9944C53.2459 38.9944 53.2514 38.9944 53.2569 38.9944C53.2624 38.9944 53.2678 38.9944 53.2733 38.9944C53.2787 38.9944 53.2841 38.9944 53.2895 38.9944C53.2949 38.9944 53.3002 38.9944 53.3056 38.9944C53.3109 38.9944 53.3162 38.9944 53.3216 38.9944C53.3269 38.9944 53.3321 38.9944 53.3374 38.9944C53.3426 38.9944 53.3479 38.9944 53.3531 38.9944C53.3583 38.9944 53.3635 38.9944 53.3687 38.9944C53.3738 38.9944 53.379 38.9944 53.3841 38.9944C53.3893 38.9944 53.3944 38.9944 53.3994 38.9944C53.4045 38.9944 53.4096 38.9944 53.4146 38.9944C53.4197 38.9944 53.4247 38.9944 53.4297 38.9944C53.4347 38.9944 53.4396 38.9944 53.4446 38.9944V37.4944C53.4396 37.4944 53.4347 37.4944 53.4297 37.4944C53.4247 37.4944 53.4197 37.4944 53.4146 37.4944C53.4096 37.4944 53.4045 37.4944 53.3994 37.4944C53.3944 37.4944 53.3893 37.4944 53.3841 37.4944C53.379 37.4944 53.3738 37.4944 53.3687 37.4944C53.3635 37.4944 53.3583 37.4944 53.3531 37.4944C53.3479 37.4944 53.3426 37.4944 53.3374 37.4944C53.3321 37.4944 53.3269 37.4944 53.3216 37.4944C53.3162 37.4944 53.3109 37.4944 53.3056 37.4944C53.3002 37.4944 53.2949 37.4944 53.2895 37.4944C53.2841 37.4944 53.2787 37.4944 53.2733 37.4944C53.2678 37.4944 53.2624 37.4944 53.2569 37.4944C53.2514 37.4944 53.2459 37.4944 53.2404 37.4944C53.2349 37.4944 53.2294 37.4944 53.2238 37.4944C53.2182 37.4944 53.2127 37.4944 53.2071 37.4944C53.2015 37.4944 53.1958 37.4944 53.1902 37.4944C53.1846 37.4944 53.1789 37.4944 53.1732 37.4944C53.1675 37.4944 53.1618 37.4944 53.1561 37.4944C53.1504 37.4944 53.1446 37.4944 53.1389 37.4944C53.1331 37.4944 53.1273 37.4944 53.1215 37.4944C53.1157 37.4944 53.1099 37.4944 53.104 37.4944C53.0982 37.4944 53.0923 37.4944 53.0864 37.4944C53.0805 37.4944 53.0746 37.4944 53.0687 37.4944C53.0628 37.4944 53.0568 37.4944 53.0508 37.4944C53.0449 37.4944 53.0389 37.4944 53.0329 37.4944C53.0269 37.4944 53.0208 37.4944 53.0148 37.4944C53.0087 37.4944 53.0027 37.4944 52.9966 37.4944C52.9905 37.4944 52.9844 37.4944 52.9783 37.4944C52.9721 37.4944 52.966 37.4944 52.9598 37.4944C52.9537 37.4944 52.9475 37.4944 52.9413 37.4944C52.9351 37.4944 52.9288 37.4944 52.9226 37.4944C52.9164 37.4944 52.9101 37.4944 52.9038 37.4944C52.8975 37.4944 52.8912 37.4944 52.8849 37.4944C52.8786 37.4944 52.8722 37.4944 52.8659 37.4944C52.8595 37.4944 52.8532 37.4944 52.8468 37.4944C52.8404 37.4944 52.834 37.4944 52.8275 37.4944C52.8211 37.4944 52.8146 37.4944 52.8082 37.4944C52.8017 37.4944 52.7952 37.4944 52.7887 37.4944C52.7822 37.4944 52.7757 37.4944 52.7691 37.4944C52.7626 37.4944 52.756 37.4944 52.7494 37.4944C52.7429 37.4944 52.7363 37.4944 52.7296 37.4944C52.723 37.4944 52.7164 37.4944 52.7097 37.4944C52.7031 37.4944 52.6964 37.4944 52.6897 37.4944C52.683 37.4944 52.6763 37.4944 52.6696 37.4944C52.6629 37.4944 52.6561 37.4944 52.6494 37.4944C52.6426 37.4944 52.6358 37.4944 52.629 37.4944C52.6222 37.4944 52.6154 37.4944 52.6086 37.4944C52.6018 37.4944 52.5949 37.4944 52.588 37.4944C52.5812 37.4944 52.5743 37.4944 52.5674 37.4944C52.5605 37.4944 52.5536 37.4944 52.5466 37.4944C52.5397 37.4944 52.5328 37.4944 52.5258 37.4944C52.5188 37.4944 52.5118 37.4944 52.5048 37.4944C52.4978 37.4944 52.4908 37.4944 52.4838 37.4944C52.4767 37.4944 52.4697 37.4944 52.4626 37.4944C52.4555 37.4944 52.4484 37.4944 52.4413 37.4944C52.4342 37.4944 52.4271 37.4944 52.42 37.4944C52.4128 37.4944 52.4057 37.4944 52.3985 37.4944C52.3913 37.4944 52.3841 37.4944 52.3769 37.4944C52.3697 37.4944 52.3625 37.4944 52.3553 37.4944C52.348 37.4944 52.3408 37.4944 52.3335 37.4944C52.3263 37.4944 52.319 37.4944 52.3117 37.4944C52.3044 37.4944 52.297 37.4944 52.2897 37.4944C52.2824 37.4944 52.275 37.4944 52.2677 37.4944C52.2603 37.4944 52.2529 37.4944 52.2455 37.4944C52.2381 37.4944 52.2307 37.4944 52.2233 37.4944C52.2159 37.4944 52.2084 37.4944 52.201 37.4944C52.1935 37.4944 52.186 37.4944 52.1785 37.4944C52.1711 37.4944 52.1635 37.4944 52.156 37.4944C52.1485 37.4944 52.141 37.4944 52.1334 37.4944C52.1259 37.4944 52.1183 37.4944 52.1107 37.4944C52.1031 37.4944 52.0956 37.4944 52.0879 37.4944C52.0803 37.4944 52.0727 37.4944 52.0651 37.4944C52.0574 37.4944 52.0498 37.4944 52.0421 37.4944C52.0344 37.4944 52.0267 37.4944 52.019 37.4944C52.0113 37.4944 52.0036 37.4944 51.9959 37.4944C51.9882 37.4944 51.9804 37.4944 51.9727 37.4944C51.9649 37.4944 51.9571 37.4944 51.9494 37.4944C51.9416 37.4944 51.9338 37.4944 51.926 37.4944C51.9181 37.4944 51.9103 37.4944 51.9025 37.4944C51.8946 37.4944 51.8868 37.4944 51.8789 37.4944C51.871 37.4944 51.8631 37.4944 51.8552 37.4944C51.8473 37.4944 51.8394 37.4944 51.8315 37.4944C51.8236 37.4944 51.8156 37.4944 51.8077 37.4944C51.7997 37.4944 51.7918 37.4944 51.7838 37.4944C51.7758 37.4944 51.7678 37.4944 51.7598 37.4944C51.7518 37.4944 51.7438 37.4944 51.7357 37.4944C51.7277 37.4944 51.7196 37.4944 51.7116 37.4944C51.7035 37.4944 51.6954 37.4944 51.6874 37.4944C51.6793 37.4944 51.6712 37.4944 51.663 37.4944C51.6549 37.4944 51.6468 37.4944 51.6387 37.4944C51.6305 37.4944 51.6224 37.4944 51.6142 37.4944C51.606 37.4944 51.5979 37.4944 51.5897 37.4944C51.5815 37.4944 51.5733 37.4944 51.5651 37.4944C51.5568 37.4944 51.5486 37.4944 51.5404 37.4944C51.5321 37.4944 51.5239 37.4944 51.5156 37.4944C51.5073 37.4944 51.4991 37.4944 51.4908 37.4944C51.4825 37.4944 51.4742 37.4944 51.4659 37.4944C51.4575 37.4944 51.4492 37.4944 51.4409 37.4944C51.4325 37.4944 51.4242 37.4944 51.4158 37.4944C51.4074 37.4944 51.3991 37.4944 51.3907 37.4944C51.3823 37.4944 51.3739 37.4944 51.3655 37.4944C51.3571 37.4944 51.3486 37.4944 51.3402 37.4944C51.3318 37.4944 51.3233 37.4944 51.3149 37.4944C51.3064 37.4944 51.2979 37.4944 51.2895 37.4944C51.281 37.4944 51.2725 37.4944 51.264 37.4944C51.2555 37.4944 51.247 37.4944 51.2384 37.4944C51.2299 37.4944 51.2214 37.4944 51.2128 37.4944C51.2043 37.4944 51.1957 37.4944 51.1871 37.4944C51.1786 37.4944 51.17 37.4944 51.1614 37.4944C51.1528 37.4944 51.1442 37.4944 51.1356 37.4944C51.127 37.4944 51.1184 37.4944 51.1097 37.4944C51.1011 37.4944 51.0924 37.4944 51.0838 37.4944C51.0751 37.4944 51.0664 37.4944 51.0578 37.4944C51.0491 37.4944 51.0404 37.4944 51.0317 37.4944C51.023 37.4944 51.0143 37.4944 51.0056 37.4944C50.9969 37.4944 50.9881 37.4944 50.9794 37.4944C50.9706 37.4944 50.9619 37.4944 50.9531 37.4944C50.9444 37.4944 50.9356 37.4944 50.9268 37.4944C50.918 37.4944 50.9093 37.4944 50.9005 37.4944C50.8917 37.4944 50.8828 37.4944 50.874 37.4944C50.8652 37.4944 50.8564 37.4944 50.8475 37.4944C50.8387 37.4944 50.8299 37.4944 50.821 37.4944C50.8121 37.4944 50.8033 37.4944 50.7944 37.4944C50.7855 37.4944 50.7766 37.4944 50.7677 37.4944C50.7588 37.4944 50.7499 37.4944 50.741 37.4944C50.7321 37.4944 50.7232 37.4944 50.7142 37.4944C50.7053 37.4944 50.6964 37.4944 50.6874 37.4944C50.6785 37.4944 50.6695 37.4944 50.6605 37.4944C50.6516 37.4944 50.6426 37.4944 50.6336 37.4944C50.6246 37.4944 50.6156 37.4944 50.6066 37.4944C50.5976 37.4944 50.5886 37.4944 50.5796 37.4944C50.5706 37.4944 50.5615 37.4944 50.5525 37.4944C50.5435 37.4944 50.5344 37.4944 50.5254 37.4944C50.5163 37.4944 50.5073 37.4944 50.4982 37.4944C50.4891 37.4944 50.48 37.4944 50.471 37.4944C50.4619 37.4944 50.4528 37.4944 50.4437 37.4944C50.4346 37.4944 50.4255 37.4944 50.4163 37.4944C50.4072 37.4944 50.3981 37.4944 50.389 37.4944C50.3798 37.4944 50.3707 37.4944 50.3615 37.4944C50.3524 37.4944 50.3432 37.4944 50.3341 37.4944C50.3249 37.4944 50.3157 37.4944 50.3065 37.4944C50.2974 37.4944 50.2882 37.4944 50.279 37.4944C50.2698 37.4944 50.2606 37.4944 50.2514 37.4944C50.2422 37.4944 50.2329 37.4944 50.2237 37.4944C50.2145 37.4944 50.2053 37.4944 50.196 37.4944C50.1868 37.4944 50.1775 37.4944 50.1683 37.4944C50.159 37.4944 50.1498 37.4944 50.1405 37.4944C50.1312 37.4944 50.122 37.4944 50.1127 37.4944C50.1034 37.4944 50.0941 37.4944 50.0848 37.4944C50.0755 37.4944 50.0662 37.4944 50.0569 37.4944C50.0476 37.4944 50.0383 37.4944 50.029 37.4944C50.0197 37.4944 50.0103 37.4944 50.001 37.4944C49.9917 37.4944 49.9823 37.4944 49.973 37.4944C49.9637 37.4944 49.9543 37.4944 49.945 37.4944C49.9356 37.4944 49.9262 37.4944 49.9169 37.4944C49.9075 37.4944 49.8981 37.4944 49.8887 37.4944C49.8794 37.4944 49.87 37.4944 49.8606 37.4944C49.8512 37.4944 49.8418 37.4944 49.8324 37.4944C49.823 37.4944 49.8136 37.4944 49.8042 37.4944C49.7947 37.4944 49.7853 37.4944 49.7759 37.4944C49.7665 37.4944 49.757 37.4944 49.7476 37.4944C49.7382 37.4944 49.7287 37.4944 49.7193 37.4944C49.7098 37.4944 49.7004 37.4944 49.6909 37.4944C49.6815 37.4944 49.672 37.4944 49.6625 37.4944C49.6531 37.4944 49.6436 37.4944 49.6341 37.4944C49.6246 37.4944 49.6152 37.4944 49.6057 37.4944C49.5962 37.4944 49.5867 37.4944 49.5772 37.4944C49.5677 37.4944 49.5582 37.4944 49.5487 37.4944C49.5392 37.4944 49.5297 37.4944 49.5202 37.4944C49.5107 37.4944 49.5011 37.4944 49.4916 37.4944C49.4821 37.4944 49.4726 37.4944 49.463 37.4944C49.4535 37.4944 49.444 37.4944 49.4344 37.4944C49.4249 37.4944 49.4153 37.4944 49.4058 37.4944C49.3962 37.4944 49.3867 37.4944 49.3771 37.4944C49.3676 37.4944 49.358 37.4944 49.3484 37.4944C49.3389 37.4944 49.3293 37.4944 49.3197 37.4944C49.3102 37.4944 49.3006 37.4944 49.291 37.4944C49.2814 37.4944 49.2718 37.4944 49.2623 37.4944C49.2527 37.4944 49.2431 37.4944 49.2335 37.4944C49.2239 37.4944 49.2143 37.4944 49.2047 37.4944C49.1951 37.4944 49.1855 37.4944 49.1759 37.4944C49.1663 37.4944 49.1567 37.4944 49.1471 37.4944C49.1374 37.4944 49.1278 37.4944 49.1182 37.4944C49.1086 37.4944 49.099 37.4944 49.0893 37.4944C49.0797 37.4944 49.0701 37.4944 49.0605 37.4944C49.0508 37.4944 49.0412 37.4944 49.0316 37.4944C49.0219 37.4944 49.0123 37.4944 49.0027 37.4944C48.993 37.4944 48.9834 37.4944 48.9737 37.4944C48.9641 37.4944 48.9544 37.4944 48.9448 37.4944C48.9351 37.4944 48.9255 37.4944 48.9158 37.4944C48.9062 37.4944 48.8965 37.4944 48.8868 37.4944C48.8772 37.4944 48.8675 37.4944 48.8579 37.4944C48.8482 37.4944 48.8385 37.4944 48.8289 37.4944C48.8192 37.4944 48.8095 37.4944 48.7998 37.4944C48.7902 37.4944 48.7805 37.4944 48.7708 37.4944C48.7612 37.4944 48.7515 37.4944 48.7418 37.4944C48.7321 37.4944 48.7224 37.4944 48.7128 37.4944C48.7031 37.4944 48.6934 37.4944 48.6837 37.4944C48.674 37.4944 48.6643 37.4944 48.6547 37.4944C48.645 37.4944 48.6353 37.4944 48.6256 37.4944C48.6159 37.4944 48.6062 37.4944 48.5965 37.4944C48.5868 37.4944 48.5771 37.4944 48.5674 37.4944C48.5577 37.4944 48.5481 37.4944 48.5384 37.4944C48.5287 37.4944 48.519 37.4944 48.5093 37.4944C48.4996 37.4944 48.4899 37.4944 48.4802 37.4944C48.4705 37.4944 48.4608 37.4944 48.4511 37.4944C48.4414 37.4944 48.4317 37.4944 48.422 37.4944C48.4123 37.4944 48.4026 37.4944 48.3929 37.4944C48.3832 37.4944 48.3735 37.4944 48.3638 37.4944C48.3541 37.4944 48.3444 37.4944 48.3347 37.4944C48.325 37.4944 48.3153 37.4944 48.3056 37.4944C48.2959 37.4944 48.2862 37.4944 48.2765 37.4944C48.2668 37.4944 48.2571 37.4944 48.2474 37.4944C48.2377 37.4944 48.228 37.4944 48.2183 37.4944C48.2086 37.4944 48.1989 37.4944 48.1892 37.4944C48.1795 37.4944 48.1698 37.4944 48.1601 37.4944C48.1504 37.4944 48.1407 37.4944 48.131 37.4944C48.1213 37.4944 48.1116 37.4944 48.1019 37.4944C48.0922 37.4944 48.0825 37.4944 48.0728 37.4944C48.0631 37.4944 48.0534 37.4944 48.0437 37.4944C48.034 37.4944 48.0243 37.4944 48.0146 37.4944C48.0049 37.4944 47.9952 37.4944 47.9856 37.4944C47.9759 37.4944 47.9662 37.4944 47.9565 37.4944C47.9468 37.4944 47.9371 37.4944 47.9274 37.4944C47.9178 37.4944 47.9081 37.4944 47.8984 37.4944C47.8887 37.4944 47.879 37.4944 47.8694 37.4944C47.8597 37.4944 47.85 37.4944 47.8403 37.4944C47.8307 37.4944 47.821 37.4944 47.8113 37.4944C47.8016 37.4944 47.792 37.4944 47.7823 37.4944C47.7726 37.4944 47.763 37.4944 47.7533 37.4944C47.7437 37.4944 47.734 37.4944 47.7243 37.4944C47.7147 37.4944 47.705 37.4944 47.6954 37.4944C47.6857 37.4944 47.6761 37.4944 47.6664 37.4944C47.6568 37.4944 47.6471 37.4944 47.6375 37.4944C47.6278 37.4944 47.6182 37.4944 47.6085 37.4944C47.5989 37.4944 47.5893 37.4944 47.5796 37.4944C47.57 37.4944 47.5604 37.4944 47.5507 37.4944C47.5411 37.4944 47.5315 37.4944 47.5219 37.4944C47.5122 37.4944 47.5026 37.4944 47.493 37.4944C47.4834 37.4944 47.4738 37.4944 47.4642 37.4944C47.4546 37.4944 47.4449 37.4944 47.4353 37.4944C47.4257 37.4944 47.4161 37.4944 47.4065 37.4944C47.3969 37.4944 47.3873 37.4944 47.3778 37.4944C47.3682 37.4944 47.3586 37.4944 47.349 37.4944C47.3394 37.4944 47.3298 37.4944 47.3203 37.4944C47.3107 37.4944 47.3011 37.4944 47.2915 37.4944C47.282 37.4944 47.2724 37.4944 47.2628 37.4944C47.2533 37.4944 47.2437 37.4944 47.2342 37.4944C47.2246 37.4944 47.2151 37.4944 47.2055 37.4944C47.196 37.4944 47.1864 37.4944 47.1769 37.4944C47.1673 37.4944 47.1578 37.4944 47.1483 37.4944C47.1388 37.4944 47.1292 37.4944 47.1197 37.4944C47.1102 37.4944 47.1007 37.4944 47.0912 37.4944C47.0817 37.4944 47.0721 37.4944 47.0626 37.4944C47.0531 37.4944 47.0436 37.4944 47.0342 37.4944C47.0247 37.4944 47.0152 37.4944 47.0057 37.4944C46.9962 37.4944 46.9867 37.4944 46.9773 37.4944C46.9678 37.4944 46.9583 37.4944 46.9488 37.4944C46.9394 37.4944 46.9299 37.4944 46.9205 37.4944C46.911 37.4944 46.9016 37.4944 46.8921 37.4944C46.8827 37.4944 46.8732 37.4944 46.8638 37.4944C46.8544 37.4944 46.8449 37.4944 46.8355 37.4944C46.8261 37.4944 46.8167 37.4944 46.8073 37.4944C46.7979 37.4944 46.7885 37.4944 46.7791 37.4944C46.7697 37.4944 46.7603 37.4944 46.7509 37.4944C46.7415 37.4944 46.7321 37.4944 46.7227 37.4944C46.7134 37.4944 46.704 37.4944 46.6946 37.4944C46.6853 37.4944 46.6759 37.4944 46.6666 37.4944C46.6572 37.4944 46.6479 37.4944 46.6385 37.4944C46.6292 37.4944 46.6198 37.4944 46.6105 37.4944C46.6012 37.4944 46.5919 37.4944 46.5826 37.4944C46.5732 37.4944 46.5639 37.4944 46.5546 37.4944C46.5453 37.4944 46.536 37.4944 46.5267 37.4944C46.5175 37.4944 46.5082 37.4944 46.4989 37.4944C46.4896 37.4944 46.4804 37.4944 46.4711 37.4944C46.4618 37.4944 46.4526 37.4944 46.4433 37.4944C46.4341 37.4944 46.4248 37.4944 46.4156 37.4944C46.4064 37.4944 46.3971 37.4944 46.3879 37.4944C46.3787 37.4944 46.3695 37.4944 46.3603 37.4944C46.3511 37.4944 46.3419 37.4944 46.3327 37.4944C46.3235 37.4944 46.3143 37.4944 46.3052 37.4944C46.296 37.4944 46.2868 37.4944 46.2777 37.4944C46.2685 37.4944 46.2593 37.4944 46.2502 37.4944C46.241 37.4944 46.2319 37.4944 46.2228 37.4944C46.2137 37.4944 46.2045 37.4944 46.1954 37.4944C46.1863 37.4944 46.1772 37.4944 46.1681 37.4944C46.159 37.4944 46.1499 37.4944 46.1408 37.4944C46.1318 37.4944 46.1227 37.4944 46.1136 37.4944C46.1046 37.4944 46.0955 37.4944 46.0864 37.4944C46.0774 37.4944 46.0684 37.4944 46.0593 37.4944C46.0503 37.4944 46.0413 37.4944 46.0323 37.4944C46.0232 37.4944 46.0142 37.4944 46.0052 37.4944C45.9962 37.4944 45.9873 37.4944 45.9783 37.4944C45.9693 37.4944 45.9603 37.4944 45.9514 37.4944C45.9424 37.4944 45.9335 37.4944 45.9245 37.4944C45.9156 37.4944 45.9066 37.4944 45.8977 37.4944C45.8888 37.4944 45.8799 37.4944 45.871 37.4944C45.862 37.4944 45.8531 37.4944 45.8443 37.4944C45.8354 37.4944 45.8265 37.4944 45.8176 37.4944C45.8087 37.4944 45.7999 37.4944 45.791 37.4944C45.7822 37.4944 45.7733 37.4944 45.7645 37.4944C45.7557 37.4944 45.7469 37.4944 45.738 37.4944C45.7292 37.4944 45.7204 37.4944 45.7116 37.4944C45.7028 37.4944 45.6941 37.4944 45.6853 37.4944C45.6765 37.4944 45.6678 37.4944 45.659 37.4944C45.6502 37.4944 45.6415 37.4944 45.6328 37.4944C45.624 37.4944 45.6153 37.4944 45.6066 37.4944C45.5979 37.4944 45.5892 37.4944 45.5805 37.4944C45.5718 37.4944 45.5631 37.4944 45.5545 37.4944C45.5458 37.4944 45.5371 37.4944 45.5285 37.4944C45.5198 37.4944 45.5112 37.4944 45.5026 37.4944C45.4939 37.4944 45.4853 37.4944 45.4767 37.4944C45.4681 37.4944 45.4595 37.4944 45.4509 37.4944C45.4423 37.4944 45.4338 37.4944 45.4252 37.4944C45.4166 37.4944 45.4081 37.4944 45.3995 37.4944C45.391 37.4944 45.3825 37.4944 45.3739 37.4944C45.3654 37.4944 45.3569 37.4944 45.3484 37.4944C45.3399 37.4944 45.3314 37.4944 45.323 37.4944C45.3145 37.4944 45.306 37.4944 45.2976 37.4944C45.2891 37.4944 45.2807 37.4944 45.2723 37.4944C45.2638 37.4944 45.2554 37.4944 45.247 37.4944C45.2386 37.4944 45.2302 37.4944 45.2218 37.4944C45.2135 37.4944 45.2051 37.4944 45.1967 37.4944C45.1884 37.4944 45.18 37.4944 45.1717 37.4944C45.1634 37.4944 45.1551 37.4944 45.1468 37.4944C45.1384 37.4944 45.1301 37.4944 45.1219 37.4944C45.1136 37.4944 45.1053 37.4944 45.0971 37.4944C45.0888 37.4944 45.0805 37.4944 45.0723 37.4944C45.0641 37.4944 45.0559 37.4944 45.0477 37.4944C45.0394 37.4944 45.0313 37.4944 45.0231 37.4944C45.0149 37.4944 45.0067 37.4944 44.9986 37.4944C44.9904 37.4944 44.9823 37.4944 44.9741 37.4944C44.966 37.4944 44.9579 37.4944 44.9498 37.4944C44.9417 37.4944 44.9336 37.4944 44.9255 37.4944C44.9174 37.4944 44.9093 37.4944 44.9013 37.4944C44.8932 37.4944 44.8852 37.4944 44.8772 37.4944C44.8692 37.4944 44.8611 37.4944 44.8531 37.4944C44.8451 37.4944 44.8372 37.4944 44.8292 37.4944C44.8212 37.4944 44.8133 37.4944 44.8053 37.4944C44.7974 37.4944 44.7894 37.4944 44.7815 37.4944C44.7736 37.4944 44.7657 37.4944 44.7578 37.4944C44.7499 37.4944 44.742 37.4944 44.7342 37.4944C44.7263 37.4944 44.7185 37.4944 44.7106 37.4944C44.7028 37.4944 44.695 37.4944 44.6872 37.4944C44.6794 37.4944 44.6716 37.4944 44.6638 37.4944C44.656 37.4944 44.6483 37.4944 44.6405 37.4944C44.6328 37.4944 44.625 37.4944 44.6173 37.4944C44.6096 37.4944 44.6019 37.4944 44.5942 37.4944C44.5865 37.4944 44.5789 37.4944 44.5712 37.4944C44.5635 37.4944 44.5559 37.4944 44.5483 37.4944C44.5406 37.4944 44.533 37.4944 44.5254 37.4944C44.5178 37.4944 44.5102 37.4944 44.5027 37.4944C44.4951 37.4944 44.4875 37.4944 44.48 37.4944C44.4725 37.4944 44.4649 37.4944 44.4574 37.4944C44.4499 37.4944 44.4424 37.4944 44.4349 37.4944C44.4275 37.4944 44.42 37.4944 44.4125 37.4944C44.4051 37.4944 44.3977 37.4944 44.3903 37.4944C44.3828 37.4944 44.3754 37.4944 44.3681 37.4944C44.3607 37.4944 44.3533 37.4944 44.3459 37.4944C44.3386 37.4944 44.3313 37.4944 44.3239 37.4944C44.3166 37.4944 44.3093 37.4944 44.302 37.4944C44.2947 37.4944 44.2875 37.4944 44.2802 37.4944C44.2729 37.4944 44.2657 37.4944 44.2585 37.4944C44.2512 37.4944 44.244 37.4944 44.2368 37.4944C44.2297 37.4944 44.2225 37.4944 44.2153 37.4944C44.2082 37.4944 44.201 37.4944 44.1939 37.4944C44.1868 37.4944 44.1797 37.4944 44.1726 37.4944C44.1655 37.4944 44.1584 37.4944 44.1513 37.4944C44.1443 37.4944 44.1372 37.4944 44.1302 37.4944C44.1232 37.4944 44.1162 37.4944 44.1092 37.4944C44.1022 37.4944 44.0952 37.4944 44.0883 37.4944C44.0813 37.4944 44.0744 37.4944 44.0674 37.4944C44.0605 37.4944 44.0536 37.4944 44.0467 37.4944C44.0398 37.4944 44.033 37.4944 44.0261 37.4944C44.0192 37.4944 44.0124 37.4944 44.0056 37.4944C43.9988 37.4944 43.992 37.4944 43.9852 37.4944C43.9784 37.4944 43.9716 37.4944 43.9649 37.4944C43.9581 37.4944 43.9514 37.4944 43.9447 37.4944C43.938 37.4944 43.9313 37.4944 43.9246 37.4944C43.9179 37.4944 43.9113 37.4944 43.9046 37.4944C43.898 37.4944 43.8914 37.4944 43.8848 37.4944C43.8782 37.4944 43.8716 37.4944 43.865 37.4944C43.8584 37.4944 43.8519 37.4944 43.8454 37.4944C43.8388 37.4944 43.8323 37.4944 43.8258 37.4944C43.8193 37.4944 43.8129 37.4944 43.8064 37.4944C43.7999 37.4944 43.7935 37.4944 43.7871 37.4944C43.7807 37.4944 43.7743 37.4944 43.7679 37.4944C43.7615 37.4944 43.7551 37.4944 43.7488 37.4944C43.7424 37.4944 43.7361 37.4944 43.7298 37.4944C43.7235 37.4944 43.7172 37.4944 43.711 37.4944C43.7047 37.4944 43.6984 37.4944 43.6922 37.4944C43.686 37.4944 43.6798 37.4944 43.6736 37.4944C43.6674 37.4944 43.6612 37.4944 43.6551 37.4944C43.6489 37.4944 43.6428 37.4944 43.6367 37.4944C43.6306 37.4944 43.6245 37.4944 43.6184 37.4944C43.6123 37.4944 43.6063 37.4944 43.6002 37.4944C43.5942 37.4944 43.5882 37.4944 43.5822 37.4944C43.5762 37.4944 43.5702 37.4944 43.5643 37.4944C43.5583 37.4944 43.5524 37.4944 43.5465 37.4944C43.5405 37.4944 43.5346 37.4944 43.5288 37.4944C43.5229 37.4944 43.517 37.4944 43.5112 37.4944C43.5054 37.4944 43.4996 37.4944 43.4938 37.4944C43.488 37.4944 43.4822 37.4944 43.4765 37.4944C43.4707 37.4944 43.465 37.4944 43.4593 37.4944C43.4535 37.4944 43.4479 37.4944 43.4422 37.4944C43.4365 37.4944 43.4309 37.4944 43.4252 37.4944C43.4196 37.4944 43.414 37.4944 43.4084 37.4944C43.4028 37.4944 43.3973 37.4944 43.3917 37.4944C43.3862 37.4944 43.3807 37.4944 43.3752 37.4944C43.3697 37.4944 43.3642 37.4944 43.3587 37.4944C43.3533 37.4944 43.3478 37.4944 43.3424 37.4944C43.337 37.4944 43.3316 37.4944 43.3262 37.4944C43.3209 37.4944 43.3155 37.4944 43.3102 37.4944C43.3048 37.4944 43.2995 37.4944 43.2943 37.4944C43.289 37.4944 43.2837 37.4944 43.2785 37.4944C43.2732 37.4944 43.268 37.4944 43.2628 37.4944C43.2576 37.4944 43.2524 37.4944 43.2473 37.4944C43.2421 37.4944 43.237 37.4944 43.2319 37.4944C43.2268 37.4944 43.2217 37.4944 43.2166 37.4944C43.2115 37.4944 43.2065 37.4944 43.2015 37.4944C43.1964 37.4944 43.1914 37.4944 43.1865 37.4944C43.1815 37.4944 43.1765 37.4944 43.1716 37.4944C43.1667 37.4944 43.1618 37.4944 43.1569 37.4944C43.152 37.4944 43.1471 37.4944 43.1423 37.4944C43.1374 37.4944 43.1326 37.4944 43.1278 37.4944C43.123 37.4944 43.1183 37.4944 43.1135 37.4944C43.1088 37.4944 43.104 37.4944 43.0993 37.4944C43.0946 37.4944 43.0899 37.4944 43.0853 37.4944C43.0806 37.4944 43.076 37.4944 43.0714 37.4944C43.0668 37.4944 43.0622 37.4944 43.0576 37.4944C43.0531 37.4944 43.0485 37.4944 43.044 37.4944C43.0395 37.4944 43.035 37.4944 43.0305 37.4944C43.0261 37.4944 43.0216 37.4944 43.0172 37.4944C43.0128 37.4944 43.0084 37.4944 43.004 37.4944C42.9996 37.4944 42.9953 37.4944 42.9909 37.4944C42.9866 37.4944 42.9823 37.4944 42.978 37.4944C42.9738 37.4944 42.9695 37.4944 42.9653 37.4944C42.961 37.4944 42.9568 37.4944 42.9527 37.4944C42.9485 37.4944 42.9443 37.4944 42.9402 37.4944C42.936 37.4944 42.9319 37.4944 42.9279 37.4944C42.9238 37.4944 42.9197 37.4944 42.9157 37.4944C42.9116 37.4944 42.9076 37.4944 42.9036 37.4944C42.8997 37.4944 42.8957 37.4944 42.8918 37.4944C42.8878 37.4944 42.8839 37.4944 42.88 37.4944C42.8761 37.4944 42.8723 37.4944 42.8684 37.4944C42.8646 37.4944 42.8608 37.4944 42.857 37.4944C42.8532 37.4944 42.8495 37.4944 42.8457 37.4944C42.842 37.4944 42.8383 37.4944 42.8346 37.4944C42.8309 37.4944 42.8272 37.4944 42.8236 37.4944C42.82 37.4944 42.8164 37.4944 42.8128 37.4944C42.8092 37.4944 42.8056 37.4944 42.8021 37.4944C42.7986 37.4944 42.7951 37.4944 42.7916 37.4944C42.7881 37.4944 42.7847 37.4944 42.7812 37.4944C42.7778 37.4944 42.7744 37.4944 42.771 37.4944C42.7676 37.4944 42.7643 37.4944 42.761 37.4944C42.7576 37.4944 42.7543 37.4944 42.7511 37.4944C42.7478 37.4944 42.7446 37.4944 42.7413 37.4944C42.7381 37.4944 42.7349 37.4944 42.7318 37.4944C42.7286 37.4944 42.7254 37.4944 42.7223 37.4944C42.7192 37.4944 42.7161 37.4944 42.7131 37.4944C42.71 37.4944 42.707 37.4944 42.704 37.4944C42.701 37.4944 42.698 37.4944 42.695 37.4944C42.6921 37.4944 42.6891 37.4944 42.6862 37.4944C42.6833 37.4944 42.6805 37.4944 42.6776 37.4944C42.6748 37.4944 42.672 37.4944 42.6692 37.4944C42.6664 37.4944 42.6636 37.4944 42.6609 37.4944C42.6581 37.4944 42.6554 37.4944 42.6527 37.4944C42.6501 37.4944 42.6474 37.4944 42.6448 37.4944C42.6422 37.4944 42.6396 37.4944 42.637 37.4944C42.6344 37.4944 42.6319 37.4944 42.6293 37.4944C42.6268 37.4944 42.6243 37.4944 42.6219 37.4944C42.6194 37.4944 42.617 37.4944 42.6146 37.4944C42.6122 37.4944 42.6098 37.4944 42.6074 37.4944C42.6051 37.4944 42.6028 37.4944 42.6005 37.4944C42.5982 37.4944 42.5959 37.4944 42.5937 37.4944C42.5914 37.4944 42.5892 37.4944 42.5871 37.4944C42.5849 37.4944 42.5827 37.4944 42.5806 37.4944C42.5785 37.4944 42.5764 37.4944 42.5743 37.4944C42.5722 37.4944 42.5702 37.4944 42.5682 37.4944C42.5662 37.4944 42.5642 37.4944 42.5623 37.4944C42.5603 37.4944 42.5584 37.4944 42.5565 37.4944C42.5546 37.4944 42.5527 37.4944 42.5509 37.4944C42.549 37.4944 42.5472 37.4944 42.5455 37.4944C42.5437 37.4944 42.5419 37.4944 42.5402 37.4944C42.5385 37.4944 42.5368 37.4944 42.5351 37.4944C42.5335 37.4944 42.5318 37.4944 42.5302 37.4944C42.5286 37.4944 42.5271 37.4944 42.5255 37.4944C42.524 37.4944 42.5225 37.4944 42.521 37.4944C42.5195 37.4944 42.518 37.4944 42.5166 37.4944C42.5152 37.4944 42.5138 37.4944 42.5124 37.4944C42.5111 37.4944 42.5097 37.4944 42.5084 37.4944C42.5071 37.4944 42.5058 37.4944 42.5046 37.4944C42.5034 37.4944 42.5021 37.4944 42.5009 37.4944C42.4998 37.4944 42.4986 37.4944 42.4975 37.4944C42.4964 37.4944 42.4953 37.4944 42.4942 37.4944C42.4931 37.4944 42.4921 37.4944 42.4911 37.4944C42.4901 37.4944 42.4891 37.4944 42.4882 37.4944C42.4872 37.4944 42.4863 37.4944 42.4854 37.4944C42.4846 37.4944 42.4837 37.4944 42.4829 37.4944C42.4821 37.4944 42.4813 37.4944 42.4805 37.4944C42.4798 37.4944 42.479 37.4944 42.4783 37.4944C42.4777 37.4944 42.477 37.4944 42.4764 37.4944C42.4757 37.4944 42.4751 37.4944 42.4745 37.4944C42.474 37.4944 42.4734 37.4944 42.4729 37.4944C42.4724 37.4944 42.4719 37.4944 42.4715 37.4944C42.471 37.4944 42.4706 37.4944 42.4703 37.4944C42.4699 37.4944 42.4695 37.4944 42.4692 37.4944C42.4689 37.4944 42.4686 37.4944 42.4683 37.4944C42.4681 37.4944 42.4679 37.4944 42.4677 37.4944C42.4675 37.4944 42.4673 37.4944 42.4672 37.4944C42.4671 37.4944 42.467 37.4944 42.4669 37.4944C42.4668 37.4944 42.4668 37.4944 42.4668 38.2444ZM53.4446 38.9944C53.7546 38.9944 54.004 38.8352 54.1234 38.753C54.2761 38.6478 54.4315 38.5109 54.5817 38.3649C54.8846 38.0704 55.2401 37.6658 55.621 37.2048C56.3855 36.2793 57.3141 35.0505 58.2302 33.842C59.1536 32.624 60.0648 31.426 60.8141 30.5326C61.1902 30.0842 61.5098 29.7315 61.7592 29.4964C61.885 29.3777 61.975 29.3063 62.0316 29.2691C62.1155 29.2139 62.0495 29.2833 61.889 29.2833L61.889 27.7833C61.5875 27.7833 61.3402 27.9286 61.2077 28.0156C61.0478 28.1207 60.8862 28.2579 60.7303 28.4048C60.4164 28.7008 60.0522 29.1068 59.6647 29.5687C58.8869 30.4962 57.952 31.726 57.0349 32.9358C56.1106 34.1551 55.2043 35.354 54.4646 36.2494C54.0934 36.6987 53.7794 37.0529 53.5361 37.2894C53.4131 37.4089 53.3261 37.4807 53.2724 37.5178C53.1853 37.5778 53.2642 37.4944 53.4446 37.4944V38.9944ZM61.889 29.2833C62.3112 29.2833 63.5779 29.2833 64.739 29.2833C65.3196 29.2833 65.8737 29.2833 66.2828 29.2833C66.4873 29.2833 66.6555 29.2833 66.7726 29.2833C66.8312 29.2833 66.8769 29.2833 66.9081 29.2833C66.9236 29.2833 66.9355 29.2833 66.9435 29.2833C66.9476 29.2833 66.9506 29.2833 66.9526 29.2833C66.9536 29.2833 66.9544 29.2833 66.9549 29.2833C66.9552 29.2833 66.9554 29.2833 66.9555 29.2833C66.9556 29.2833 66.9556 29.2833 66.9556 29.2833C66.9557 29.2833 66.9557 29.2833 66.9557 28.5333C66.9557 27.7833 66.9557 27.7833 66.9556 27.7833C66.9556 27.7833 66.9556 27.7833 66.9555 27.7833C66.9554 27.7833 66.9552 27.7833 66.9549 27.7833C66.9544 27.7833 66.9536 27.7833 66.9526 27.7833C66.9506 27.7833 66.9476 27.7833 66.9435 27.7833C66.9355 27.7833 66.9236 27.7833 66.9081 27.7833C66.8769 27.7833 66.8312 27.7833 66.7726 27.7833C66.6555 27.7833 66.4873 27.7833 66.2828 27.7833C65.8737 27.7833 65.3196 27.7833 64.739 27.7833C63.5779 27.7833 62.3112 27.7833 61.889 27.7833L61.889 29.2833Z" fill="#FAFAFA"/>
<path d="M42.4668 49.55C42.0526 49.55 41.7168 49.2142 41.7168 48.8C41.7168 48.3858 42.0526 48.05 42.4668 48.05V49.55ZM61.889 58.5111V57.7611V58.5111ZM66.9557 57.7611C67.3699 57.7611 67.7057 58.0969 67.7057 58.5111C67.7057 58.9253 67.3699 59.2611 66.9557 59.2611V57.7611ZM42.4668 48.8C42.4668 48.05 42.4668 48.05 42.4669 48.05C42.467 48.05 42.4671 48.05 42.4672 48.05C42.4673 48.05 42.4675 48.05 42.4677 48.05C42.4679 48.05 42.4681 48.05 42.4683 48.05C42.4686 48.05 42.4689 48.05 42.4692 48.05C42.4695 48.05 42.4699 48.05 42.4703 48.05C42.4706 48.05 42.471 48.05 42.4715 48.05C42.4719 48.05 42.4724 48.05 42.4729 48.05C42.4734 48.05 42.474 48.05 42.4745 48.05C42.4751 48.05 42.4757 48.05 42.4764 48.05C42.477 48.05 42.4777 48.05 42.4783 48.05C42.479 48.05 42.4798 48.05 42.4805 48.05C42.4813 48.05 42.4821 48.05 42.4829 48.05C42.4837 48.05 42.4846 48.05 42.4854 48.05C42.4863 48.05 42.4872 48.05 42.4882 48.05C42.4891 48.05 42.4901 48.05 42.4911 48.05C42.4921 48.05 42.4931 48.05 42.4942 48.05C42.4953 48.05 42.4964 48.05 42.4975 48.05C42.4986 48.05 42.4998 48.05 42.5009 48.05C42.5021 48.05 42.5034 48.05 42.5046 48.05C42.5058 48.05 42.5071 48.05 42.5084 48.05C42.5097 48.05 42.5111 48.05 42.5124 48.05C42.5138 48.05 42.5152 48.05 42.5166 48.05C42.518 48.05 42.5195 48.05 42.521 48.05C42.5225 48.05 42.524 48.05 42.5255 48.05C42.5271 48.05 42.5286 48.05 42.5302 48.05C42.5318 48.05 42.5335 48.05 42.5351 48.05C42.5368 48.05 42.5385 48.05 42.5402 48.05C42.5419 48.05 42.5437 48.05 42.5455 48.05C42.5472 48.05 42.549 48.05 42.5509 48.05C42.5527 48.05 42.5546 48.05 42.5565 48.05C42.5584 48.05 42.5603 48.05 42.5623 48.05C42.5642 48.05 42.5662 48.05 42.5682 48.05C42.5702 48.05 42.5722 48.05 42.5743 48.05C42.5764 48.05 42.5785 48.05 42.5806 48.05C42.5827 48.05 42.5849 48.05 42.5871 48.05C42.5892 48.05 42.5914 48.05 42.5937 48.05C42.5959 48.05 42.5982 48.05 42.6005 48.05C42.6028 48.05 42.6051 48.05 42.6074 48.05C42.6098 48.05 42.6122 48.05 42.6146 48.05C42.617 48.05 42.6194 48.05 42.6219 48.05C42.6243 48.05 42.6268 48.05 42.6293 48.05C42.6319 48.05 42.6344 48.05 42.637 48.05C42.6396 48.05 42.6422 48.05 42.6448 48.05C42.6474 48.05 42.6501 48.05 42.6527 48.05C42.6554 48.05 42.6581 48.05 42.6609 48.05C42.6636 48.05 42.6664 48.05 42.6692 48.05C42.672 48.05 42.6748 48.05 42.6776 48.05C42.6805 48.05 42.6833 48.05 42.6862 48.05C42.6891 48.05 42.6921 48.05 42.695 48.05C42.698 48.05 42.701 48.05 42.704 48.05C42.707 48.05 42.71 48.05 42.7131 48.05C42.7161 48.05 42.7192 48.05 42.7223 48.05C42.7254 48.05 42.7286 48.05 42.7318 48.05C42.7349 48.05 42.7381 48.05 42.7413 48.05C42.7446 48.05 42.7478 48.05 42.7511 48.05C42.7543 48.05 42.7576 48.05 42.761 48.05C42.7643 48.05 42.7676 48.05 42.771 48.05C42.7744 48.05 42.7778 48.05 42.7812 48.05C42.7847 48.05 42.7881 48.05 42.7916 48.05C42.7951 48.05 42.7986 48.05 42.8021 48.05C42.8056 48.05 42.8092 48.05 42.8128 48.05C42.8164 48.05 42.82 48.05 42.8236 48.05C42.8272 48.05 42.8309 48.05 42.8346 48.05C42.8383 48.05 42.842 48.05 42.8457 48.05C42.8495 48.05 42.8532 48.05 42.857 48.05C42.8608 48.05 42.8646 48.05 42.8684 48.05C42.8723 48.05 42.8761 48.05 42.88 48.05C42.8839 48.05 42.8878 48.05 42.8918 48.05C42.8957 48.05 42.8997 48.05 42.9036 48.05C42.9076 48.05 42.9116 48.05 42.9157 48.05C42.9197 48.05 42.9238 48.05 42.9279 48.05C42.9319 48.05 42.936 48.05 42.9402 48.05C42.9443 48.05 42.9485 48.05 42.9527 48.05C42.9568 48.05 42.961 48.05 42.9653 48.05C42.9695 48.05 42.9738 48.05 42.978 48.05C42.9823 48.05 42.9866 48.05 42.9909 48.05C42.9953 48.05 42.9996 48.05 43.004 48.05C43.0084 48.05 43.0128 48.05 43.0172 48.05C43.0216 48.05 43.0261 48.05 43.0305 48.05C43.035 48.05 43.0395 48.05 43.044 48.05C43.0485 48.05 43.0531 48.05 43.0576 48.05C43.0622 48.05 43.0668 48.05 43.0714 48.05C43.076 48.05 43.0806 48.05 43.0853 48.05C43.0899 48.05 43.0946 48.05 43.0993 48.05C43.104 48.05 43.1088 48.05 43.1135 48.05C43.1183 48.05 43.123 48.05 43.1278 48.05C43.1326 48.05 43.1374 48.05 43.1423 48.05C43.1471 48.05 43.152 48.05 43.1569 48.05C43.1618 48.05 43.1667 48.05 43.1716 48.05C43.1765 48.05 43.1815 48.05 43.1865 48.05C43.1914 48.05 43.1964 48.05 43.2015 48.05C43.2065 48.05 43.2115 48.05 43.2166 48.05C43.2217 48.05 43.2268 48.05 43.2319 48.05C43.237 48.05 43.2421 48.05 43.2473 48.05C43.2524 48.05 43.2576 48.05 43.2628 48.05C43.268 48.05 43.2732 48.05 43.2785 48.05C43.2837 48.05 43.289 48.05 43.2943 48.05C43.2995 48.05 43.3048 48.05 43.3102 48.05C43.3155 48.05 43.3209 48.05 43.3262 48.05C43.3316 48.05 43.337 48.05 43.3424 48.05C43.3478 48.05 43.3533 48.05 43.3587 48.05C43.3642 48.05 43.3697 48.05 43.3752 48.05C43.3807 48.05 43.3862 48.05 43.3917 48.05C43.3973 48.05 43.4028 48.05 43.4084 48.05C43.414 48.05 43.4196 48.05 43.4252 48.05C43.4309 48.05 43.4365 48.05 43.4422 48.05C43.4479 48.05 43.4535 48.05 43.4593 48.05C43.465 48.05 43.4707 48.05 43.4765 48.05C43.4822 48.05 43.488 48.05 43.4938 48.05C43.4996 48.05 43.5054 48.05 43.5112 48.05C43.517 48.05 43.5229 48.05 43.5288 48.05C43.5346 48.05 43.5405 48.05 43.5465 48.05C43.5524 48.05 43.5583 48.05 43.5643 48.05C43.5702 48.05 43.5762 48.05 43.5822 48.05C43.5882 48.05 43.5942 48.05 43.6002 48.05C43.6063 48.05 43.6123 48.05 43.6184 48.05C43.6245 48.05 43.6306 48.05 43.6367 48.05C43.6428 48.05 43.6489 48.05 43.6551 48.05C43.6612 48.05 43.6674 48.05 43.6736 48.05C43.6798 48.05 43.686 48.05 43.6922 48.05C43.6984 48.05 43.7047 48.05 43.711 48.05C43.7172 48.05 43.7235 48.05 43.7298 48.05C43.7361 48.05 43.7424 48.05 43.7488 48.05C43.7551 48.05 43.7615 48.05 43.7679 48.05C43.7743 48.05 43.7807 48.05 43.7871 48.05C43.7935 48.05 43.7999 48.05 43.8064 48.05C43.8129 48.05 43.8193 48.05 43.8258 48.05C43.8323 48.05 43.8388 48.05 43.8454 48.05C43.8519 48.05 43.8584 48.05 43.865 48.05C43.8716 48.05 43.8782 48.05 43.8848 48.05C43.8914 48.05 43.898 48.05 43.9046 48.05C43.9113 48.05 43.9179 48.05 43.9246 48.05C43.9313 48.05 43.938 48.05 43.9447 48.05C43.9514 48.05 43.9581 48.05 43.9649 48.05C43.9716 48.05 43.9784 48.05 43.9852 48.05C43.992 48.05 43.9988 48.05 44.0056 48.05C44.0124 48.05 44.0192 48.05 44.0261 48.05C44.033 48.05 44.0398 48.05 44.0467 48.05C44.0536 48.05 44.0605 48.05 44.0674 48.05C44.0744 48.05 44.0813 48.05 44.0883 48.05C44.0952 48.05 44.1022 48.05 44.1092 48.05C44.1162 48.05 44.1232 48.05 44.1302 48.05C44.1372 48.05 44.1443 48.05 44.1513 48.05C44.1584 48.05 44.1655 48.05 44.1726 48.05C44.1797 48.05 44.1868 48.05 44.1939 48.05C44.201 48.05 44.2082 48.05 44.2153 48.05C44.2225 48.05 44.2297 48.05 44.2368 48.05C44.244 48.05 44.2512 48.05 44.2585 48.05C44.2657 48.05 44.2729 48.05 44.2802 48.05C44.2875 48.05 44.2947 48.05 44.302 48.05C44.3093 48.05 44.3166 48.05 44.3239 48.05C44.3313 48.05 44.3386 48.05 44.3459 48.05C44.3533 48.05 44.3607 48.05 44.3681 48.05C44.3754 48.05 44.3828 48.05 44.3903 48.05C44.3977 48.05 44.4051 48.05 44.4125 48.05C44.42 48.05 44.4275 48.05 44.4349 48.05C44.4424 48.05 44.4499 48.05 44.4574 48.05C44.4649 48.05 44.4725 48.05 44.48 48.05C44.4875 48.05 44.4951 48.05 44.5027 48.05C44.5102 48.05 44.5178 48.05 44.5254 48.05C44.533 48.05 44.5406 48.05 44.5483 48.05C44.5559 48.05 44.5635 48.05 44.5712 48.05C44.5789 48.05 44.5865 48.05 44.5942 48.05C44.6019 48.05 44.6096 48.05 44.6173 48.05C44.625 48.05 44.6328 48.05 44.6405 48.05C44.6483 48.05 44.656 48.05 44.6638 48.05C44.6716 48.05 44.6794 48.05 44.6872 48.05C44.695 48.05 44.7028 48.05 44.7106 48.05C44.7185 48.05 44.7263 48.05 44.7342 48.05C44.742 48.05 44.7499 48.05 44.7578 48.05C44.7657 48.05 44.7736 48.05 44.7815 48.05C44.7894 48.05 44.7974 48.05 44.8053 48.05C44.8133 48.05 44.8212 48.05 44.8292 48.05C44.8372 48.05 44.8451 48.05 44.8531 48.05C44.8611 48.05 44.8692 48.05 44.8772 48.05C44.8852 48.05 44.8932 48.05 44.9013 48.05C44.9093 48.05 44.9174 48.05 44.9255 48.05C44.9336 48.05 44.9417 48.05 44.9498 48.05C44.9579 48.05 44.966 48.05 44.9741 48.05C44.9823 48.05 44.9904 48.05 44.9986 48.05C45.0067 48.05 45.0149 48.05 45.0231 48.05C45.0313 48.05 45.0394 48.05 45.0477 48.05C45.0559 48.05 45.0641 48.05 45.0723 48.05C45.0805 48.05 45.0888 48.05 45.0971 48.05C45.1053 48.05 45.1136 48.05 45.1219 48.05C45.1301 48.05 45.1384 48.05 45.1468 48.05C45.1551 48.05 45.1634 48.05 45.1717 48.05C45.18 48.05 45.1884 48.05 45.1967 48.05C45.2051 48.05 45.2135 48.05 45.2218 48.05C45.2302 48.05 45.2386 48.05 45.247 48.05C45.2554 48.05 45.2638 48.05 45.2723 48.05C45.2807 48.05 45.2891 48.05 45.2976 48.05C45.306 48.05 45.3145 48.05 45.323 48.05C45.3314 48.05 45.3399 48.05 45.3484 48.05C45.3569 48.05 45.3654 48.05 45.3739 48.05C45.3825 48.05 45.391 48.05 45.3995 48.05C45.4081 48.05 45.4166 48.05 45.4252 48.05C45.4338 48.05 45.4423 48.05 45.4509 48.05C45.4595 48.05 45.4681 48.05 45.4767 48.05C45.4853 48.05 45.4939 48.05 45.5026 48.05C45.5112 48.05 45.5198 48.05 45.5285 48.05C45.5371 48.05 45.5458 48.05 45.5545 48.05C45.5631 48.05 45.5718 48.05 45.5805 48.05C45.5892 48.05 45.5979 48.05 45.6066 48.05C45.6153 48.05 45.624 48.05 45.6328 48.05C45.6415 48.05 45.6502 48.05 45.659 48.05C45.6678 48.05 45.6765 48.05 45.6853 48.05C45.6941 48.05 45.7028 48.05 45.7116 48.05C45.7204 48.05 45.7292 48.05 45.738 48.05C45.7469 48.05 45.7557 48.05 45.7645 48.05C45.7733 48.05 45.7822 48.05 45.791 48.05C45.7999 48.05 45.8087 48.05 45.8176 48.05C45.8265 48.05 45.8354 48.05 45.8443 48.05C45.8531 48.05 45.862 48.05 45.871 48.05C45.8799 48.05 45.8888 48.05 45.8977 48.05C45.9066 48.05 45.9156 48.05 45.9245 48.05C45.9335 48.05 45.9424 48.05 45.9514 48.05C45.9603 48.05 45.9693 48.05 45.9783 48.05C45.9873 48.05 45.9962 48.05 46.0052 48.05C46.0142 48.05 46.0232 48.05 46.0323 48.05C46.0413 48.05 46.0503 48.05 46.0593 48.05C46.0684 48.05 46.0774 48.05 46.0864 48.05C46.0955 48.05 46.1046 48.05 46.1136 48.05C46.1227 48.05 46.1318 48.05 46.1408 48.05C46.1499 48.05 46.159 48.05 46.1681 48.05C46.1772 48.05 46.1863 48.05 46.1954 48.05C46.2045 48.05 46.2137 48.05 46.2228 48.05C46.2319 48.05 46.241 48.05 46.2502 48.05C46.2593 48.05 46.2685 48.05 46.2777 48.05C46.2868 48.05 46.296 48.05 46.3052 48.05C46.3143 48.05 46.3235 48.05 46.3327 48.05C46.3419 48.05 46.3511 48.05 46.3603 48.05C46.3695 48.05 46.3787 48.05 46.3879 48.05C46.3971 48.05 46.4064 48.05 46.4156 48.05C46.4248 48.05 46.4341 48.05 46.4433 48.05C46.4526 48.05 46.4618 48.05 46.4711 48.05C46.4804 48.05 46.4896 48.05 46.4989 48.05C46.5082 48.05 46.5175 48.05 46.5267 48.05C46.536 48.05 46.5453 48.05 46.5546 48.05C46.5639 48.05 46.5732 48.05 46.5826 48.05C46.5919 48.05 46.6012 48.05 46.6105 48.05C46.6198 48.05 46.6292 48.05 46.6385 48.05C46.6479 48.05 46.6572 48.05 46.6666 48.05C46.6759 48.05 46.6853 48.05 46.6946 48.05C46.704 48.05 46.7134 48.05 46.7227 48.05C46.7321 48.05 46.7415 48.05 46.7509 48.05C46.7603 48.05 46.7697 48.05 46.7791 48.05C46.7885 48.05 46.7979 48.05 46.8073 48.05C46.8167 48.05 46.8261 48.05 46.8355 48.05C46.8449 48.05 46.8544 48.05 46.8638 48.05C46.8732 48.05 46.8827 48.05 46.8921 48.05C46.9016 48.05 46.911 48.05 46.9205 48.05C46.9299 48.05 46.9394 48.05 46.9488 48.05C46.9583 48.05 46.9678 48.05 46.9773 48.05C46.9867 48.05 46.9962 48.05 47.0057 48.05C47.0152 48.05 47.0247 48.05 47.0342 48.05C47.0436 48.05 47.0531 48.05 47.0626 48.05C47.0721 48.05 47.0817 48.05 47.0912 48.05C47.1007 48.05 47.1102 48.05 47.1197 48.05C47.1292 48.05 47.1388 48.05 47.1483 48.05C47.1578 48.05 47.1673 48.05 47.1769 48.05C47.1864 48.05 47.196 48.05 47.2055 48.05C47.2151 48.05 47.2246 48.05 47.2342 48.05C47.2437 48.05 47.2533 48.05 47.2628 48.05C47.2724 48.05 47.282 48.05 47.2915 48.05C47.3011 48.05 47.3107 48.05 47.3203 48.05C47.3298 48.05 47.3394 48.05 47.349 48.05C47.3586 48.05 47.3682 48.05 47.3778 48.05C47.3873 48.05 47.3969 48.05 47.4065 48.05C47.4161 48.05 47.4257 48.05 47.4353 48.05C47.4449 48.05 47.4546 48.05 47.4642 48.05C47.4738 48.05 47.4834 48.05 47.493 48.05C47.5026 48.05 47.5122 48.05 47.5219 48.05C47.5315 48.05 47.5411 48.05 47.5507 48.05C47.5604 48.05 47.57 48.05 47.5796 48.05C47.5893 48.05 47.5989 48.05 47.6085 48.05C47.6182 48.05 47.6278 48.05 47.6375 48.05C47.6471 48.05 47.6568 48.05 47.6664 48.05C47.6761 48.05 47.6857 48.05 47.6954 48.05C47.705 48.05 47.7147 48.05 47.7243 48.05C47.734 48.05 47.7437 48.05 47.7533 48.05C47.763 48.05 47.7726 48.05 47.7823 48.05C47.792 48.05 47.8016 48.05 47.8113 48.05C47.821 48.05 47.8307 48.05 47.8403 48.05C47.85 48.05 47.8597 48.05 47.8694 48.05C47.879 48.05 47.8887 48.05 47.8984 48.05C47.9081 48.05 47.9178 48.05 47.9274 48.05C47.9371 48.05 47.9468 48.05 47.9565 48.05C47.9662 48.05 47.9759 48.05 47.9856 48.05C47.9952 48.05 48.0049 48.05 48.0146 48.05C48.0243 48.05 48.034 48.05 48.0437 48.05C48.0534 48.05 48.0631 48.05 48.0728 48.05C48.0825 48.05 48.0922 48.05 48.1019 48.05C48.1116 48.05 48.1213 48.05 48.131 48.05C48.1407 48.05 48.1504 48.05 48.1601 48.05C48.1698 48.05 48.1795 48.05 48.1892 48.05C48.1989 48.05 48.2086 48.05 48.2183 48.05C48.228 48.05 48.2377 48.05 48.2474 48.05C48.2571 48.05 48.2668 48.05 48.2765 48.05C48.2862 48.05 48.2959 48.05 48.3056 48.05C48.3153 48.05 48.325 48.05 48.3347 48.05C48.3444 48.05 48.3541 48.05 48.3638 48.05C48.3735 48.05 48.3832 48.05 48.3929 48.05C48.4026 48.05 48.4123 48.05 48.422 48.05C48.4317 48.05 48.4414 48.05 48.4511 48.05C48.4608 48.05 48.4705 48.05 48.4802 48.05C48.4899 48.05 48.4996 48.05 48.5093 48.05C48.519 48.05 48.5287 48.05 48.5384 48.05C48.5481 48.05 48.5577 48.05 48.5674 48.05C48.5771 48.05 48.5868 48.05 48.5965 48.05C48.6062 48.05 48.6159 48.05 48.6256 48.05C48.6353 48.05 48.645 48.05 48.6547 48.05C48.6643 48.05 48.674 48.05 48.6837 48.05C48.6934 48.05 48.7031 48.05 48.7128 48.05C48.7224 48.05 48.7321 48.05 48.7418 48.05C48.7515 48.05 48.7612 48.05 48.7708 48.05C48.7805 48.05 48.7902 48.05 48.7998 48.05C48.8095 48.05 48.8192 48.05 48.8289 48.05C48.8385 48.05 48.8482 48.05 48.8579 48.05C48.8675 48.05 48.8772 48.05 48.8868 48.05C48.8965 48.05 48.9062 48.05 48.9158 48.05C48.9255 48.05 48.9351 48.05 48.9448 48.05C48.9544 48.05 48.9641 48.05 48.9737 48.05C48.9834 48.05 48.993 48.05 49.0027 48.05C49.0123 48.05 49.0219 48.05 49.0316 48.05C49.0412 48.05 49.0508 48.05 49.0605 48.05C49.0701 48.05 49.0797 48.05 49.0893 48.05C49.099 48.05 49.1086 48.05 49.1182 48.05C49.1278 48.05 49.1374 48.05 49.1471 48.05C49.1567 48.05 49.1663 48.05 49.1759 48.05C49.1855 48.05 49.1951 48.05 49.2047 48.05C49.2143 48.05 49.2239 48.05 49.2335 48.05C49.2431 48.05 49.2527 48.05 49.2623 48.05C49.2718 48.05 49.2814 48.05 49.291 48.05C49.3006 48.05 49.3102 48.05 49.3197 48.05C49.3293 48.05 49.3389 48.05 49.3484 48.05C49.358 48.05 49.3676 48.05 49.3771 48.05C49.3867 48.05 49.3962 48.05 49.4058 48.05C49.4153 48.05 49.4249 48.05 49.4344 48.05C49.444 48.05 49.4535 48.05 49.463 48.05C49.4726 48.05 49.4821 48.05 49.4916 48.05C49.5011 48.05 49.5107 48.05 49.5202 48.05C49.5297 48.05 49.5392 48.05 49.5487 48.05C49.5582 48.05 49.5677 48.05 49.5772 48.05C49.5867 48.05 49.5962 48.05 49.6057 48.05C49.6152 48.05 49.6246 48.05 49.6341 48.05C49.6436 48.05 49.6531 48.05 49.6625 48.05C49.672 48.05 49.6815 48.05 49.6909 48.05C49.7004 48.05 49.7098 48.05 49.7193 48.05C49.7287 48.05 49.7382 48.05 49.7476 48.05C49.757 48.05 49.7665 48.05 49.7759 48.05C49.7853 48.05 49.7947 48.05 49.8042 48.05C49.8136 48.05 49.823 48.05 49.8324 48.05C49.8418 48.05 49.8512 48.05 49.8606 48.05C49.87 48.05 49.8794 48.05 49.8887 48.05C49.8981 48.05 49.9075 48.05 49.9169 48.05C49.9262 48.05 49.9356 48.05 49.945 48.05C49.9543 48.05 49.9637 48.05 49.973 48.05C49.9823 48.05 49.9917 48.05 50.001 48.05C50.0103 48.05 50.0197 48.05 50.029 48.05C50.0383 48.05 50.0476 48.05 50.0569 48.05C50.0662 48.05 50.0755 48.05 50.0848 48.05C50.0941 48.05 50.1034 48.05 50.1127 48.05C50.122 48.05 50.1312 48.05 50.1405 48.05C50.1498 48.05 50.159 48.05 50.1683 48.05C50.1775 48.05 50.1868 48.05 50.196 48.05C50.2053 48.05 50.2145 48.05 50.2237 48.05C50.2329 48.05 50.2422 48.05 50.2514 48.05C50.2606 48.05 50.2698 48.05 50.279 48.05C50.2882 48.05 50.2974 48.05 50.3065 48.05C50.3157 48.05 50.3249 48.05 50.3341 48.05C50.3432 48.05 50.3524 48.05 50.3615 48.05C50.3707 48.05 50.3798 48.05 50.389 48.05C50.3981 48.05 50.4072 48.05 50.4163 48.05C50.4255 48.05 50.4346 48.05 50.4437 48.05C50.4528 48.05 50.4619 48.05 50.471 48.05C50.48 48.05 50.4891 48.05 50.4982 48.05C50.5073 48.05 50.5163 48.05 50.5254 48.05C50.5344 48.05 50.5435 48.05 50.5525 48.05C50.5615 48.05 50.5706 48.05 50.5796 48.05C50.5886 48.05 50.5976 48.05 50.6066 48.05C50.6156 48.05 50.6246 48.05 50.6336 48.05C50.6426 48.05 50.6516 48.05 50.6605 48.05C50.6695 48.05 50.6785 48.05 50.6874 48.05C50.6964 48.05 50.7053 48.05 50.7142 48.05C50.7232 48.05 50.7321 48.05 50.741 48.05C50.7499 48.05 50.7588 48.05 50.7677 48.05C50.7766 48.05 50.7855 48.05 50.7944 48.05C50.8033 48.05 50.8121 48.05 50.821 48.05C50.8299 48.05 50.8387 48.05 50.8475 48.05C50.8564 48.05 50.8652 48.05 50.874 48.05C50.8828 48.05 50.8917 48.05 50.9005 48.05C50.9093 48.05 50.918 48.05 50.9268 48.05C50.9356 48.05 50.9444 48.05 50.9531 48.05C50.9619 48.05 50.9706 48.05 50.9794 48.05C50.9881 48.05 50.9969 48.05 51.0056 48.05C51.0143 48.05 51.023 48.05 51.0317 48.05C51.0404 48.05 51.0491 48.05 51.0578 48.05C51.0664 48.05 51.0751 48.05 51.0838 48.05C51.0924 48.05 51.1011 48.05 51.1097 48.05C51.1184 48.05 51.127 48.05 51.1356 48.05C51.1442 48.05 51.1528 48.05 51.1614 48.05C51.17 48.05 51.1786 48.05 51.1871 48.05C51.1957 48.05 51.2043 48.05 51.2128 48.05C51.2214 48.05 51.2299 48.05 51.2384 48.05C51.247 48.05 51.2555 48.05 51.264 48.05C51.2725 48.05 51.281 48.05 51.2895 48.05C51.2979 48.05 51.3064 48.05 51.3149 48.05C51.3233 48.05 51.3318 48.05 51.3402 48.05C51.3486 48.05 51.3571 48.05 51.3655 48.05C51.3739 48.05 51.3823 48.05 51.3907 48.05C51.3991 48.05 51.4074 48.05 51.4158 48.05C51.4242 48.05 51.4325 48.05 51.4409 48.05C51.4492 48.05 51.4575 48.05 51.4659 48.05C51.4742 48.05 51.4825 48.05 51.4908 48.05C51.4991 48.05 51.5073 48.05 51.5156 48.05C51.5239 48.05 51.5321 48.05 51.5404 48.05C51.5486 48.05 51.5568 48.05 51.5651 48.05C51.5733 48.05 51.5815 48.05 51.5897 48.05C51.5979 48.05 51.606 48.05 51.6142 48.05C51.6224 48.05 51.6305 48.05 51.6387 48.05C51.6468 48.05 51.6549 48.05 51.663 48.05C51.6712 48.05 51.6793 48.05 51.6874 48.05C51.6954 48.05 51.7035 48.05 51.7116 48.05C51.7196 48.05 51.7277 48.05 51.7357 48.05C51.7438 48.05 51.7518 48.05 51.7598 48.05C51.7678 48.05 51.7758 48.05 51.7838 48.05C51.7918 48.05 51.7997 48.05 51.8077 48.05C51.8156 48.05 51.8236 48.05 51.8315 48.05C51.8394 48.05 51.8473 48.05 51.8552 48.05C51.8631 48.05 51.871 48.05 51.8789 48.05C51.8868 48.05 51.8946 48.05 51.9025 48.05C51.9103 48.05 51.9181 48.05 51.926 48.05C51.9338 48.05 51.9416 48.05 51.9494 48.05C51.9571 48.05 51.9649 48.05 51.9727 48.05C51.9804 48.05 51.9882 48.05 51.9959 48.05C52.0036 48.05 52.0113 48.05 52.019 48.05C52.0267 48.05 52.0344 48.05 52.0421 48.05C52.0498 48.05 52.0574 48.05 52.0651 48.05C52.0727 48.05 52.0803 48.05 52.0879 48.05C52.0956 48.05 52.1031 48.05 52.1107 48.05C52.1183 48.05 52.1259 48.05 52.1334 48.05C52.141 48.05 52.1485 48.05 52.156 48.05C52.1635 48.05 52.1711 48.05 52.1785 48.05C52.186 48.05 52.1935 48.05 52.201 48.05C52.2084 48.05 52.2159 48.05 52.2233 48.05C52.2307 48.05 52.2381 48.05 52.2455 48.05C52.2529 48.05 52.2603 48.05 52.2677 48.05C52.275 48.05 52.2824 48.05 52.2897 48.05C52.297 48.05 52.3044 48.05 52.3117 48.05C52.319 48.05 52.3263 48.05 52.3335 48.05C52.3408 48.05 52.348 48.05 52.3553 48.05C52.3625 48.05 52.3697 48.05 52.3769 48.05C52.3841 48.05 52.3913 48.05 52.3985 48.05C52.4057 48.05 52.4128 48.05 52.42 48.05C52.4271 48.05 52.4342 48.05 52.4413 48.05C52.4484 48.05 52.4555 48.05 52.4626 48.05C52.4697 48.05 52.4767 48.05 52.4838 48.05C52.4908 48.05 52.4978 48.05 52.5048 48.05C52.5118 48.05 52.5188 48.05 52.5258 48.05C52.5328 48.05 52.5397 48.05 52.5466 48.05C52.5536 48.05 52.5605 48.05 52.5674 48.05C52.5743 48.05 52.5812 48.05 52.588 48.05C52.5949 48.05 52.6018 48.05 52.6086 48.05C52.6154 48.05 52.6222 48.05 52.629 48.05C52.6358 48.05 52.6426 48.05 52.6494 48.05C52.6561 48.05 52.6629 48.05 52.6696 48.05C52.6763 48.05 52.683 48.05 52.6897 48.05C52.6964 48.05 52.7031 48.05 52.7097 48.05C52.7164 48.05 52.723 48.05 52.7296 48.05C52.7363 48.05 52.7429 48.05 52.7494 48.05C52.756 48.05 52.7626 48.05 52.7691 48.05C52.7757 48.05 52.7822 48.05 52.7887 48.05C52.7952 48.05 52.8017 48.05 52.8082 48.05C52.8146 48.05 52.8211 48.05 52.8275 48.05C52.834 48.05 52.8404 48.05 52.8468 48.05C52.8532 48.05 52.8595 48.05 52.8659 48.05C52.8722 48.05 52.8786 48.05 52.8849 48.05C52.8912 48.05 52.8975 48.05 52.9038 48.05C52.9101 48.05 52.9164 48.05 52.9226 48.05C52.9288 48.05 52.9351 48.05 52.9413 48.05C52.9475 48.05 52.9537 48.05 52.9598 48.05C52.966 48.05 52.9721 48.05 52.9783 48.05C52.9844 48.05 52.9905 48.05 52.9966 48.05C53.0027 48.05 53.0087 48.05 53.0148 48.05C53.0208 48.05 53.0269 48.05 53.0329 48.05C53.0389 48.05 53.0449 48.05 53.0508 48.05C53.0568 48.05 53.0628 48.05 53.0687 48.05C53.0746 48.05 53.0805 48.05 53.0864 48.05C53.0923 48.05 53.0982 48.05 53.104 48.05C53.1099 48.05 53.1157 48.05 53.1215 48.05C53.1273 48.05 53.1331 48.05 53.1389 48.05C53.1446 48.05 53.1504 48.05 53.1561 48.05C53.1618 48.05 53.1675 48.05 53.1732 48.05C53.1789 48.05 53.1846 48.05 53.1902 48.05C53.1958 48.05 53.2015 48.05 53.2071 48.05C53.2127 48.05 53.2182 48.05 53.2238 48.05C53.2294 48.05 53.2349 48.05 53.2404 48.05C53.2459 48.05 53.2514 48.05 53.2569 48.05C53.2624 48.05 53.2678 48.05 53.2733 48.05C53.2787 48.05 53.2841 48.05 53.2895 48.05C53.2949 48.05 53.3002 48.05 53.3056 48.05C53.3109 48.05 53.3162 48.05 53.3216 48.05C53.3269 48.05 53.3321 48.05 53.3374 48.05C53.3426 48.05 53.3479 48.05 53.3531 48.05C53.3583 48.05 53.3635 48.05 53.3687 48.05C53.3738 48.05 53.379 48.05 53.3841 48.05C53.3893 48.05 53.3944 48.05 53.3994 48.05C53.4045 48.05 53.4096 48.05 53.4146 48.05C53.4197 48.05 53.4247 48.05 53.4297 48.05C53.4347 48.05 53.4396 48.05 53.4446 48.05V49.55C53.4396 49.55 53.4347 49.55 53.4297 49.55C53.4247 49.55 53.4197 49.55 53.4146 49.55C53.4096 49.55 53.4045 49.55 53.3994 49.55C53.3944 49.55 53.3893 49.55 53.3841 49.55C53.379 49.55 53.3738 49.55 53.3687 49.55C53.3635 49.55 53.3583 49.55 53.3531 49.55C53.3479 49.55 53.3426 49.55 53.3374 49.55C53.3321 49.55 53.3269 49.55 53.3216 49.55C53.3162 49.55 53.3109 49.55 53.3056 49.55C53.3002 49.55 53.2949 49.55 53.2895 49.55C53.2841 49.55 53.2787 49.55 53.2733 49.55C53.2678 49.55 53.2624 49.55 53.2569 49.55C53.2514 49.55 53.2459 49.55 53.2404 49.55C53.2349 49.55 53.2294 49.55 53.2238 49.55C53.2182 49.55 53.2127 49.55 53.2071 49.55C53.2015 49.55 53.1958 49.55 53.1902 49.55C53.1846 49.55 53.1789 49.55 53.1732 49.55C53.1675 49.55 53.1618 49.55 53.1561 49.55C53.1504 49.55 53.1446 49.55 53.1389 49.55C53.1331 49.55 53.1273 49.55 53.1215 49.55C53.1157 49.55 53.1099 49.55 53.104 49.55C53.0982 49.55 53.0923 49.55 53.0864 49.55C53.0805 49.55 53.0746 49.55 53.0687 49.55C53.0628 49.55 53.0568 49.55 53.0508 49.55C53.0449 49.55 53.0389 49.55 53.0329 49.55C53.0269 49.55 53.0208 49.55 53.0148 49.55C53.0087 49.55 53.0027 49.55 52.9966 49.55C52.9905 49.55 52.9844 49.55 52.9783 49.55C52.9721 49.55 52.966 49.55 52.9598 49.55C52.9537 49.55 52.9475 49.55 52.9413 49.55C52.9351 49.55 52.9288 49.55 52.9226 49.55C52.9164 49.55 52.9101 49.55 52.9038 49.55C52.8975 49.55 52.8912 49.55 52.8849 49.55C52.8786 49.55 52.8722 49.55 52.8659 49.55C52.8595 49.55 52.8532 49.55 52.8468 49.55C52.8404 49.55 52.834 49.55 52.8275 49.55C52.8211 49.55 52.8146 49.55 52.8082 49.55C52.8017 49.55 52.7952 49.55 52.7887 49.55C52.7822 49.55 52.7757 49.55 52.7691 49.55C52.7626 49.55 52.756 49.55 52.7494 49.55C52.7429 49.55 52.7363 49.55 52.7296 49.55C52.723 49.55 52.7164 49.55 52.7097 49.55C52.7031 49.55 52.6964 49.55 52.6897 49.55C52.683 49.55 52.6763 49.55 52.6696 49.55C52.6629 49.55 52.6561 49.55 52.6494 49.55C52.6426 49.55 52.6358 49.55 52.629 49.55C52.6222 49.55 52.6154 49.55 52.6086 49.55C52.6018 49.55 52.5949 49.55 52.588 49.55C52.5812 49.55 52.5743 49.55 52.5674 49.55C52.5605 49.55 52.5536 49.55 52.5466 49.55C52.5397 49.55 52.5328 49.55 52.5258 49.55C52.5188 49.55 52.5118 49.55 52.5048 49.55C52.4978 49.55 52.4908 49.55 52.4838 49.55C52.4767 49.55 52.4697 49.55 52.4626 49.55C52.4555 49.55 52.4484 49.55 52.4413 49.55C52.4342 49.55 52.4271 49.55 52.42 49.55C52.4128 49.55 52.4057 49.55 52.3985 49.55C52.3913 49.55 52.3841 49.55 52.3769 49.55C52.3697 49.55 52.3625 49.55 52.3553 49.55C52.348 49.55 52.3408 49.55 52.3335 49.55C52.3263 49.55 52.319 49.55 52.3117 49.55C52.3044 49.55 52.297 49.55 52.2897 49.55C52.2824 49.55 52.275 49.55 52.2677 49.55C52.2603 49.55 52.2529 49.55 52.2455 49.55C52.2381 49.55 52.2307 49.55 52.2233 49.55C52.2159 49.55 52.2084 49.55 52.201 49.55C52.1935 49.55 52.186 49.55 52.1785 49.55C52.1711 49.55 52.1635 49.55 52.156 49.55C52.1485 49.55 52.141 49.55 52.1334 49.55C52.1259 49.55 52.1183 49.55 52.1107 49.55C52.1031 49.55 52.0956 49.55 52.0879 49.55C52.0803 49.55 52.0727 49.55 52.0651 49.55C52.0574 49.55 52.0498 49.55 52.0421 49.55C52.0344 49.55 52.0267 49.55 52.019 49.55C52.0113 49.55 52.0036 49.55 51.9959 49.55C51.9882 49.55 51.9804 49.55 51.9727 49.55C51.9649 49.55 51.9571 49.55 51.9494 49.55C51.9416 49.55 51.9338 49.55 51.926 49.55C51.9181 49.55 51.9103 49.55 51.9025 49.55C51.8946 49.55 51.8868 49.55 51.8789 49.55C51.871 49.55 51.8631 49.55 51.8552 49.55C51.8473 49.55 51.8394 49.55 51.8315 49.55C51.8236 49.55 51.8156 49.55 51.8077 49.55C51.7997 49.55 51.7918 49.55 51.7838 49.55C51.7758 49.55 51.7678 49.55 51.7598 49.55C51.7518 49.55 51.7438 49.55 51.7357 49.55C51.7277 49.55 51.7196 49.55 51.7116 49.55C51.7035 49.55 51.6954 49.55 51.6874 49.55C51.6793 49.55 51.6712 49.55 51.663 49.55C51.6549 49.55 51.6468 49.55 51.6387 49.55C51.6305 49.55 51.6224 49.55 51.6142 49.55C51.606 49.55 51.5979 49.55 51.5897 49.55C51.5815 49.55 51.5733 49.55 51.5651 49.55C51.5568 49.55 51.5486 49.55 51.5404 49.55C51.5321 49.55 51.5239 49.55 51.5156 49.55C51.5073 49.55 51.4991 49.55 51.4908 49.55C51.4825 49.55 51.4742 49.55 51.4659 49.55C51.4575 49.55 51.4492 49.55 51.4409 49.55C51.4325 49.55 51.4242 49.55 51.4158 49.55C51.4074 49.55 51.3991 49.55 51.3907 49.55C51.3823 49.55 51.3739 49.55 51.3655 49.55C51.3571 49.55 51.3486 49.55 51.3402 49.55C51.3318 49.55 51.3233 49.55 51.3149 49.55C51.3064 49.55 51.2979 49.55 51.2895 49.55C51.281 49.55 51.2725 49.55 51.264 49.55C51.2555 49.55 51.247 49.55 51.2384 49.55C51.2299 49.55 51.2214 49.55 51.2128 49.55C51.2043 49.55 51.1957 49.55 51.1871 49.55C51.1786 49.55 51.17 49.55 51.1614 49.55C51.1528 49.55 51.1442 49.55 51.1356 49.55C51.127 49.55 51.1184 49.55 51.1097 49.55C51.1011 49.55 51.0924 49.55 51.0838 49.55C51.0751 49.55 51.0664 49.55 51.0578 49.55C51.0491 49.55 51.0404 49.55 51.0317 49.55C51.023 49.55 51.0143 49.55 51.0056 49.55C50.9969 49.55 50.9881 49.55 50.9794 49.55C50.9706 49.55 50.9619 49.55 50.9531 49.55C50.9444 49.55 50.9356 49.55 50.9268 49.55C50.918 49.55 50.9093 49.55 50.9005 49.55C50.8917 49.55 50.8828 49.55 50.874 49.55C50.8652 49.55 50.8564 49.55 50.8475 49.55C50.8387 49.55 50.8299 49.55 50.821 49.55C50.8121 49.55 50.8033 49.55 50.7944 49.55C50.7855 49.55 50.7766 49.55 50.7677 49.55C50.7588 49.55 50.7499 49.55 50.741 49.55C50.7321 49.55 50.7232 49.55 50.7142 49.55C50.7053 49.55 50.6964 49.55 50.6874 49.55C50.6785 49.55 50.6695 49.55 50.6605 49.55C50.6516 49.55 50.6426 49.55 50.6336 49.55C50.6246 49.55 50.6156 49.55 50.6066 49.55C50.5976 49.55 50.5886 49.55 50.5796 49.55C50.5706 49.55 50.5615 49.55 50.5525 49.55C50.5435 49.55 50.5344 49.55 50.5254 49.55C50.5163 49.55 50.5073 49.55 50.4982 49.55C50.4891 49.55 50.48 49.55 50.471 49.55C50.4619 49.55 50.4528 49.55 50.4437 49.55C50.4346 49.55 50.4255 49.55 50.4163 49.55C50.4072 49.55 50.3981 49.55 50.389 49.55C50.3798 49.55 50.3707 49.55 50.3615 49.55C50.3524 49.55 50.3432 49.55 50.3341 49.55C50.3249 49.55 50.3157 49.55 50.3065 49.55C50.2974 49.55 50.2882 49.55 50.279 49.55C50.2698 49.55 50.2606 49.55 50.2514 49.55C50.2422 49.55 50.2329 49.55 50.2237 49.55C50.2145 49.55 50.2053 49.55 50.196 49.55C50.1868 49.55 50.1775 49.55 50.1683 49.55C50.159 49.55 50.1498 49.55 50.1405 49.55C50.1312 49.55 50.122 49.55 50.1127 49.55C50.1034 49.55 50.0941 49.55 50.0848 49.55C50.0755 49.55 50.0662 49.55 50.0569 49.55C50.0476 49.55 50.0383 49.55 50.029 49.55C50.0197 49.55 50.0103 49.55 50.001 49.55C49.9917 49.55 49.9823 49.55 49.973 49.55C49.9637 49.55 49.9543 49.55 49.945 49.55C49.9356 49.55 49.9262 49.55 49.9169 49.55C49.9075 49.55 49.8981 49.55 49.8887 49.55C49.8794 49.55 49.87 49.55 49.8606 49.55C49.8512 49.55 49.8418 49.55 49.8324 49.55C49.823 49.55 49.8136 49.55 49.8042 49.55C49.7947 49.55 49.7853 49.55 49.7759 49.55C49.7665 49.55 49.757 49.55 49.7476 49.55C49.7382 49.55 49.7287 49.55 49.7193 49.55C49.7098 49.55 49.7004 49.55 49.6909 49.55C49.6815 49.55 49.672 49.55 49.6625 49.55C49.6531 49.55 49.6436 49.55 49.6341 49.55C49.6246 49.55 49.6152 49.55 49.6057 49.55C49.5962 49.55 49.5867 49.55 49.5772 49.55C49.5677 49.55 49.5582 49.55 49.5487 49.55C49.5392 49.55 49.5297 49.55 49.5202 49.55C49.5107 49.55 49.5011 49.55 49.4916 49.55C49.4821 49.55 49.4726 49.55 49.463 49.55C49.4535 49.55 49.444 49.55 49.4344 49.55C49.4249 49.55 49.4153 49.55 49.4058 49.55C49.3962 49.55 49.3867 49.55 49.3771 49.55C49.3676 49.55 49.358 49.55 49.3484 49.55C49.3389 49.55 49.3293 49.55 49.3197 49.55C49.3102 49.55 49.3006 49.55 49.291 49.55C49.2814 49.55 49.2718 49.55 49.2623 49.55C49.2527 49.55 49.2431 49.55 49.2335 49.55C49.2239 49.55 49.2143 49.55 49.2047 49.55C49.1951 49.55 49.1855 49.55 49.1759 49.55C49.1663 49.55 49.1567 49.55 49.1471 49.55C49.1374 49.55 49.1278 49.55 49.1182 49.55C49.1086 49.55 49.099 49.55 49.0893 49.55C49.0797 49.55 49.0701 49.55 49.0605 49.55C49.0508 49.55 49.0412 49.55 49.0316 49.55C49.0219 49.55 49.0123 49.55 49.0027 49.55C48.993 49.55 48.9834 49.55 48.9737 49.55C48.9641 49.55 48.9544 49.55 48.9448 49.55C48.9351 49.55 48.9255 49.55 48.9158 49.55C48.9062 49.55 48.8965 49.55 48.8868 49.55C48.8772 49.55 48.8675 49.55 48.8579 49.55C48.8482 49.55 48.8385 49.55 48.8289 49.55C48.8192 49.55 48.8095 49.55 48.7998 49.55C48.7902 49.55 48.7805 49.55 48.7708 49.55C48.7612 49.55 48.7515 49.55 48.7418 49.55C48.7321 49.55 48.7224 49.55 48.7128 49.55C48.7031 49.55 48.6934 49.55 48.6837 49.55C48.674 49.55 48.6643 49.55 48.6547 49.55C48.645 49.55 48.6353 49.55 48.6256 49.55C48.6159 49.55 48.6062 49.55 48.5965 49.55C48.5868 49.55 48.5771 49.55 48.5674 49.55C48.5577 49.55 48.5481 49.55 48.5384 49.55C48.5287 49.55 48.519 49.55 48.5093 49.55C48.4996 49.55 48.4899 49.55 48.4802 49.55C48.4705 49.55 48.4608 49.55 48.4511 49.55C48.4414 49.55 48.4317 49.55 48.422 49.55C48.4123 49.55 48.4026 49.55 48.3929 49.55C48.3832 49.55 48.3735 49.55 48.3638 49.55C48.3541 49.55 48.3444 49.55 48.3347 49.55C48.325 49.55 48.3153 49.55 48.3056 49.55C48.2959 49.55 48.2862 49.55 48.2765 49.55C48.2668 49.55 48.2571 49.55 48.2474 49.55C48.2377 49.55 48.228 49.55 48.2183 49.55C48.2086 49.55 48.1989 49.55 48.1892 49.55C48.1795 49.55 48.1698 49.55 48.1601 49.55C48.1504 49.55 48.1407 49.55 48.131 49.55C48.1213 49.55 48.1116 49.55 48.1019 49.55C48.0922 49.55 48.0825 49.55 48.0728 49.55C48.0631 49.55 48.0534 49.55 48.0437 49.55C48.034 49.55 48.0243 49.55 48.0146 49.55C48.0049 49.55 47.9952 49.55 47.9856 49.55C47.9759 49.55 47.9662 49.55 47.9565 49.55C47.9468 49.55 47.9371 49.55 47.9274 49.55C47.9178 49.55 47.9081 49.55 47.8984 49.55C47.8887 49.55 47.879 49.55 47.8694 49.55C47.8597 49.55 47.85 49.55 47.8403 49.55C47.8307 49.55 47.821 49.55 47.8113 49.55C47.8016 49.55 47.792 49.55 47.7823 49.55C47.7726 49.55 47.763 49.55 47.7533 49.55C47.7437 49.55 47.734 49.55 47.7243 49.55C47.7147 49.55 47.705 49.55 47.6954 49.55C47.6857 49.55 47.6761 49.55 47.6664 49.55C47.6568 49.55 47.6471 49.55 47.6375 49.55C47.6278 49.55 47.6182 49.55 47.6085 49.55C47.5989 49.55 47.5893 49.55 47.5796 49.55C47.57 49.55 47.5604 49.55 47.5507 49.55C47.5411 49.55 47.5315 49.55 47.5219 49.55C47.5122 49.55 47.5026 49.55 47.493 49.55C47.4834 49.55 47.4738 49.55 47.4642 49.55C47.4546 49.55 47.4449 49.55 47.4353 49.55C47.4257 49.55 47.4161 49.55 47.4065 49.55C47.3969 49.55 47.3873 49.55 47.3778 49.55C47.3682 49.55 47.3586 49.55 47.349 49.55C47.3394 49.55 47.3298 49.55 47.3203 49.55C47.3107 49.55 47.3011 49.55 47.2915 49.55C47.282 49.55 47.2724 49.55 47.2628 49.55C47.2533 49.55 47.2437 49.55 47.2342 49.55C47.2246 49.55 47.2151 49.55 47.2055 49.55C47.196 49.55 47.1864 49.55 47.1769 49.55C47.1673 49.55 47.1578 49.55 47.1483 49.55C47.1388 49.55 47.1292 49.55 47.1197 49.55C47.1102 49.55 47.1007 49.55 47.0912 49.55C47.0817 49.55 47.0721 49.55 47.0626 49.55C47.0531 49.55 47.0436 49.55 47.0342 49.55C47.0247 49.55 47.0152 49.55 47.0057 49.55C46.9962 49.55 46.9867 49.55 46.9773 49.55C46.9678 49.55 46.9583 49.55 46.9488 49.55C46.9394 49.55 46.9299 49.55 46.9205 49.55C46.911 49.55 46.9016 49.55 46.8921 49.55C46.8827 49.55 46.8732 49.55 46.8638 49.55C46.8544 49.55 46.8449 49.55 46.8355 49.55C46.8261 49.55 46.8167 49.55 46.8073 49.55C46.7979 49.55 46.7885 49.55 46.7791 49.55C46.7697 49.55 46.7603 49.55 46.7509 49.55C46.7415 49.55 46.7321 49.55 46.7227 49.55C46.7134 49.55 46.704 49.55 46.6946 49.55C46.6853 49.55 46.6759 49.55 46.6666 49.55C46.6572 49.55 46.6479 49.55 46.6385 49.55C46.6292 49.55 46.6198 49.55 46.6105 49.55C46.6012 49.55 46.5919 49.55 46.5826 49.55C46.5732 49.55 46.5639 49.55 46.5546 49.55C46.5453 49.55 46.536 49.55 46.5267 49.55C46.5175 49.55 46.5082 49.55 46.4989 49.55C46.4896 49.55 46.4804 49.55 46.4711 49.55C46.4618 49.55 46.4526 49.55 46.4433 49.55C46.4341 49.55 46.4248 49.55 46.4156 49.55C46.4064 49.55 46.3971 49.55 46.3879 49.55C46.3787 49.55 46.3695 49.55 46.3603 49.55C46.3511 49.55 46.3419 49.55 46.3327 49.55C46.3235 49.55 46.3143 49.55 46.3052 49.55C46.296 49.55 46.2868 49.55 46.2777 49.55C46.2685 49.55 46.2593 49.55 46.2502 49.55C46.241 49.55 46.2319 49.55 46.2228 49.55C46.2137 49.55 46.2045 49.55 46.1954 49.55C46.1863 49.55 46.1772 49.55 46.1681 49.55C46.159 49.55 46.1499 49.55 46.1408 49.55C46.1318 49.55 46.1227 49.55 46.1136 49.55C46.1046 49.55 46.0955 49.55 46.0864 49.55C46.0774 49.55 46.0684 49.55 46.0593 49.55C46.0503 49.55 46.0413 49.55 46.0323 49.55C46.0232 49.55 46.0142 49.55 46.0052 49.55C45.9962 49.55 45.9873 49.55 45.9783 49.55C45.9693 49.55 45.9603 49.55 45.9514 49.55C45.9424 49.55 45.9335 49.55 45.9245 49.55C45.9156 49.55 45.9066 49.55 45.8977 49.55C45.8888 49.55 45.8799 49.55 45.871 49.55C45.862 49.55 45.8531 49.55 45.8443 49.55C45.8354 49.55 45.8265 49.55 45.8176 49.55C45.8087 49.55 45.7999 49.55 45.791 49.55C45.7822 49.55 45.7733 49.55 45.7645 49.55C45.7557 49.55 45.7469 49.55 45.738 49.55C45.7292 49.55 45.7204 49.55 45.7116 49.55C45.7028 49.55 45.6941 49.55 45.6853 49.55C45.6765 49.55 45.6678 49.55 45.659 49.55C45.6502 49.55 45.6415 49.55 45.6328 49.55C45.624 49.55 45.6153 49.55 45.6066 49.55C45.5979 49.55 45.5892 49.55 45.5805 49.55C45.5718 49.55 45.5631 49.55 45.5545 49.55C45.5458 49.55 45.5371 49.55 45.5285 49.55C45.5198 49.55 45.5112 49.55 45.5026 49.55C45.4939 49.55 45.4853 49.55 45.4767 49.55C45.4681 49.55 45.4595 49.55 45.4509 49.55C45.4423 49.55 45.4338 49.55 45.4252 49.55C45.4166 49.55 45.4081 49.55 45.3995 49.55C45.391 49.55 45.3825 49.55 45.3739 49.55C45.3654 49.55 45.3569 49.55 45.3484 49.55C45.3399 49.55 45.3314 49.55 45.323 49.55C45.3145 49.55 45.306 49.55 45.2976 49.55C45.2891 49.55 45.2807 49.55 45.2723 49.55C45.2638 49.55 45.2554 49.55 45.247 49.55C45.2386 49.55 45.2302 49.55 45.2218 49.55C45.2135 49.55 45.2051 49.55 45.1967 49.55C45.1884 49.55 45.18 49.55 45.1717 49.55C45.1634 49.55 45.1551 49.55 45.1468 49.55C45.1384 49.55 45.1301 49.55 45.1219 49.55C45.1136 49.55 45.1053 49.55 45.0971 49.55C45.0888 49.55 45.0805 49.55 45.0723 49.55C45.0641 49.55 45.0559 49.55 45.0477 49.55C45.0394 49.55 45.0313 49.55 45.0231 49.55C45.0149 49.55 45.0067 49.55 44.9986 49.55C44.9904 49.55 44.9823 49.55 44.9741 49.55C44.966 49.55 44.9579 49.55 44.9498 49.55C44.9417 49.55 44.9336 49.55 44.9255 49.55C44.9174 49.55 44.9093 49.55 44.9013 49.55C44.8932 49.55 44.8852 49.55 44.8772 49.55C44.8692 49.55 44.8611 49.55 44.8531 49.55C44.8451 49.55 44.8372 49.55 44.8292 49.55C44.8212 49.55 44.8133 49.55 44.8053 49.55C44.7974 49.55 44.7894 49.55 44.7815 49.55C44.7736 49.55 44.7657 49.55 44.7578 49.55C44.7499 49.55 44.742 49.55 44.7342 49.55C44.7263 49.55 44.7185 49.55 44.7106 49.55C44.7028 49.55 44.695 49.55 44.6872 49.55C44.6794 49.55 44.6716 49.55 44.6638 49.55C44.656 49.55 44.6483 49.55 44.6405 49.55C44.6328 49.55 44.625 49.55 44.6173 49.55C44.6096 49.55 44.6019 49.55 44.5942 49.55C44.5865 49.55 44.5789 49.55 44.5712 49.55C44.5635 49.55 44.5559 49.55 44.5483 49.55C44.5406 49.55 44.533 49.55 44.5254 49.55C44.5178 49.55 44.5102 49.55 44.5027 49.55C44.4951 49.55 44.4875 49.55 44.48 49.55C44.4725 49.55 44.4649 49.55 44.4574 49.55C44.4499 49.55 44.4424 49.55 44.4349 49.55C44.4275 49.55 44.42 49.55 44.4125 49.55C44.4051 49.55 44.3977 49.55 44.3903 49.55C44.3828 49.55 44.3754 49.55 44.3681 49.55C44.3607 49.55 44.3533 49.55 44.3459 49.55C44.3386 49.55 44.3313 49.55 44.3239 49.55C44.3166 49.55 44.3093 49.55 44.302 49.55C44.2947 49.55 44.2875 49.55 44.2802 49.55C44.2729 49.55 44.2657 49.55 44.2585 49.55C44.2512 49.55 44.244 49.55 44.2368 49.55C44.2297 49.55 44.2225 49.55 44.2153 49.55C44.2082 49.55 44.201 49.55 44.1939 49.55C44.1868 49.55 44.1797 49.55 44.1726 49.55C44.1655 49.55 44.1584 49.55 44.1513 49.55C44.1443 49.55 44.1372 49.55 44.1302 49.55C44.1232 49.55 44.1162 49.55 44.1092 49.55C44.1022 49.55 44.0952 49.55 44.0883 49.55C44.0813 49.55 44.0744 49.55 44.0674 49.55C44.0605 49.55 44.0536 49.55 44.0467 49.55C44.0398 49.55 44.033 49.55 44.0261 49.55C44.0192 49.55 44.0124 49.55 44.0056 49.55C43.9988 49.55 43.992 49.55 43.9852 49.55C43.9784 49.55 43.9716 49.55 43.9649 49.55C43.9581 49.55 43.9514 49.55 43.9447 49.55C43.938 49.55 43.9313 49.55 43.9246 49.55C43.9179 49.55 43.9113 49.55 43.9046 49.55C43.898 49.55 43.8914 49.55 43.8848 49.55C43.8782 49.55 43.8716 49.55 43.865 49.55C43.8584 49.55 43.8519 49.55 43.8454 49.55C43.8388 49.55 43.8323 49.55 43.8258 49.55C43.8193 49.55 43.8129 49.55 43.8064 49.55C43.7999 49.55 43.7935 49.55 43.7871 49.55C43.7807 49.55 43.7743 49.55 43.7679 49.55C43.7615 49.55 43.7551 49.55 43.7488 49.55C43.7424 49.55 43.7361 49.55 43.7298 49.55C43.7235 49.55 43.7172 49.55 43.711 49.55C43.7047 49.55 43.6984 49.55 43.6922 49.55C43.686 49.55 43.6798 49.55 43.6736 49.55C43.6674 49.55 43.6612 49.55 43.6551 49.55C43.6489 49.55 43.6428 49.55 43.6367 49.55C43.6306 49.55 43.6245 49.55 43.6184 49.55C43.6123 49.55 43.6063 49.55 43.6002 49.55C43.5942 49.55 43.5882 49.55 43.5822 49.55C43.5762 49.55 43.5702 49.55 43.5643 49.55C43.5583 49.55 43.5524 49.55 43.5465 49.55C43.5405 49.55 43.5346 49.55 43.5288 49.55C43.5229 49.55 43.517 49.55 43.5112 49.55C43.5054 49.55 43.4996 49.55 43.4938 49.55C43.488 49.55 43.4822 49.55 43.4765 49.55C43.4707 49.55 43.465 49.55 43.4593 49.55C43.4535 49.55 43.4479 49.55 43.4422 49.55C43.4365 49.55 43.4309 49.55 43.4252 49.55C43.4196 49.55 43.414 49.55 43.4084 49.55C43.4028 49.55 43.3973 49.55 43.3917 49.55C43.3862 49.55 43.3807 49.55 43.3752 49.55C43.3697 49.55 43.3642 49.55 43.3587 49.55C43.3533 49.55 43.3478 49.55 43.3424 49.55C43.337 49.55 43.3316 49.55 43.3262 49.55C43.3209 49.55 43.3155 49.55 43.3102 49.55C43.3048 49.55 43.2995 49.55 43.2943 49.55C43.289 49.55 43.2837 49.55 43.2785 49.55C43.2732 49.55 43.268 49.55 43.2628 49.55C43.2576 49.55 43.2524 49.55 43.2473 49.55C43.2421 49.55 43.237 49.55 43.2319 49.55C43.2268 49.55 43.2217 49.55 43.2166 49.55C43.2115 49.55 43.2065 49.55 43.2015 49.55C43.1964 49.55 43.1914 49.55 43.1865 49.55C43.1815 49.55 43.1765 49.55 43.1716 49.55C43.1667 49.55 43.1618 49.55 43.1569 49.55C43.152 49.55 43.1471 49.55 43.1423 49.55C43.1374 49.55 43.1326 49.55 43.1278 49.55C43.123 49.55 43.1183 49.55 43.1135 49.55C43.1088 49.55 43.104 49.55 43.0993 49.55C43.0946 49.55 43.0899 49.55 43.0853 49.55C43.0806 49.55 43.076 49.55 43.0714 49.55C43.0668 49.55 43.0622 49.55 43.0576 49.55C43.0531 49.55 43.0485 49.55 43.044 49.55C43.0395 49.55 43.035 49.55 43.0305 49.55C43.0261 49.55 43.0216 49.55 43.0172 49.55C43.0128 49.55 43.0084 49.55 43.004 49.55C42.9996 49.55 42.9953 49.55 42.9909 49.55C42.9866 49.55 42.9823 49.55 42.978 49.55C42.9738 49.55 42.9695 49.55 42.9653 49.55C42.961 49.55 42.9568 49.55 42.9527 49.55C42.9485 49.55 42.9443 49.55 42.9402 49.55C42.936 49.55 42.9319 49.55 42.9279 49.55C42.9238 49.55 42.9197 49.55 42.9157 49.55C42.9116 49.55 42.9076 49.55 42.9036 49.55C42.8997 49.55 42.8957 49.55 42.8918 49.55C42.8878 49.55 42.8839 49.55 42.88 49.55C42.8761 49.55 42.8723 49.55 42.8684 49.55C42.8646 49.55 42.8608 49.55 42.857 49.55C42.8532 49.55 42.8495 49.55 42.8457 49.55C42.842 49.55 42.8383 49.55 42.8346 49.55C42.8309 49.55 42.8272 49.55 42.8236 49.55C42.82 49.55 42.8164 49.55 42.8128 49.55C42.8092 49.55 42.8056 49.55 42.8021 49.55C42.7986 49.55 42.7951 49.55 42.7916 49.55C42.7881 49.55 42.7847 49.55 42.7812 49.55C42.7778 49.55 42.7744 49.55 42.771 49.55C42.7676 49.55 42.7643 49.55 42.761 49.55C42.7576 49.55 42.7543 49.55 42.7511 49.55C42.7478 49.55 42.7446 49.55 42.7413 49.55C42.7381 49.55 42.7349 49.55 42.7318 49.55C42.7286 49.55 42.7254 49.55 42.7223 49.55C42.7192 49.55 42.7161 49.55 42.7131 49.55C42.71 49.55 42.707 49.55 42.704 49.55C42.701 49.55 42.698 49.55 42.695 49.55C42.6921 49.55 42.6891 49.55 42.6862 49.55C42.6833 49.55 42.6805 49.55 42.6776 49.55C42.6748 49.55 42.672 49.55 42.6692 49.55C42.6664 49.55 42.6636 49.55 42.6609 49.55C42.6581 49.55 42.6554 49.55 42.6527 49.55C42.6501 49.55 42.6474 49.55 42.6448 49.55C42.6422 49.55 42.6396 49.55 42.637 49.55C42.6344 49.55 42.6319 49.55 42.6293 49.55C42.6268 49.55 42.6243 49.55 42.6219 49.55C42.6194 49.55 42.617 49.55 42.6146 49.55C42.6122 49.55 42.6098 49.55 42.6074 49.55C42.6051 49.55 42.6028 49.55 42.6005 49.55C42.5982 49.55 42.5959 49.55 42.5937 49.55C42.5914 49.55 42.5892 49.55 42.5871 49.55C42.5849 49.55 42.5827 49.55 42.5806 49.55C42.5785 49.55 42.5764 49.55 42.5743 49.55C42.5722 49.55 42.5702 49.55 42.5682 49.55C42.5662 49.55 42.5642 49.55 42.5623 49.55C42.5603 49.55 42.5584 49.55 42.5565 49.55C42.5546 49.55 42.5527 49.55 42.5509 49.55C42.549 49.55 42.5472 49.55 42.5455 49.55C42.5437 49.55 42.5419 49.55 42.5402 49.55C42.5385 49.55 42.5368 49.55 42.5351 49.55C42.5335 49.55 42.5318 49.55 42.5302 49.55C42.5286 49.55 42.5271 49.55 42.5255 49.55C42.524 49.55 42.5225 49.55 42.521 49.55C42.5195 49.55 42.518 49.55 42.5166 49.55C42.5152 49.55 42.5138 49.55 42.5124 49.55C42.5111 49.55 42.5097 49.55 42.5084 49.55C42.5071 49.55 42.5058 49.55 42.5046 49.55C42.5034 49.55 42.5021 49.55 42.5009 49.55C42.4998 49.55 42.4986 49.55 42.4975 49.55C42.4964 49.55 42.4953 49.55 42.4942 49.55C42.4931 49.55 42.4921 49.55 42.4911 49.55C42.4901 49.55 42.4891 49.55 42.4882 49.55C42.4872 49.55 42.4863 49.55 42.4854 49.55C42.4846 49.55 42.4837 49.55 42.4829 49.55C42.4821 49.55 42.4813 49.55 42.4805 49.55C42.4798 49.55 42.479 49.55 42.4783 49.55C42.4777 49.55 42.477 49.55 42.4764 49.55C42.4757 49.55 42.4751 49.55 42.4745 49.55C42.474 49.55 42.4734 49.55 42.4729 49.55C42.4724 49.55 42.4719 49.55 42.4715 49.55C42.471 49.55 42.4706 49.55 42.4703 49.55C42.4699 49.55 42.4695 49.55 42.4692 49.55C42.4689 49.55 42.4686 49.55 42.4683 49.55C42.4681 49.55 42.4679 49.55 42.4677 49.55C42.4675 49.55 42.4673 49.55 42.4672 49.55C42.4671 49.55 42.467 49.55 42.4669 49.55C42.4668 49.55 42.4668 49.55 42.4668 48.8ZM53.4446 48.05C53.7546 48.05 54.004 48.2092 54.1234 48.2915C54.2761 48.3967 54.4315 48.5335 54.5817 48.6795C54.8846 48.9741 55.2401 49.3786 55.621 49.8397C56.3855 50.7651 57.3141 51.994 58.2302 53.2025C59.1536 54.4205 60.0648 55.6184 60.8141 56.5118C61.1902 56.9603 61.5098 57.313 61.7592 57.5481C61.885 57.6667 61.975 57.7381 62.0316 57.7753C62.1155 57.8305 62.0495 57.7611 61.889 57.7611L61.889 59.2611C61.5875 59.2611 61.3402 59.1159 61.2077 59.0288C61.0478 58.9237 60.8862 58.7865 60.7303 58.6396C60.4164 58.3436 60.0522 57.9377 59.6647 57.4757C58.8869 56.5483 57.952 55.3184 57.0349 54.1086C56.1106 52.8894 55.2043 51.6905 54.4646 50.795C54.0934 50.3457 53.7794 49.9916 53.5361 49.755C53.4131 49.6355 53.3261 49.5637 53.2724 49.5266C53.1853 49.4667 53.2642 49.55 53.4446 49.55V48.05ZM61.889 57.7611C62.3112 57.7611 63.5779 57.7611 64.739 57.7611C65.3196 57.7611 65.8737 57.7611 66.2828 57.7611C66.4873 57.7611 66.6555 57.7611 66.7726 57.7611C66.8312 57.7611 66.8769 57.7611 66.9081 57.7611C66.9236 57.7611 66.9355 57.7611 66.9435 57.7611C66.9476 57.7611 66.9506 57.7611 66.9526 57.7611C66.9536 57.7611 66.9544 57.7611 66.9549 57.7611C66.9552 57.7611 66.9554 57.7611 66.9555 57.7611C66.9556 57.7611 66.9556 57.7611 66.9556 57.7611C66.9557 57.7611 66.9557 57.7611 66.9557 58.5111C66.9557 59.2611 66.9557 59.2611 66.9556 59.2611C66.9556 59.2611 66.9556 59.2611 66.9555 59.2611C66.9554 59.2611 66.9552 59.2611 66.9549 59.2611C66.9544 59.2611 66.9536 59.2611 66.9526 59.2611C66.9506 59.2611 66.9476 59.2611 66.9435 59.2611C66.9355 59.2611 66.9236 59.2611 66.9081 59.2611C66.8769 59.2611 66.8312 59.2611 66.7726 59.2611C66.6555 59.2611 66.4873 59.2611 66.2828 59.2611C65.8737 59.2611 65.3196 59.2611 64.739 59.2611C63.5779 59.2611 62.3112 59.2611 61.889 59.2611L61.889 57.7611Z" fill="#FAFAFA"/>
<path d="M42.4668 43.3111H66.9557" stroke="#FAFAFA" stroke-width="1.5" stroke-linecap="round"/>
<path d="M70.6526 47.0995C72.7136 47.0995 74.3843 45.4287 74.3843 43.3678C74.3843 41.3068 72.7136 39.636 70.6526 39.636C68.5916 39.636 66.9209 41.3068 66.9209 43.3678C66.9209 45.4287 68.5916 47.0995 70.6526 47.0995Z" stroke="#FAFAFA" stroke-width="1.5"/>
<path d="M70.6526 31.9195C72.7136 31.9195 74.3843 30.2487 74.3843 28.1878C74.3843 26.1268 72.7136 24.4561 70.6526 24.4561C68.5916 24.4561 66.9209 26.1268 66.9209 28.1878C66.9209 30.2487 68.5916 31.9195 70.6526 31.9195Z" stroke="#FAFAFA" stroke-width="1.5"/>
<path d="M70.6526 62.2795C72.7136 62.2795 74.3843 60.6087 74.3843 58.5478C74.3843 56.4868 72.7136 54.816 70.6526 54.816C68.5916 54.816 66.9209 56.4868 66.9209 58.5478C66.9209 60.6087 68.5916 62.2795 70.6526 62.2795Z" stroke="#FAFAFA" stroke-width="1.5"/>
<path d="M42.4663 53.4445C36.8699 53.4445 32.333 48.7186 32.333 42.8889C32.333 37.0592 36.8699 32.3333 42.4663 32.3333" stroke="#FAFAFA" stroke-width="1.5" stroke-linecap="round" stroke-linejoin="round"/>
<path d="M42.6689 71.1778C41.3252 71.1778 40.0365 70.644 39.0863 69.6938C38.1361 68.7436 37.6023 67.4549 37.6023 66.1111V65.8831C37.5827 65.0446 37.3112 64.2314 36.8233 63.5492C36.3354 62.867 35.6535 62.3473 34.8663 62.0578C34.1022 61.7206 33.2546 61.62 32.4328 61.769C31.611 61.918 30.8527 62.3098 30.2556 62.8938L30.1036 63.0458C29.6331 63.5169 29.0743 63.8906 28.4592 64.1456C27.8441 64.4005 27.1848 64.5318 26.5189 64.5318C25.8531 64.5318 25.1938 64.4005 24.5787 64.1456C23.9636 63.8906 23.4048 63.5169 22.9343 63.0458C22.4632 62.5752 22.0895 62.0164 21.8345 61.4014C21.5795 60.7863 21.4483 60.127 21.4483 59.4611C21.4483 58.7953 21.5795 58.136 21.8345 57.5209C22.0895 56.9058 22.4632 56.347 22.9343 55.8765L23.0863 55.7245C23.6703 55.1274 24.0621 54.3691 24.2111 53.5473C24.3601 52.7255 24.2595 51.8779 23.9223 51.1138C23.6011 50.3645 23.0679 49.7255 22.3883 49.2754C21.7086 48.8253 20.9121 48.5837 20.0969 48.5805H19.6663C18.3225 48.5805 17.0338 48.0466 16.0836 47.0965C15.1334 46.1463 14.5996 44.8576 14.5996 43.5138C14.5996 42.17 15.1334 40.8813 16.0836 39.9311C17.0338 38.9809 18.3225 38.4471 19.6663 38.4471H19.8943C20.7328 38.4275 21.546 38.1561 22.2282 37.6682C22.9104 37.1802 23.4301 36.4983 23.7196 35.7111C24.0568 34.947 24.1574 34.0994 24.0084 33.2776C23.8594 32.4558 23.4676 31.6975 22.8836 31.1005L22.7316 30.9485C22.2605 30.4779 21.8868 29.9191 21.6318 29.304C21.3769 28.6889 21.2456 28.0296 21.2456 27.3638C21.2456 26.698 21.3769 26.0386 21.6318 25.4236C21.8868 24.8085 22.2605 24.2497 22.7316 23.7791C23.2022 23.308 23.761 22.9343 24.376 22.6794C24.9911 22.4244 25.6504 22.2931 26.3163 22.2931C26.9821 22.2931 27.6414 22.4244 28.2565 22.6794C28.8716 22.9343 29.4304 23.308 29.9009 23.7791L30.0529 23.9311C30.65 24.5152 31.4083 24.9069 32.2301 25.0559C33.0519 25.2049 33.8995 25.1043 34.6636 24.7671H34.8663C35.6156 24.446 36.2546 23.9128 36.7047 23.2331C37.1548 22.5534 37.3964 21.757 37.3996 20.9418V20.5111C37.3996 19.1674 37.9334 17.8786 38.8836 16.9285C39.8338 15.9783 41.1225 15.4445 42.4663 15.4445" stroke="#FAFAFA" stroke-width="1.5" stroke-linecap="round" stroke-linejoin="round"/>
</svg>
