<svg width="90" height="90" viewBox="0 0 90 90" fill="none" xmlns="http://www.w3.org/2000/svg">
<path d="M0 12C0 5.37258 5.37258 0 12 0H78C84.6274 0 90 5.37258 90 12V78C90 84.6274 84.6274 90 78 90H12C5.37258 90 0 84.6274 0 78V12Z" fill="#FFE1DA"/>
<rect width="90" height="90" rx="12" fill="#757575"/>
<path d="M26.1501 32.6274H17.9417C17.5467 32.6274 17.2266 32.9476 17.2266 33.3425C17.2266 33.7375 17.5467 34.0576 17.9417 34.0576H26.1501C26.5451 34.0576 26.8652 33.7375 26.8652 33.3425C26.8652 32.9476 26.5451 32.6274 26.1501 32.6274Z" fill="#FAFAFA"/>
<path d="M22.0033 36.1079H17.9417C17.5467 36.1079 17.2266 36.4281 17.2266 36.823C17.2266 37.2179 17.5467 37.5381 17.9417 37.5381H22.0033C22.3982 37.5381 22.7184 37.2179 22.7184 36.823C22.7184 36.4281 22.3982 36.1079 22.0033 36.1079Z" fill="#FAFAFA"/>
<path d="M37.1953 60.7262V55.7212C37.1953 55.3262 36.8752 55.0061 36.4802 55.0061C36.0853 55.0061 35.7651 55.3262 35.7651 55.7212V60.7262C35.7651 61.1211 36.0853 61.4413 36.4802 61.4413C36.8752 61.4413 37.1953 61.1211 37.1953 60.7262Z" fill="#FAFAFA"/>
<path d="M30.3908 55.0061C30.8019 55.0061 31.1243 55.3557 31.0767 55.764C30.9978 56.4426 30.8545 57.4384 30.634 58.1562C30.3751 58.999 29.8139 60.0947 29.4986 60.6797C29.3644 60.9288 29.0867 61.0606 28.8075 61.0151C28.3207 60.9358 28.0724 60.3768 28.3195 59.95C28.659 59.3634 29.0674 58.5895 29.2716 57.9466C29.4883 57.2642 29.6093 56.3061 29.6703 55.6712C29.7061 55.2984 30.0163 55.0061 30.3908 55.0061Z" fill="#FAFAFA"/>
<path d="M56.5217 55.0061C56.1106 55.0061 55.7882 55.3557 55.8357 55.764C55.9148 56.4426 56.0579 57.4384 56.2785 58.1562C56.5374 58.999 57.0985 60.0947 57.4139 60.6797C57.5481 60.9288 57.8257 61.0606 58.105 61.0151C58.5917 60.9358 58.84 60.3768 58.593 59.95C58.2534 59.3634 57.8451 58.5895 57.6409 57.9466C57.4241 57.2642 57.3031 56.3061 57.2421 55.6712C57.2063 55.2984 56.8963 55.0061 56.5217 55.0061Z" fill="#FAFAFA"/>
<path d="M44.1719 60.7262V55.7212C44.1719 55.3262 43.8517 55.0061 43.4568 55.0061C43.0619 55.0061 42.7417 55.3262 42.7417 55.7212V60.7262C42.7417 61.1211 43.0619 61.4413 43.4568 61.4413C43.8517 61.4413 44.1719 61.1211 44.1719 60.7262Z" fill="#FAFAFA"/>
<path d="M51.1484 60.7262V55.7212C51.1484 55.3262 50.8283 55.0061 50.4334 55.0061C50.0384 55.0061 49.7183 55.3262 49.7183 55.7212V60.7262C49.7183 61.1211 50.0384 61.4413 50.4334 61.4413C50.8283 61.4413 51.1484 61.1211 51.1484 60.7262Z" fill="#FAFAFA"/>
<path d="M72.8671 29.1921H16.2894C14.7737 29.1921 13.5449 30.4208 13.5449 31.9365V48.934C13.5449 50.4497 14.7737 51.6784 16.2894 51.6784H72.8671C74.3829 51.6784 75.6116 50.4497 75.6116 48.934V31.9365C75.6116 30.4208 74.3829 29.1921 72.8671 29.1921Z" stroke="#FAFAFA" stroke-width="1.5"/>
<path d="M23.0442 45.821H66.0063C67.522 45.821 68.7507 47.0497 68.7507 48.5654V51.6785H20.2998V48.5654C20.2998 47.0497 21.5286 45.821 23.0442 45.821Z" stroke="#FAFAFA" stroke-width="1.5"/>
<path d="M66.4896 39.3182C68.2625 39.3182 69.6998 37.8809 69.6998 36.1079C69.6998 34.3349 68.2625 32.8976 66.4896 32.8976C64.7166 32.8976 63.2793 34.3349 63.2793 36.1079C63.2793 37.8809 64.7166 39.3182 66.4896 39.3182Z" stroke="#FAFAFA" stroke-width="1.5"/>
</svg>
