<svg width="90" height="90" viewBox="0 0 90 90" fill="none" xmlns="http://www.w3.org/2000/svg">
<path d="M0 12C0 5.37258 5.37258 0 12 0H78C84.6274 0 90 5.37258 90 12V78C90 84.6274 84.6274 90 78 90H12C5.37258 90 0 84.6274 0 78V12Z" fill="#FFE1DA"/>
<rect width="90" height="90" rx="12" fill="#757575"/>
<path d="M71.7633 69.5968C71.3607 70.017 70.6937 70.0311 70.2736 69.6285L52.39 52.4878C51.9699 52.0851 51.9557 51.4181 52.3584 50.998C52.761 50.5779 53.428 50.5637 53.8481 50.9664L71.7317 68.107C72.1518 68.5097 72.166 69.1767 71.7633 69.5968Z" fill="#FAFAFA"/>
<path d="M43.8786 33.4672L34.2444 42.3408C33.8669 42.6886 33.8547 43.2807 34.2175 43.6438L37.0504 46.4783C37.2151 46.643 37.4353 46.7376 37.6679 46.7502C38.7146 46.8071 41.7503 47.0649 42.9028 48.1681C44.0558 49.2717 44.3866 52.2388 44.4679 53.2607C44.486 53.4877 44.5815 53.7011 44.7438 53.8609L61.8702 70.7394C63.9884 72.827 67.3931 72.8176 69.4998 70.7187L72.9523 67.2789C75.1241 65.1152 75.0705 61.5825 72.8341 59.4857L55.8211 43.5344C55.6749 43.3974 55.489 43.3131 55.2902 43.2887C54.3081 43.168 51.2243 42.7064 49.9999 41.5487C48.7924 40.4071 48.2776 37.5341 48.1337 36.5571C48.1021 36.3426 48.0015 36.145 47.8422 35.9978L45.1034 33.4681C44.7578 33.1487 44.2248 33.1484 43.8786 33.4672Z" stroke="#FAFAFA" stroke-width="1.5"/>
<path d="M36.3509 40.327L27.2418 31.218C27.1215 31.0976 26.9696 31.0137 26.8037 30.976L21.2357 29.7073C20.9218 29.6357 20.6697 29.4026 20.5739 29.0953L17.4462 19.0574C17.3463 18.7369 17.4324 18.3874 17.6699 18.1499L19.8401 15.9797C20.0862 15.7336 20.4519 15.6508 20.7801 15.7668L30.4847 19.1993C30.7772 19.3028 30.9963 19.5493 31.0646 19.8521L32.3225 25.4284C32.3633 25.6093 32.4587 25.7731 32.5959 25.8979L41.4183 33.9215C41.7998 34.2685 41.8139 34.8639 41.4493 35.2285L35.9247 40.7532" stroke="#FAFAFA" stroke-width="1.5"/>
<path d="M46.7305 35.1154L52.516 30.0654C52.7473 29.8635 52.8574 29.5583 52.8284 29.2527C52.3482 24.1815 55.2267 14.7653 67.537 15.828C67.9115 15.8603 68.075 16.3131 67.8093 16.5791L62.6543 21.7405C62.4808 21.9143 62.3855 22.1513 62.3903 22.3969L62.4783 26.8249C62.4885 27.3351 62.9189 27.7356 63.4286 27.709L67.4816 27.4975C67.7168 27.4852 67.9379 27.3815 68.0978 27.2086L72.7668 22.157C72.998 21.9068 73.4103 21.9907 73.5095 22.3167C75.039 27.3422 75.5526 36.6338 60.8133 36.7889C60.578 36.7913 60.3426 36.8826 60.174 37.0467L53.9037 43.1474" stroke="#FAFAFA" stroke-width="1.5"/>
<path d="M28.0037 73.7111C34.2987 73.7111 39.4018 68.608 39.4018 62.3129C39.4018 56.0179 34.2987 50.9147 28.0037 50.9147C21.7086 50.9147 16.6055 56.0179 16.6055 62.3129C16.6055 68.608 21.7086 73.7111 28.0037 73.7111Z" stroke="#FAFAFA" stroke-width="1.5"/>
<path d="M28.0036 67.1837C30.6937 67.1837 32.8744 65.003 32.8744 62.3129C32.8744 59.6228 30.6937 57.4421 28.0036 57.4421C25.3135 57.4421 23.1328 59.6228 23.1328 62.3129C23.1328 65.003 25.3135 67.1837 28.0036 67.1837Z" stroke="#FAFAFA" stroke-width="1.5"/>
<path d="M30.792 51.1654L36.104 45.8535" stroke="#FAFAFA" stroke-width="1.5"/>
<path d="M38.8945 58.5695L44.2066 53.2575" stroke="#FAFAFA" stroke-width="1.5"/>
</svg>
