<svg width="90" height="90" viewBox="0 0 90 90" fill="none" xmlns="http://www.w3.org/2000/svg">
<path d="M0 12C0 5.37258 5.37258 0 12 0H78C84.6274 0 90 5.37258 90 12V78C90 84.6274 84.6274 90 78 90H12C5.37258 90 0 84.6274 0 78V12Z" fill="black"/>
<rect width="90" height="90" rx="12" fill="#757575"/>
<path d="M71.1779 16.9222H18.1783C17.129 16.9222 16.2783 17.7476 16.2783 18.7658V48.3684C16.2783 49.3866 17.129 50.212 18.1783 50.212H71.1779C72.2272 50.212 73.0779 49.3866 73.0779 48.3684V18.7658C73.0779 17.7476 72.2272 16.9222 71.1779 16.9222Z" stroke="#FAFAFA" stroke-width="1.5"/>
<path d="M22.943 58.6828L20.4543 54.5351C20.2544 54.2018 20.4944 53.7778 20.8831 53.7778H33.5397C33.9442 53.7778 34.1813 54.2332 33.9493 54.5646L31.0723 58.6745C31.0252 58.7418 31 58.8219 31 58.9039V74.2778H23V58.8886C23 58.8161 22.9803 58.745 22.943 58.6828Z" stroke="#FAFAFA" stroke-width="1.5"/>
<path d="M59.443 58.6828L56.9543 54.5351C56.7544 54.2018 56.9944 53.7778 57.3831 53.7778H70.0397C70.4442 53.7778 70.6813 54.2332 70.4493 54.5646L67.5723 58.6745C67.5252 58.7418 67.5 58.8219 67.5 58.9039V74.2778H59.5V58.8886C59.5 58.8161 59.4803 58.745 59.443 58.6828Z" stroke="#FAFAFA" stroke-width="1.5"/>
<path d="M68.2423 21.9052H21.0215V45.2326H68.2423V21.9052Z" stroke="#FAFAFA" stroke-width="1.5"/>
</svg>
