<svg width="90" height="90" viewBox="0 0 90 90" fill="none" xmlns="http://www.w3.org/2000/svg">
<path d="M0 12C0 5.37258 5.37258 0 12 0H78C84.6274 0 90 5.37258 90 12V78C90 84.6274 84.6274 90 78 90H12C5.37258 90 0 84.6274 0 78V12Z" fill="#FFE1DA"/>
<rect width="90" height="90" rx="12" fill="#757575"/>
<path d="M24.3417 35.1571H27.8883V59.5492H24.3417C20.494 59.5492 17.375 56.4301 17.375 52.5825V42.1237C17.375 38.2762 20.494 35.1571 24.3417 35.1571Z" stroke="#FAFAFA" stroke-width="1.5"/>
<path d="M65.199 35.1571H61.6523V59.5492H65.199C69.0466 59.5492 72.1657 56.4301 72.1657 52.5825V42.1237C72.1657 38.2762 69.0466 35.1571 65.199 35.1571Z" stroke="#FAFAFA" stroke-width="1.5"/>
<path d="M23.0513 35.6313C23.0513 35.6313 22.4768 13.2265 44.2187 13.2265C65.9607 13.2265 66.5352 35.6313 66.5352 35.6313" stroke="#FAFAFA" stroke-width="1.5"/>
<path d="M26.1077 35.6313C26.1077 35.6313 25.6139 16.376 44.2996 16.376C62.9853 16.376 63.479 35.6313 63.479 35.6313" stroke="#FAFAFA" stroke-width="1.5"/>
<path d="M65.5576 59.9435C65.5576 59.9435 66.401 63.7051 63.0995 68.2072C59.798 72.7093 51.5459 72.267 51.5459 72.267" stroke="#FAFAFA" stroke-width="1.5"/>
<path d="M47.3547 76.0662C49.4464 76.0662 51.142 74.3706 51.142 72.2789C51.142 70.1873 49.4464 68.4916 47.3547 68.4916C45.263 68.4916 43.5674 70.1873 43.5674 72.2789C43.5674 74.3706 45.263 76.0662 47.3547 76.0662Z" stroke="#FAFAFA" stroke-width="1.5"/>
</svg>
