<svg width="25" height="24" viewBox="0 0 25 24" fill="none" xmlns="http://www.w3.org/2000/svg">
<g clip-path="url(#clip0_221_1467)">
<path d="M20.9174 20.452H17.364V14.8827C17.364 13.5547 17.3374 11.8453 15.5107 11.8453C13.6587 11.8453 13.376 13.2907 13.376 14.7853V20.452H9.82137V9H13.2347V10.56H13.2814C13.7587 9.66133 14.9187 8.71067 16.652 8.71067C20.252 8.71067 20.9187 11.0813 20.9187 14.1653V20.452H20.9174ZM5.80804 7.43333C5.53678 7.43368 5.26812 7.38049 5.01745 7.27681C4.76679 7.17312 4.53906 7.02099 4.34731 6.82911C4.15556 6.63724 4.00357 6.40941 3.90005 6.15868C3.79653 5.90795 3.74351 5.63926 3.74404 5.368C3.7443 4.95978 3.86561 4.5608 4.09262 4.22153C4.31964 3.88225 4.64216 3.61791 5.01941 3.46194C5.39666 3.30596 5.81169 3.26536 6.21201 3.34525C6.61234 3.42515 6.97998 3.62197 7.26845 3.91081C7.55692 4.19965 7.75326 4.56755 7.83264 4.96798C7.91202 5.3684 7.87088 5.78338 7.71441 6.16042C7.55795 6.53747 7.29319 6.85965 6.95362 7.08623C6.61405 7.3128 6.21492 7.4336 5.8067 7.43333H5.80804ZM7.58937 20.452H4.02537V9H7.5907V20.452H7.58937ZM22.6974 0H2.2427C1.26137 0 0.470703 0.773333 0.470703 1.72933V22.2707C0.470703 23.2267 1.2627 24 2.24137 24H22.692C23.6707 24 24.4707 23.2267 24.4707 22.2707V1.72933C24.4707 0.773333 23.6707 0 22.692 0H22.696H22.6974Z" fill="white"/>
</g>
<defs>
<clipPath id="clip0_221_1467">
<rect width="24" height="24" fill="white" transform="translate(0.470703)"/>
</clipPath>
</defs>
</svg>
