<svg width="17" height="18" viewBox="0 0 17 18" fill="none" xmlns="http://www.w3.org/2000/svg">
<path d="M8.50033 0.666748C13.1003 0.666748 16.8337 4.40008 16.8337 9.00008C16.8337 13.6001 13.1003 17.3334 8.50033 17.3334C3.90033 17.3334 0.166992 13.6001 0.166992 9.00008C0.166992 4.40008 3.90033 0.666748 8.50033 0.666748ZM8.50033 2.33341C4.81699 2.33341 1.83366 5.31675 1.83366 9.00008C1.83366 12.6834 4.81699 15.6667 8.50033 15.6667C12.1837 15.6667 15.167 12.6834 15.167 9.00008C15.167 5.31675 12.1837 2.33341 8.50033 2.33341ZM8.50033 4.83342C10.017 4.83342 11.3445 5.64425 12.0737 6.85675L10.6453 7.71425C10.4205 7.33945 10.1014 7.03013 9.71982 6.81712C9.33821 6.60411 8.90743 6.49487 8.47042 6.50027C8.03342 6.50568 7.60547 6.62555 7.22924 6.84793C6.85302 7.07032 6.54166 7.38744 6.32622 7.76768C6.11078 8.14793 5.99878 8.57801 6.00139 9.01503C6.00401 9.45206 6.12114 9.88077 6.34112 10.2584C6.56109 10.6361 6.87622 10.9494 7.25508 11.1673C7.63394 11.3852 8.06329 11.4999 8.50033 11.5001C8.9321 11.5004 9.35659 11.3887 9.73237 11.1761C10.1082 10.9634 10.4224 10.657 10.6445 10.2867L12.0737 11.1434C11.6053 11.9256 10.8934 12.5326 10.0469 12.8712C9.2005 13.2099 8.26634 13.2615 7.38774 13.0182C6.50914 12.7749 5.73461 12.2501 5.18294 11.5243C4.63127 10.7985 4.33292 9.91175 4.33366 9.00008C4.33366 6.70008 6.20033 4.83342 8.50033 4.83342Z" fill="#FAFAFA"/>
</svg>
