<svg width="90" height="90" viewBox="0 0 90 90" fill="none" xmlns="http://www.w3.org/2000/svg">
<path d="M0 12C0 5.37258 5.37258 0 12 0H78C84.6274 0 90 5.37258 90 12V78C90 84.6274 84.6274 90 78 90H12C5.37258 90 0 84.6274 0 78V12Z" fill="#FFE1DA"/>
<rect width="90" height="90" rx="12" fill="#757575"/>
<rect x="29.9668" y="23.741" width="27.5632" height="20.8773" rx="1.25" stroke="#FAFAFA" stroke-width="1.5"/>
<path d="M75.9011 62.3564L76.6312 62.1848L75.9011 62.3564ZM14.1326 62.3356L13.4063 62.1484L14.1326 62.3356ZM14.8588 62.5227L16.8449 54.8158L15.3924 54.4415L13.4063 62.1484L14.8588 62.5227ZM18.0554 53.8778H72.1481V52.3778H18.0554V53.8778ZM73.365 54.8419L75.1709 62.5279L76.6312 62.1848L74.8252 54.4987L73.365 54.8419ZM74.9276 62.8351H45.0002V64.3351H74.9276V62.8351ZM45.0002 62.8351H15.1009V64.3351H45.0002V62.8351ZM75.1709 62.5279C75.2078 62.6848 75.0888 62.8351 74.9276 62.8351V64.3351C76.0558 64.3351 76.8893 63.2832 76.6312 62.1848L75.1709 62.5279ZM72.1481 53.8778C72.7283 53.8778 73.2323 54.277 73.365 54.8419L74.8252 54.4987C74.5332 53.2561 73.4246 52.3778 72.1481 52.3778V53.8778ZM16.8449 54.8158C16.9872 54.2637 17.4852 53.8778 18.0554 53.8778V52.3778C16.8009 52.3778 15.7055 53.2267 15.3924 54.4415L16.8449 54.8158ZM13.4063 62.1484C13.1209 63.2559 13.9572 64.3351 15.1009 64.3351V62.8351C14.9375 62.8351 14.8181 62.6809 14.8588 62.5227L13.4063 62.1484Z" fill="#FAFAFA"/>
<path d="M75.11 62.9253V68.3333H76.61V62.9253H75.11ZM73.86 69.5833H16.0566V71.0833H73.86V69.5833ZM14.8066 68.3333V62.9253H13.3066V68.3333H14.8066ZM16.0566 69.5833C15.3663 69.5833 14.8066 69.0237 14.8066 68.3333H13.3066C13.3066 69.8521 14.5379 71.0833 16.0566 71.0833V69.5833ZM75.11 68.3333C75.11 69.0237 74.5503 69.5833 73.86 69.5833V71.0833C75.3787 71.0833 76.61 69.8521 76.61 68.3333H75.11Z" fill="#FAFAFA"/>
<path d="M17.4707 56.657C17.4707 56.2962 17.7632 56.0036 18.1241 56.0036H39.5695C39.9304 56.0036 40.2229 56.2962 40.2229 56.657C40.2229 57.0179 39.9304 57.3104 39.5695 57.3104H18.1241C17.7632 57.3104 17.4707 57.0179 17.4707 56.657Z" fill="#FAFAFA"/>
<path d="M41.7578 56.657C41.7578 56.2962 42.0503 56.0036 42.4112 56.0036H58.4106C58.7714 56.0036 59.0639 56.2962 59.0639 56.657C59.0639 57.0179 58.7714 57.3104 58.4106 57.3104H42.4112C42.0503 57.3104 41.7578 57.0179 41.7578 56.657Z" fill="#FAFAFA"/>
<path d="M41.7578 60.0805C41.7578 59.7197 42.0503 59.4271 42.4112 59.4271H50.4957C50.8566 59.4271 51.1491 59.7197 51.1491 60.0805C51.1491 60.4414 50.8566 60.7339 50.4957 60.7339H42.4112C42.0503 60.7339 41.7578 60.4414 41.7578 60.0805Z" fill="#FAFAFA"/>
<path d="M52.6094 60.0805C52.6094 59.7197 52.9019 59.4271 53.2628 59.4271H58.4099C58.7708 59.4271 59.0633 59.7197 59.0633 60.0805C59.0633 60.4414 58.7708 60.7339 58.4099 60.7339H53.2628C52.9019 60.7339 52.6094 60.4414 52.6094 60.0805Z" fill="#FAFAFA"/>
<path d="M17.4473 60.0805C17.4473 59.6937 17.7608 59.3802 18.1476 59.3802H39.4992C39.8859 59.3802 40.1995 59.6937 40.1995 60.0805C40.1995 60.4673 39.8859 60.7808 39.4992 60.7808H18.1476C17.7608 60.7808 17.4473 60.4673 17.4473 60.0805Z" fill="#FAFAFA"/>
<circle cx="71.6145" cy="56.4753" r="0.835163" fill="#FAFAFA"/>
<circle cx="72.8313" cy="59.9457" r="0.835163" fill="#FAFAFA"/>
<circle cx="68.4094" cy="56.4753" r="0.835163" fill="#FAFAFA"/>
<circle cx="69.6262" cy="59.9457" r="0.835163" fill="#FAFAFA"/>
<circle cx="65.2063" cy="56.4753" r="0.835163" fill="#FAFAFA"/>
<circle cx="66.4211" cy="59.9457" r="0.835163" fill="#FAFAFA"/>
<circle cx="62.0012" cy="56.4753" r="0.835163" fill="#FAFAFA"/>
<circle cx="63.216" cy="59.9457" r="0.835163" fill="#FAFAFA"/>
<path d="M29.9062 32.8204H57.597" stroke="#FAFAFA" stroke-width="1.5"/>
<path d="M37.6465 22.991V32.65" stroke="#FAFAFA" stroke-width="1.5"/>
<path d="M46.4531 22.991V33.2833" stroke="#FAFAFA" stroke-width="1.5"/>
<path d="M17.8553 21.6782L25.6795 24.3945C26.0818 24.5341 26.3515 24.9133 26.3515 25.3392V43.6283C26.3515 44.0148 26.1289 44.3666 25.7797 44.532L17.9555 48.2392C17.2921 48.5536 16.5273 48.0697 16.5273 47.3355V22.6229C16.5273 21.9351 17.2056 21.4526 17.8553 21.6782Z" stroke="#FAFAFA" stroke-width="1.5" stroke-linecap="round"/>
<path d="M70.006 21.6782L62.1818 24.3945C61.7795 24.5341 61.5098 24.9133 61.5098 25.3392V43.6283C61.5098 44.0148 61.7324 44.3666 62.0816 44.532L69.9058 48.2392C70.5693 48.5536 71.334 48.0697 71.334 47.3355V22.6229C71.334 21.9351 70.6558 21.4526 70.006 21.6782Z" stroke="#FAFAFA" stroke-width="1.5" stroke-linecap="round"/>
</svg>
