<svg width="90" height="90" viewBox="0 0 90 90" fill="none" xmlns="http://www.w3.org/2000/svg">
<path d="M0 12C0 5.37258 5.37258 0 12 0H78C84.6274 0 90 5.37258 90 12V78C90 84.6274 84.6274 90 78 90H12C5.37258 90 0 84.6274 0 78V12Z" fill="#FFE1DA"/>
<rect width="90" height="90" rx="12" fill="#757575"/>
<path d="M42.2412 62.7509H42.9912V62.5175L42.8588 62.3254L42.2412 62.7509ZM45.1835 52.1468C45.1835 52.561 45.5193 52.8968 45.9335 52.8968C46.3477 52.8968 46.6835 52.561 46.6835 52.1468H45.1835ZM49.9799 52.1468C49.9799 52.561 50.3157 52.8968 50.7299 52.8968C51.1441 52.8968 51.4799 52.561 51.4799 52.1468H49.9799ZM50.7299 48.1813L50.0806 47.806L49.9799 47.9801V48.1813H50.7299ZM54.7385 53.8841C54.7385 54.2983 55.0743 54.6341 55.4885 54.6341C55.9027 54.6341 56.2385 54.2983 56.2385 53.8841H54.7385ZM55.4885 51.0327L54.8026 50.7294L54.7385 50.8743V51.0327H55.4885ZM60.3605 59.6624L61.0374 59.9852L61.1105 59.8321V59.6624H60.3605ZM58.8875 62.7509L58.2106 62.4281L58.1375 62.5812V62.7509H58.8875ZM48.4577 44.9561L48.486 44.2066L48.4577 44.9561ZM53.0842 46.1822L53.0764 45.4322L53.0842 46.1822ZM57.9245 48.5779V49.3279V48.5779ZM59.0611 49.1219L58.5492 49.67L59.0611 49.1219ZM40.4993 52.3055L39.9033 52.7608L40.4993 52.3055ZM42.9912 68.4115V62.7509H41.4912V68.4115H42.9912ZM42.8588 62.3254L37.7877 54.9661L36.5526 55.8173L41.6237 63.1765L42.8588 62.3254ZM39.9033 52.7608L40.2475 53.2114L41.4395 52.3008L41.0953 51.8502L39.9033 52.7608ZM41.8493 52.6695V42.6788H40.3493V52.6695H41.8493ZM45.1835 42.6788V45.9719H46.6835V42.6788H45.1835ZM45.1835 45.9719V52.1468H46.6835V45.9719H45.1835ZM49.9799 48.1813V52.1468H51.4799V48.1813H49.9799ZM54.7385 51.0327V53.8841H56.2385V51.0327H54.7385ZM59.6105 53.3561V59.6624H61.1105V53.3561H59.6105ZM59.6835 59.3396L58.2106 62.4281L59.5645 63.0738L61.0374 59.9852L59.6835 59.3396ZM58.1375 62.7509V68.4115H59.6375V62.7509H58.1375ZM57.8875 68.6615H43.2412V70.1615H57.8875V68.6615ZM45.9335 45.9719C46.3726 46.5799 46.3725 46.58 46.3724 46.5801C46.3723 46.5801 46.3723 46.5802 46.3722 46.5802C46.3721 46.5803 46.372 46.5803 46.372 46.5804C46.3719 46.5805 46.3718 46.5805 46.3719 46.5804C46.372 46.5804 46.3725 46.58 46.3733 46.5795C46.3748 46.5783 46.3778 46.5762 46.382 46.5733C46.3904 46.5674 46.4039 46.5579 46.4221 46.5455C46.4585 46.5205 46.5133 46.4838 46.5829 46.4392C46.7229 46.3496 46.919 46.231 47.1433 46.1144C47.6281 45.8625 48.1083 45.6934 48.4293 45.7055L48.486 44.2066C47.7452 44.1786 46.9633 44.5175 46.4515 44.7834C46.1775 44.9258 45.9416 45.0687 45.7743 45.1759C45.6902 45.2297 45.6224 45.2751 45.5747 45.3078C45.5508 45.3241 45.5319 45.3373 45.5184 45.3468C45.5116 45.3516 45.5062 45.3554 45.5022 45.3583C45.5002 45.3597 45.4985 45.3609 45.4972 45.3618C45.4966 45.3623 45.496 45.3627 45.4956 45.363C45.4953 45.3632 45.4951 45.3634 45.4949 45.3635C45.4948 45.3636 45.4947 45.3637 45.4947 45.3637C45.4945 45.3638 45.4944 45.3639 45.9335 45.9719ZM48.4293 45.7055C48.4806 45.7075 48.542 45.7149 48.6137 45.7296L48.9148 44.2601C48.7776 44.232 48.6334 44.2122 48.486 44.2066L48.4293 45.7055ZM50.7299 48.1813C51.3792 48.5566 51.3792 48.5567 51.3791 48.5568C51.3791 48.5569 51.379 48.557 51.379 48.5571C51.3789 48.5572 51.3788 48.5573 51.3788 48.5574C51.3787 48.5575 51.3787 48.5575 51.3787 48.5575C51.3788 48.5573 51.3792 48.5567 51.3798 48.5556C51.3811 48.5534 51.3834 48.5495 51.3867 48.5439C51.3934 48.5328 51.4042 48.515 51.4187 48.4916C51.4478 48.4447 51.4919 48.3756 51.5488 48.2917C51.6635 48.1227 51.8256 47.9005 52.0181 47.6815C52.2133 47.4594 52.4226 47.2602 52.6284 47.1206C52.839 46.9778 52.9929 46.9332 53.092 46.9322L53.0764 45.4322C52.5724 45.4375 52.1305 45.6459 51.7866 45.8791C51.438 46.1155 51.1341 46.4152 50.8914 46.6913C50.6461 46.9705 50.4458 47.2458 50.3075 47.4496C50.2379 47.5522 50.1828 47.6384 50.1445 47.7002C50.1253 47.7311 50.1101 47.7561 50.0994 47.774C50.0941 47.783 50.0898 47.7902 50.0866 47.7956C50.085 47.7982 50.0838 47.8005 50.0827 47.8022C50.0822 47.8031 50.0818 47.8038 50.0814 47.8044C50.0812 47.8048 50.0811 47.805 50.0809 47.8053C50.0809 47.8054 50.0808 47.8056 50.0807 47.8056C50.0806 47.8058 50.0806 47.806 50.7299 48.1813ZM53.092 46.9322C53.1329 46.9317 53.1841 46.9383 53.2478 46.958L53.69 45.5246C53.4999 45.466 53.2937 45.43 53.0764 45.4322L53.092 46.9322ZM55.4885 51.0327C56.1745 51.336 56.1744 51.3361 56.1743 51.3362C56.1743 51.3363 56.1743 51.3364 56.1742 51.3365C56.1742 51.3366 56.1741 51.3367 56.1741 51.3368C56.1741 51.3369 56.1741 51.3369 56.1741 51.3367C56.1743 51.3363 56.1747 51.3354 56.1754 51.334C56.1767 51.3311 56.179 51.326 56.1823 51.3188C56.1889 51.3045 56.1994 51.282 56.2136 51.2525C56.242 51.1935 56.2849 51.107 56.3408 51.0023C56.4536 50.7912 56.6143 50.5145 56.8095 50.2424C57.0077 49.9661 57.223 49.7204 57.4387 49.5502C57.6576 49.3775 57.8183 49.3279 57.9245 49.3279V47.8279C57.3554 47.8279 56.8739 48.0852 56.5095 48.3726C56.1419 48.6627 55.8326 49.0308 55.5906 49.3682C55.3456 49.7097 55.1506 50.0468 55.0176 50.2959C54.9506 50.4213 54.8983 50.5266 54.862 50.6018C54.8439 50.6395 54.8298 50.6698 54.8198 50.6914C54.8148 50.7022 54.8109 50.7109 54.808 50.7173C54.8066 50.7205 54.8054 50.7231 54.8045 50.7251C54.804 50.7261 54.8036 50.727 54.8033 50.7277C54.8032 50.728 54.803 50.7284 54.8029 50.7286C54.8028 50.7288 54.8028 50.729 54.8027 50.729C54.8027 50.7292 54.8026 50.7294 55.4885 51.0327ZM57.9245 49.3279C58.0574 49.3279 58.2674 49.4069 58.5492 49.67L59.573 48.5738C59.177 48.2039 58.6139 47.8279 57.9245 47.8279V49.3279ZM58.1375 68.4115C58.1375 68.5495 58.0256 68.6615 57.8875 68.6615V70.1615C58.854 70.1615 59.6375 69.378 59.6375 68.4115H58.1375ZM56.2385 51.0327C56.2385 50.0838 56.181 48.9281 55.8631 47.9181C55.5426 46.8999 54.9113 45.9015 53.69 45.5246L53.2478 46.958C53.8104 47.1316 54.189 47.5954 54.4323 48.3685C54.6782 49.1499 54.7385 50.1146 54.7385 51.0327H56.2385ZM51.4799 48.1813C51.4799 47.3886 51.31 46.5323 50.9163 45.8116C50.517 45.0805 49.863 44.4544 48.9148 44.2601L48.6137 45.7296C49.0284 45.8146 49.3571 46.0861 49.5999 46.5306C49.8484 46.9856 49.9799 47.5828 49.9799 48.1813H51.4799ZM46.6835 42.6788C46.6835 41.6982 46.5341 40.4966 46.1045 39.5101C45.6745 38.5225 44.8681 37.5741 43.5164 37.5741V39.0741C44.0099 39.0741 44.412 39.3804 44.7293 40.109C45.0469 40.8385 45.1835 41.8142 45.1835 42.6788H46.6835ZM61.1105 53.3561C61.1105 51.8275 60.9499 49.8597 59.573 48.5738L58.5492 49.67C59.4116 50.4755 59.6105 51.8205 59.6105 53.3561H61.1105ZM40.2475 53.2114C40.7658 53.8898 41.8493 53.5233 41.8493 52.6695H40.3493C40.3493 52.0885 41.0868 51.839 41.4395 52.3008L40.2475 53.2114ZM41.0953 51.8502C40.5731 51.1666 39.8194 50.5026 38.9878 50.1487C38.1427 49.7891 37.0949 49.7142 36.2273 50.4658L37.2094 51.5996C37.4964 51.351 37.8754 51.3056 38.4004 51.529C38.9388 51.7581 39.4983 52.2306 39.9033 52.7608L41.0953 51.8502ZM37.7877 54.9661C37.361 54.3469 37.0009 53.6201 36.8763 52.9687C36.7537 52.3274 36.8735 51.8905 37.2094 51.5996L36.2273 50.4658C35.3377 51.2364 35.2234 52.3115 35.403 53.2505C35.5807 54.1795 36.0593 55.1014 36.5526 55.8173L37.7877 54.9661ZM41.8493 42.6788C41.8493 41.8142 41.9859 40.8385 42.3036 40.109C42.6208 39.3804 43.0229 39.0741 43.5164 39.0741V37.5741C42.1647 37.5741 41.3583 38.5225 40.9283 39.5101C40.4987 40.4966 40.3493 41.6982 40.3493 42.6788H41.8493ZM41.4912 68.4115C41.4912 69.378 42.2747 70.1615 43.2412 70.1615V68.6615C43.1032 68.6615 42.9912 68.5495 42.9912 68.4115H41.4912Z" fill="#FAFAFA"/>
<path d="M42.377 65.5394H58.7473" stroke="#FAFAFA" stroke-width="1.5"/>
<path d="M39.4216 48.1625C39.8358 48.1625 40.1716 47.8267 40.1716 47.4125C40.1716 46.9983 39.8358 46.6625 39.4216 46.6625V48.1625ZM50.5753 43.9098C50.5753 44.324 50.9111 44.6598 51.3253 44.6598C51.7395 44.6598 52.0753 44.324 52.0753 43.9098H50.5753ZM39.4216 46.6625H36.8008V48.1625H39.4216V46.6625ZM36.5508 46.4125V33.4953H35.0508V46.4125H36.5508ZM37.8008 32.2453H49.3253V30.7453H37.8008V32.2453ZM50.5753 33.4953V43.9098H52.0753V33.4953H50.5753ZM49.3253 32.2453C50.0156 32.2453 50.5753 32.8049 50.5753 33.4953H52.0753C52.0753 31.9765 50.844 30.7453 49.3253 30.7453V32.2453ZM36.5508 33.4953C36.5508 32.8049 37.1104 32.2453 37.8008 32.2453V30.7453C36.282 30.7453 35.0508 31.9765 35.0508 33.4953H36.5508ZM36.8008 46.6625C36.6627 46.6625 36.5508 46.5506 36.5508 46.4125H35.0508C35.0508 47.379 35.8343 48.1625 36.8008 48.1625V46.6625Z" fill="#FAFAFA"/>
<path d="M36.8418 31.4274C36.8418 31.8416 37.1776 32.1774 37.5918 32.1774C38.006 32.1774 38.3418 31.8416 38.3418 31.4274H36.8418ZM37.5918 25.4072L36.8498 25.2981L36.8418 25.3524V25.4072H37.5918ZM49.377 25.4072H50.127V25.3524L50.1191 25.2981L49.377 25.4072ZM48.627 31.4274C48.627 31.8416 48.9628 32.1774 49.377 32.1774C49.7912 32.1774 50.127 31.8416 50.127 31.4274H48.627ZM38.3418 31.4274V25.4072H36.8418V31.4274H38.3418ZM48.627 25.4072V31.4274H50.127V25.4072H48.627ZM37.5918 25.4072C38.3338 25.5163 38.3338 25.5167 38.3337 25.517C38.3337 25.517 38.3337 25.5173 38.3336 25.5175C38.3336 25.5178 38.3336 25.518 38.3335 25.5182C38.3335 25.5185 38.3335 25.5185 38.3335 25.5182C38.3336 25.5176 38.3339 25.5159 38.3344 25.5129C38.3353 25.507 38.3371 25.4964 38.3398 25.4816C38.3452 25.4518 38.3541 25.4047 38.3676 25.343C38.3945 25.2192 38.439 25.0374 38.5076 24.817C38.6456 24.3738 38.8766 23.7887 39.2471 23.2094C39.9742 22.0729 41.2317 20.9533 43.4844 20.9533V19.4533C40.6097 19.4533 38.921 20.9357 37.9836 22.4011C37.5219 23.1228 37.2411 23.8387 37.0754 24.3712C36.9921 24.6387 36.9368 24.8634 36.9018 25.0243C36.8843 25.1048 36.8718 25.1695 36.8635 25.216C36.8593 25.2392 36.8562 25.2579 36.8539 25.2717C36.8528 25.2786 36.8519 25.2842 36.8512 25.2886C36.8509 25.2909 36.8506 25.2928 36.8503 25.2943C36.8502 25.2951 36.8501 25.2958 36.85 25.2964C36.85 25.2968 36.8499 25.2972 36.8499 25.2973C36.8498 25.2977 36.8498 25.2981 37.5918 25.4072ZM43.4844 20.9533C45.7371 20.9533 46.9946 22.0729 47.7217 23.2094C48.0923 23.7887 48.3233 24.3738 48.4612 24.817C48.5298 25.0374 48.5743 25.2192 48.6013 25.343C48.6147 25.4047 48.6237 25.4518 48.629 25.4816C48.6317 25.4964 48.6335 25.507 48.6344 25.5129C48.6349 25.5159 48.6352 25.5176 48.6353 25.5182C48.6353 25.5185 48.6353 25.5185 48.6353 25.5182C48.6353 25.518 48.6352 25.5178 48.6352 25.5175C48.6352 25.5173 48.6351 25.517 48.6351 25.517C48.6351 25.5167 48.635 25.5163 49.377 25.4072C50.1191 25.2981 50.119 25.2977 50.1189 25.2973C50.1189 25.2972 50.1189 25.2968 50.1188 25.2964C50.1187 25.2958 50.1186 25.2951 50.1185 25.2943C50.1183 25.2928 50.118 25.2909 50.1176 25.2886C50.1169 25.2842 50.116 25.2786 50.1149 25.2717C50.1127 25.2579 50.1095 25.2392 50.1053 25.216C50.097 25.1695 50.0845 25.1048 50.067 25.0243C50.032 24.8634 49.9767 24.6387 49.8935 24.3712C49.7277 23.8387 49.4469 23.1228 48.9853 22.4011C48.0478 20.9357 46.3591 19.4533 43.4844 19.4533V20.9533Z" fill="#FAFAFA"/>
<circle cx="25.6611" cy="37.403" r="2.32121" stroke="#FAFAFA" stroke-width="1.5"/>
<circle cx="60.7372" cy="39.1088" r="2.32121" stroke="#FAFAFA" stroke-width="1.5"/>
<mask id="path-9-inside-1_560_4770" fill="white">
<path d="M46.3015 41.2848C46.9646 40.7264 47.4395 39.9773 47.6616 39.1393C47.8837 38.3014 47.8422 37.4154 47.5428 36.6018C47.2434 35.7883 46.7005 35.0868 45.9882 34.5929C45.2758 34.0989 44.4285 33.8364 43.5617 33.8411C42.6948 33.8459 41.8505 34.1176 41.1436 34.6194C40.4367 35.1212 39.9016 35.8285 39.6111 36.6453C39.3206 37.462 39.2888 38.3485 39.5201 39.1839C39.7513 40.0194 40.2344 40.7633 40.9036 41.3143L41.9303 40.0677C41.5173 39.7276 41.2192 39.2686 41.0765 38.753C40.9338 38.2375 40.9534 37.6905 41.1327 37.1865C41.3119 36.6825 41.6422 36.246 42.0784 35.9364C42.5146 35.6267 43.0356 35.4591 43.5705 35.4561C44.1055 35.4532 44.6283 35.6152 45.0679 35.92C45.5074 36.2248 45.8424 36.6577 46.0272 37.1597C46.212 37.6617 46.2376 38.2084 46.1005 38.7255C45.9634 39.2426 45.6704 39.7049 45.2612 40.0494L46.3015 41.2848Z"/>
</mask>
<path d="M46.3015 41.2848C46.9646 40.7264 47.4395 39.9773 47.6616 39.1393C47.8837 38.3014 47.8422 37.4154 47.5428 36.6018C47.2434 35.7883 46.7005 35.0868 45.9882 34.5929C45.2758 34.0989 44.4285 33.8364 43.5617 33.8411C42.6948 33.8459 41.8505 34.1176 41.1436 34.6194C40.4367 35.1212 39.9016 35.8285 39.6111 36.6453C39.3206 37.462 39.2888 38.3485 39.5201 39.1839C39.7513 40.0194 40.2344 40.7633 40.9036 41.3143L41.9303 40.0677C41.5173 39.7276 41.2192 39.2686 41.0765 38.753C40.9338 38.2375 40.9534 37.6905 41.1327 37.1865C41.3119 36.6825 41.6422 36.246 42.0784 35.9364C42.5146 35.6267 43.0356 35.4591 43.5705 35.4561C44.1055 35.4532 44.6283 35.6152 45.0679 35.92C45.5074 36.2248 45.8424 36.6577 46.0272 37.1597C46.212 37.6617 46.2376 38.2084 46.1005 38.7255C45.9634 39.2426 45.6704 39.7049 45.2612 40.0494L46.3015 41.2848Z" stroke="#FAFAFA" stroke-width="3" mask="url(#path-9-inside-1_560_4770)"/>
<path d="M35.7757 32.2278L30.791 27.9475" stroke="#FAFAFA" stroke-width="1.5" stroke-linecap="round"/>
<circle cx="28.7314" cy="26.4584" r="2.32121" stroke="#FAFAFA" stroke-width="1.5"/>
<circle cx="58.2372" cy="27.4337" r="2.32121" stroke="#FAFAFA" stroke-width="1.5"/>
<path d="M51.109 32.5529L56.2563 28.8686M35.6132 39.759L27.8653 38.5129" stroke="#FAFAFA" stroke-width="1.5" stroke-linecap="round"/>
<path d="M51.4336 40.2467L58.0437 39.1089" stroke="#FAFAFA" stroke-width="1.5" stroke-linecap="round"/>
</svg>
