<svg width="90" height="90" viewBox="0 0 90 90" fill="none" xmlns="http://www.w3.org/2000/svg">
<path d="M0 12C0 5.37258 5.37258 0 12 0H78C84.6274 0 90 5.37258 90 12V78C90 84.6274 84.6274 90 78 90H12C5.37258 90 0 84.6274 0 78V12Z" fill="#FFE1DA"/>
<rect width="90" height="90" rx="12" fill="#757575"/>
<path d="M11.75 24.1725C11.75 23.4821 12.3096 22.9225 13 22.9225H77C77.6904 22.9225 78.25 23.4822 78.25 24.1725V69.1211C78.25 69.8114 77.6904 70.3711 77 70.3711H13C12.3096 70.3711 11.75 69.8114 11.75 69.1211V24.1725Z" stroke="#FAFAFA" stroke-width="1.5"/>
<path d="M17.3496 29.3825C17.3496 28.6921 17.9093 28.1325 18.5996 28.1325H50.563C51.2534 28.1325 51.813 28.6921 51.813 29.3825V63.5196C51.813 64.21 51.2534 64.7696 50.563 64.7696H18.5996C17.9093 64.7696 17.3496 64.2099 17.3496 63.5196V29.3825Z" stroke="#FAFAFA" stroke-width="1.5"/>
<circle cx="58.6519" cy="31.6519" r="1.65189" fill="#FAFAFA"/>
<circle cx="58.6519" cy="39.2308" r="1.65189" fill="#FAFAFA"/>
<circle cx="58.6519" cy="46.8098" r="1.65189" fill="#FAFAFA"/>
<circle cx="65.9995" cy="31.6519" r="1.65189" fill="#FAFAFA"/>
<circle cx="65.9995" cy="39.2308" r="1.65189" fill="#FAFAFA"/>
<circle cx="65.9995" cy="46.8098" r="1.65189" fill="#FAFAFA"/>
<circle cx="73.3472" cy="31.6519" r="1.65189" fill="#FAFAFA"/>
<circle cx="73.3472" cy="39.2308" r="1.65189" fill="#FAFAFA"/>
<circle cx="73.3472" cy="46.8098" r="1.65189" fill="#FAFAFA"/>
<path d="M44.4996 63.5252V61.0093C44.4996 59.6749 43.9695 58.395 43.0259 57.4514C42.0823 56.5078 40.8025 55.9777 39.468 55.9777H29.4047C28.0702 55.9777 26.7904 56.5078 25.8468 57.4514C24.9032 58.395 24.373 59.6749 24.373 61.0093V63.5252" stroke="#FAFAFA" stroke-width="1.5" stroke-linecap="round" stroke-linejoin="round"/>
<path d="M34.4359 50.946C37.2148 50.946 39.4676 48.6933 39.4676 45.9144C39.4676 43.1355 37.2148 40.8827 34.4359 40.8827C31.657 40.8827 29.4043 43.1355 29.4043 45.9144C29.4043 48.6933 31.657 50.946 34.4359 50.946Z" stroke="#FAFAFA" stroke-width="1.5" stroke-linecap="round" stroke-linejoin="round"/>
<circle cx="65.7505" cy="55.9058" r="3.34425" stroke="#FAFAFA" stroke-width="1.5"/>
</svg>
