<svg width="91" height="90" viewBox="0 0 91 90" fill="none" xmlns="http://www.w3.org/2000/svg">
<g clip-path="url(#clip0_560_4762)">
<path d="M0.333984 12C0.333984 5.37258 5.70657 0 12.334 0H78.334C84.9614 0 90.334 5.37258 90.334 12V78C90.334 84.6274 84.9614 90 78.334 90H12.334C5.70657 90 0.333984 84.6274 0.333984 78V12Z" fill="#FFE1DA"/>
<rect x="0.333984" width="90" height="90" rx="12" fill="#757575"/>
<g clip-path="url(#clip1_560_4762)">
<mask id="path-3-inside-1_560_4762" fill="white">
<path d="M16.623 25.7234H74.0453V30.7365C74.0453 32.9457 72.2544 34.7365 70.0453 34.7365H20.623C18.4139 34.7365 16.623 32.9457 16.623 30.7365V25.7234Z"/>
</mask>
<path d="M16.623 25.7234V24.2234H15.123V25.7234H16.623ZM74.0453 25.7234H75.5453V24.2234H74.0453V25.7234ZM16.623 27.2234H74.0453V24.2234H16.623V27.2234ZM72.5453 25.7234V30.7365H75.5453V25.7234H72.5453ZM70.0453 33.2365H20.623V36.2365H70.0453V33.2365ZM18.123 30.7365V25.7234H15.123V30.7365H18.123ZM20.623 33.2365C19.2423 33.2365 18.123 32.1172 18.123 30.7365H15.123C15.123 33.7741 17.5855 36.2365 20.623 36.2365V33.2365ZM72.5453 30.7365C72.5453 32.1172 71.426 33.2365 70.0453 33.2365V36.2365C73.0828 36.2365 75.5453 33.7741 75.5453 30.7365H72.5453Z" fill="#FAFAFA" mask="url(#path-3-inside-1_560_4762)"/>
<mask id="path-5-inside-2_560_4762" fill="white">
<path d="M68.9887 33.4251C68.9887 42.348 66.4965 50.9055 62.0605 57.215C57.6244 63.5244 51.6078 67.0691 45.3342 67.0691C39.0606 67.0691 33.044 63.5244 28.6079 57.215C24.1719 50.9055 21.6797 42.348 21.6797 33.4251L45.3342 33.4251H68.9887Z"/>
</mask>
<path d="M68.9887 33.4251C68.9887 42.348 66.4965 50.9055 62.0605 57.215C57.6244 63.5244 51.6078 67.0691 45.3342 67.0691C39.0606 67.0691 33.044 63.5244 28.6079 57.215C24.1719 50.9055 21.6797 42.348 21.6797 33.4251L45.3342 33.4251H68.9887Z" stroke="#FAFAFA" stroke-width="3" mask="url(#path-5-inside-2_560_4762)"/>
<circle cx="45.3335" cy="51.155" r="9.54837" stroke="#FAFAFA" stroke-width="1.5"/>
<circle cx="45.3331" cy="51.155" r="4.10658" stroke="#FAFAFA" stroke-width="1.5"/>
<circle cx="59.8317" cy="42.6883" r="1.83175" fill="#FAFAFA"/>
<path d="M20.7441 30.2731C20.7441 29.8306 21.1029 29.4718 21.5454 29.4718H69.1238C69.5663 29.4718 69.9251 29.8306 69.9251 30.2731C69.9251 30.7157 69.5663 31.0744 69.1238 31.0744H21.5454C21.1029 31.0744 20.7441 30.7157 20.7441 30.2731Z" fill="#FAFAFA"/>
</g>
</g>
<defs>
<clipPath id="clip0_560_4762">
<path d="M0.333984 12C0.333984 5.37258 5.70657 0 12.334 0H78.334C84.9614 0 90.334 5.37258 90.334 12V78C90.334 84.6274 84.9614 90 78.334 90H12.334C5.70657 90 0.333984 84.6274 0.333984 78V12Z" fill="white"/>
</clipPath>
<clipPath id="clip1_560_4762">
<rect width="76" height="76" fill="white" transform="translate(7.33398 7)"/>
</clipPath>
</defs>
</svg>
