<svg width="91" height="90" viewBox="0 0 91 90" fill="none" xmlns="http://www.w3.org/2000/svg">
<g clip-path="url(#clip0_560_4784)">
<path d="M0.5 12C0.5 5.37258 5.87258 0 12.5 0H78.5C85.1274 0 90.5 5.37258 90.5 12V78C90.5 84.6274 85.1274 90 78.5 90H12.5C5.87258 90 0.5 84.6274 0.5 78V12Z" fill="#FFE1DA"/>
<g clip-path="url(#clip1_560_4784)">
<rect x="0.5" width="90" height="90" rx="12" fill="#757575"/>
<path d="M38.1929 52.5221V67.7782L29.5215 67.7782" stroke="#FAFAFA" stroke-width="1.5" stroke-linecap="round"/>
<circle cx="25.885" cy="67.7782" r="2.88696" stroke="#FAFAFA" stroke-width="1.5"/>
<circle cx="16.6991" cy="58.2059" r="2.88696" transform="rotate(-0.272615 16.6991 58.2059)" stroke="#FAFAFA" stroke-width="1.5"/>
<circle cx="65.5588" cy="72.7774" r="2.88696" stroke="#FAFAFA" stroke-width="1.5"/>
<circle cx="71.1155" cy="63.1301" r="2.88696" stroke="#FAFAFA" stroke-width="1.5"/>
<path d="M52.6778 52.8453V72.7774H61.9234" stroke="#FAFAFA" stroke-width="1.5" stroke-linecap="round"/>
<path d="M60.3652 53.2492V63.1301H67.7518" stroke="#FAFAFA" stroke-width="1.5" stroke-linecap="round"/>
<path d="M30.7697 53.6532V58.2059H20.3184" stroke="#FAFAFA" stroke-width="1.5" stroke-linecap="round"/>
<path d="M45.2267 43.3105C48.5782 43.3105 51.2952 40.5936 51.2952 37.242C51.2952 33.8905 48.5782 31.1736 45.2267 31.1736C41.8752 31.1736 39.1582 33.8905 39.1582 37.242C39.1582 40.5936 41.8752 43.3105 45.2267 43.3105Z" stroke="#FAFAFA" stroke-width="1.5" stroke-linecap="round" stroke-linejoin="round"/>
<path d="M60.1966 43.3105C59.9273 43.9206 59.847 44.5974 59.966 45.2536C60.085 45.9098 60.3978 46.5153 60.8641 46.9921L60.9855 47.1134C61.3616 47.4892 61.66 47.9354 61.8636 48.4265C62.0672 48.9176 62.172 49.4441 62.172 49.9757C62.172 50.5074 62.0672 51.0338 61.8636 51.525C61.66 52.0161 61.3616 52.4623 60.9855 52.838C60.6098 53.2142 60.1636 53.5126 59.6724 53.7162C59.1813 53.9198 58.6548 54.0246 58.1232 54.0246C57.5915 54.0246 57.0651 53.9198 56.5739 53.7162C56.0828 53.5126 55.6366 53.2142 55.2609 52.838L55.1395 52.7167C54.6628 52.2503 54.0573 51.9375 53.4011 51.8185C52.7449 51.6995 52.0681 51.7799 51.458 52.0491C50.8597 52.3055 50.3494 52.7313 49.99 53.274C49.6306 53.8167 49.4377 54.4527 49.4351 55.1036V55.4475C49.4351 56.5205 49.0089 57.5495 48.2502 58.3082C47.4915 59.0669 46.4625 59.4931 45.3895 59.4931C44.3165 59.4931 43.2875 59.0669 42.5288 58.3082C41.7701 57.5495 41.3438 56.5205 41.3438 55.4475V55.2654C41.3282 54.5959 41.1114 53.9465 40.7218 53.4018C40.3322 52.8571 39.7877 52.4421 39.1592 52.211C38.5491 51.9417 37.8723 51.8614 37.2161 51.9803C36.5599 52.0993 35.9544 52.4122 35.4776 52.8785L35.3563 52.9999C34.9805 53.376 34.5343 53.6744 34.0432 53.878C33.5521 54.0816 33.0256 54.1864 32.494 54.1864C31.9623 54.1864 31.4359 54.0816 30.9447 53.878C30.4536 53.6744 30.0074 53.376 29.6317 52.9999C29.2555 52.6241 28.9571 52.1779 28.7535 51.6868C28.5499 51.1957 28.4451 50.6692 28.4451 50.1376C28.4451 49.6059 28.5499 49.0794 28.7535 48.5883C28.9571 48.0972 29.2555 47.651 29.6317 47.2753L29.753 47.1539C30.2194 46.6771 30.5322 46.0716 30.6512 45.4154C30.7702 44.7593 30.6898 44.0825 30.4206 43.4723C30.1641 42.8741 29.7384 42.3638 29.1957 42.0044C28.653 41.645 28.017 41.4521 27.3661 41.4495H27.0222C25.9492 41.4495 24.9202 41.0233 24.1615 40.2646C23.4028 39.5059 22.9766 38.4768 22.9766 37.4039C22.9766 36.3309 23.4028 35.3019 24.1615 34.5432C24.9202 33.7844 25.9492 33.3582 27.0222 33.3582H27.2043C27.8738 33.3425 28.5232 33.1258 29.0679 32.7362C29.6126 32.3466 30.0276 31.8021 30.2587 31.1736C30.528 30.5634 30.6083 29.8866 30.4894 29.2304C30.3704 28.5743 30.0575 27.9687 29.5912 27.492L29.4698 27.3706C29.0937 26.9949 28.7953 26.5487 28.5917 26.0576C28.3881 25.5664 28.2833 25.04 28.2833 24.5083C28.2833 23.9767 28.3881 23.4502 28.5917 22.9591C28.7953 22.468 29.0937 22.0218 29.4698 21.646C29.8456 21.2699 30.2918 20.9715 30.7829 20.7679C31.274 20.5643 31.8005 20.4595 32.3321 20.4595C32.8638 20.4595 33.3902 20.5643 33.8814 20.7679C34.3725 20.9715 34.8187 21.2699 35.1944 21.646L35.3158 21.7674C35.7925 22.2337 36.3981 22.5466 37.0542 22.6656C37.7104 22.7845 38.3872 22.7042 38.9974 22.4349H39.1592C39.7575 22.1785 40.2677 21.7528 40.6271 21.21C40.9865 20.6673 41.1794 20.0314 41.182 19.3805V19.0366C41.182 17.9636 41.6082 16.9346 42.367 16.1759C43.1257 15.4172 44.1547 14.9909 45.2277 14.9909C46.3006 14.9909 47.3297 15.4172 48.0884 16.1759C48.8471 16.9346 49.2733 17.9636 49.2733 19.0366V19.2186C49.2759 19.8696 49.4688 20.5055 49.8282 21.0482C50.1876 21.5909 50.6979 22.0167 51.2961 22.2731C51.9063 22.5424 52.5831 22.6227 53.2392 22.5037C53.8954 22.3847 54.5009 22.0719 54.9777 21.6056L55.0991 21.4842C55.4748 21.1081 55.921 20.8097 56.4121 20.6061C56.9032 20.4025 57.4297 20.2977 57.9614 20.2977C58.493 20.2977 59.0195 20.4025 59.5106 20.6061C60.0017 20.8097 60.4479 21.1081 60.8237 21.4842C61.1998 21.8599 61.4982 22.3061 61.7018 22.7973C61.9054 23.2884 62.0102 23.8149 62.0102 24.3465C62.0102 24.8782 61.9054 25.4046 61.7018 25.8958C61.4982 26.3869 61.1998 26.8331 60.8237 27.2088L60.7023 27.3302C60.236 27.8069 59.9231 28.4124 59.8041 29.0686C59.6852 29.7248 59.7655 30.4016 60.0348 31.0117V31.1736C60.2912 31.7718 60.7169 32.2821 61.2596 32.6415C61.8024 33.0009 62.4383 33.1938 63.0892 33.1964H63.4331C64.5061 33.1964 65.5351 33.6226 66.2938 34.3813C67.0525 35.14 67.4788 36.1691 67.4788 37.242C67.4788 38.315 67.0525 39.344 66.2938 40.1027C65.5351 40.8615 64.5061 41.2877 63.4331 41.2877H63.2511C62.6001 41.2903 61.9642 41.4832 61.4215 41.8426C60.8788 42.202 60.453 42.7122 60.1966 43.3105V43.3105Z" stroke="#FAFAFA" stroke-width="1.5" stroke-linecap="round" stroke-linejoin="round"/>
</g>
</g>
<defs>
<clipPath id="clip0_560_4784">
<path d="M0.5 12C0.5 5.37258 5.87258 0 12.5 0H78.5C85.1274 0 90.5 5.37258 90.5 12V78C90.5 84.6274 85.1274 90 78.5 90H12.5C5.87258 90 0.5 84.6274 0.5 78V12Z" fill="white"/>
</clipPath>
<clipPath id="clip1_560_4784">
<rect x="0.5" width="90" height="90" rx="12" fill="white"/>
</clipPath>
</defs>
</svg>
