<svg width="91" height="90" viewBox="0 0 91 90" fill="none" xmlns="http://www.w3.org/2000/svg">
<g clip-path="url(#clip0_560_4766)">
<path d="M0.666016 12C0.666016 5.37258 6.0386 0 12.666 0H78.666C85.2934 0 90.666 5.37258 90.666 12V78C90.666 84.6274 85.2934 90 78.666 90H12.666C6.0386 90 0.666016 84.6274 0.666016 78V12Z" fill="#FFE1DA"/>
<rect x="0.666016" width="90" height="90" rx="12" fill="#757575"/>
<mask id="path-3-inside-1_560_4766" fill="white">
<path d="M21.0762 67.5242H70.2571V62.5111C70.2571 60.302 68.4663 58.5111 66.2571 58.5111H25.0762C22.867 58.5111 21.0762 60.302 21.0762 62.5111V67.5242Z"/>
</mask>
<path d="M21.0762 67.5242V69.0242H19.5762V67.5242H21.0762ZM70.2571 67.5242H71.7571V69.0242H70.2571V67.5242ZM21.0762 66.0242H70.2571V69.0242H21.0762V66.0242ZM68.7571 67.5242V62.5111H71.7571V67.5242H68.7571ZM66.2571 60.0111H25.0762V57.0111H66.2571V60.0111ZM22.5762 62.5111V67.5242H19.5762V62.5111H22.5762ZM25.0762 60.0111C23.6955 60.0111 22.5762 61.1304 22.5762 62.5111H19.5762C19.5762 59.4735 22.0386 57.0111 25.0762 57.0111V60.0111ZM68.7571 62.5111C68.7571 61.1304 67.6378 60.0111 66.2571 60.0111V57.0111C69.2947 57.0111 71.7571 59.4735 71.7571 62.5111H68.7571Z" fill="#FAFAFA" mask="url(#path-3-inside-1_560_4766)"/>
<path d="M24.8457 62.9745C24.8457 63.417 25.2045 63.7758 25.647 63.7758H65.5506C65.9931 63.7758 66.3519 63.417 66.3519 62.9745C66.3519 62.5319 65.9931 62.1732 65.5506 62.1732H25.647C25.2045 62.1732 24.8457 62.5319 24.8457 62.9745Z" fill="#FAFAFA"/>
<path d="M13.1897 31.6317C12.976 32.0192 13.1169 32.5066 13.5044 32.7203L23.3688 38.1605C23.7564 38.3742 24.2438 38.2333 24.4575 37.8458C24.6712 37.4583 24.5303 36.9709 24.1428 36.7571L14.2783 31.317C13.8908 31.1032 13.4034 31.2441 13.1897 31.6317Z" fill="#FAFAFA"/>
<path d="M76.6326 31.6317C76.8463 32.0192 76.7054 32.5066 76.3179 32.7203L66.4534 38.1605C66.0659 38.3742 65.5785 38.2333 65.3648 37.8458C65.1511 37.4583 65.292 36.9709 65.6795 36.7571L75.5439 31.317C75.9315 31.1032 76.4189 31.2441 76.6326 31.6317Z" fill="#FAFAFA"/>
<path d="M23.2723 19.9992C22.9946 20.3438 23.0489 20.8482 23.3935 21.1259L29.4645 26.0183C29.8091 26.296 30.3136 26.2418 30.5912 25.8972C30.8689 25.5526 30.8147 25.0482 30.4701 24.7705L24.399 19.8781C24.0545 19.6004 23.55 19.6546 23.2723 19.9992Z" fill="#FAFAFA"/>
<path d="M67.5734 20.1072C67.8511 20.4518 67.7968 20.9562 67.4523 21.2339L61.5152 26.0183C61.1706 26.296 60.6661 26.2418 60.3885 25.8972C60.1108 25.5526 60.165 25.0482 60.5096 24.7705L66.4467 19.9861C66.7913 19.7084 67.2957 19.7626 67.5734 20.1072Z" fill="#FAFAFA"/>
<path d="M45.2447 11.5118C44.8021 11.5118 44.4434 11.8706 44.4434 12.3131L44.4434 23.5782C44.4434 24.0208 44.8021 24.3795 45.2447 24.3795C45.6872 24.3795 46.046 24.0208 46.046 23.5782L46.046 12.3131C46.046 11.8706 45.6872 11.5118 45.2447 11.5118Z" fill="#FAFAFA"/>
<path d="M26.3453 59.0378V47.6457H24.5453V59.0378H26.3453ZM64.9851 47.6457V59.0378H66.7851V47.6457H64.9851ZM45.6652 28.3258C56.3353 28.3258 64.9851 36.9756 64.9851 47.6457H66.7851C66.7851 35.9815 57.3294 26.5258 45.6652 26.5258V28.3258ZM26.3453 47.6457C26.3453 36.9756 34.9951 28.3258 45.6652 28.3258V26.5258C34.001 26.5258 24.5453 35.9815 24.5453 47.6457H26.3453Z" fill="#FAFAFA"/>
<mask id="path-12-inside-2_560_4766" fill="white">
<path d="M47.6551 48.1039C48.8346 47.645 49.819 46.7923 50.4416 45.6904C51.0642 44.5885 51.2865 43.3052 51.0709 42.058C50.8553 40.8109 50.215 39.6767 49.2586 38.8478C48.3022 38.0189 47.0886 37.5462 45.8235 37.5099C44.5584 37.4736 43.3197 37.8759 42.3174 38.6487C41.3151 39.4214 40.6108 40.5171 40.3241 41.7498C40.0373 42.9825 40.1857 44.2764 40.7441 45.4122C41.3025 46.548 42.2365 47.4557 43.3877 47.9815L44.0024 46.6356C43.1617 46.2517 42.4797 45.5888 42.072 44.7594C41.6642 43.93 41.5559 42.9852 41.7653 42.085C41.9746 41.1848 42.4889 40.3848 43.2208 39.8205C43.9527 39.2562 44.8573 38.9624 45.7811 38.9889C46.7049 39.0154 47.5911 39.3606 48.2895 39.9659C48.9879 40.5712 49.4554 41.3994 49.6128 42.3101C49.7703 43.2208 49.6079 44.1579 49.1533 44.9625C48.6987 45.7672 47.9798 46.3899 47.1185 46.725L47.6551 48.1039Z"/>
</mask>
<path d="M47.6551 48.1039C48.8346 47.645 49.819 46.7923 50.4416 45.6904C51.0642 44.5885 51.2865 43.3052 51.0709 42.058C50.8553 40.8109 50.215 39.6767 49.2586 38.8478C48.3022 38.0189 47.0886 37.5462 45.8235 37.5099C44.5584 37.4736 43.3197 37.8759 42.3174 38.6487C41.3151 39.4214 40.6108 40.5171 40.3241 41.7498C40.0373 42.9825 40.1857 44.2764 40.7441 45.4122C41.3025 46.548 42.2365 47.4557 43.3877 47.9815L44.0024 46.6356C43.1617 46.2517 42.4797 45.5888 42.072 44.7594C41.6642 43.93 41.5559 42.9852 41.7653 42.085C41.9746 41.1848 42.4889 40.3848 43.2208 39.8205C43.9527 39.2562 44.8573 38.9624 45.7811 38.9889C46.7049 39.0154 47.5911 39.3606 48.2895 39.9659C48.9879 40.5712 49.4554 41.3994 49.6128 42.3101C49.7703 43.2208 49.6079 44.1579 49.1533 44.9625C48.6987 45.7672 47.9798 46.3899 47.1185 46.725L47.6551 48.1039Z" stroke="#FAFAFA" stroke-width="3" mask="url(#path-12-inside-2_560_4766)"/>
<path d="M43.2305 46.6182L43.2304 58.9562" stroke="#FAFAFA" stroke-width="1.5"/>
<path d="M47.8945 46.7154L47.8945 58.9075" stroke="#FAFAFA" stroke-width="1.5"/>
</g>
<defs>
<clipPath id="clip0_560_4766">
<path d="M0.666016 12C0.666016 5.37258 6.0386 0 12.666 0H78.666C85.2934 0 90.666 5.37258 90.666 12V78C90.666 84.6274 85.2934 90 78.666 90H12.666C6.0386 90 0.666016 84.6274 0.666016 78V12Z" fill="white"/>
</clipPath>
</defs>
</svg>
