<svg width="91" height="90" viewBox="0 0 91 90" fill="none" xmlns="http://www.w3.org/2000/svg">
<g clip-path="url(#clip0_560_4776)">
<path d="M0.5 12C0.5 5.37258 5.87258 0 12.5 0H78.5C85.1274 0 90.5 5.37258 90.5 12V78C90.5 84.6274 85.1274 90 78.5 90H12.5C5.87258 90 0.5 84.6274 0.5 78V12Z" fill="#FFE1DA"/>
<g clip-path="url(#clip1_560_4776)">
<rect x="0.5" width="90" height="90" rx="12" fill="#757575"/>
<mask id="path-3-inside-1_560_4776" fill="white">
<path d="M22.3965 19.5232C22.3965 18.1552 21.9554 16.8432 21.1703 15.8759C20.3852 14.9086 19.3203 14.3652 18.21 14.3652C17.0996 14.3652 16.0348 14.9086 15.2496 15.8759C14.4645 16.8432 14.0234 18.1552 14.0234 19.5232L18.21 19.5232H22.3965Z"/>
</mask>
<path d="M22.3965 19.5232C22.3965 18.1552 21.9554 16.8432 21.1703 15.8759C20.3852 14.9086 19.3203 14.3652 18.21 14.3652C17.0996 14.3652 16.0348 14.9086 15.2496 15.8759C14.4645 16.8432 14.0234 18.1552 14.0234 19.5232L18.21 19.5232H22.3965Z" stroke="#FAFAFA" stroke-width="3" mask="url(#path-3-inside-1_560_4776)"/>
<mask id="path-4-inside-2_560_4776" fill="white">
<path d="M76.9766 19.5232C76.9766 18.1552 76.5355 16.8432 75.7504 15.8759C74.9652 14.9086 73.9004 14.3652 72.79 14.3652C71.6797 14.3652 70.6148 14.9086 69.8297 15.8759C69.0446 16.8432 68.6035 18.1552 68.6035 19.5232L72.79 19.5232H76.9766Z"/>
</mask>
<path d="M76.9766 19.5232C76.9766 18.1552 76.5355 16.8432 75.7504 15.8759C74.9652 14.9086 73.9004 14.3652 72.79 14.3652C71.6797 14.3652 70.6148 14.9086 69.8297 15.8759C69.0446 16.8432 68.6035 18.1552 68.6035 19.5232L72.79 19.5232H76.9766Z" stroke="#FAFAFA" stroke-width="3" mask="url(#path-4-inside-2_560_4776)"/>
<mask id="path-5-inside-3_560_4776" fill="white">
<rect x="14.0312" y="17.9789" width="8.35742" height="58.5955" rx="1"/>
</mask>
<rect x="14.0312" y="17.9789" width="8.35742" height="58.5955" rx="1" stroke="#FAFAFA" stroke-width="3" mask="url(#path-5-inside-3_560_4776)"/>
<mask id="path-6-inside-4_560_4776" fill="white">
<rect x="68.6113" y="17.9789" width="8.35742" height="58.5955" rx="1"/>
</mask>
<rect x="68.6113" y="17.9789" width="8.35742" height="58.5955" rx="1" stroke="#FAFAFA" stroke-width="3" mask="url(#path-6-inside-4_560_4776)"/>
<path d="M14.7441 63.8809H21.3315" stroke="#FAFAFA" stroke-width="1.5" stroke-linecap="round"/>
<path d="M69.3242 63.8809H75.9116" stroke="#FAFAFA" stroke-width="1.5" stroke-linecap="round"/>
<path d="M21.8672 20.7364C21.453 20.7364 21.1172 21.0722 21.1172 21.4864C21.1172 21.9006 21.453 22.2364 21.8672 22.2364V20.7364ZM21.8672 68.8087C21.453 68.8087 21.1172 69.1444 21.1172 69.5587C21.1172 69.9729 21.453 70.3087 21.8672 70.3087V68.8087ZM21.8672 22.2364H41.2131V20.7364H21.8672V22.2364ZM41.4631 22.4864V68.5587H42.9631V22.4864H41.4631ZM41.2131 68.8087H21.8672V70.3087H41.2131V68.8087ZM41.4631 68.5587C41.4631 68.6967 41.3512 68.8087 41.2131 68.8087V70.3087C42.1796 70.3087 42.9631 69.5252 42.9631 68.5587H41.4631ZM41.2131 22.2364C41.3512 22.2364 41.4631 22.3483 41.4631 22.4864H42.9631C42.9631 21.5199 42.1796 20.7364 41.2131 20.7364V22.2364Z" fill="#FAFAFA"/>
<path d="M69.3242 20.7364C69.7384 20.7364 70.0742 21.0722 70.0742 21.4864C70.0742 21.9006 69.7384 22.2364 69.3242 22.2364V20.7364ZM69.3242 68.8087C69.7384 68.8087 70.0742 69.1444 70.0742 69.5587C70.0742 69.9729 69.7384 70.3087 69.3242 70.3087V68.8087ZM69.3242 22.2364H49.9783V20.7364H69.3242V22.2364ZM49.7283 22.4864V68.5587H48.2283V22.4864H49.7283ZM49.9783 68.8087H69.3242V70.3087H49.9783V68.8087ZM49.7283 68.5587C49.7283 68.6967 49.8402 68.8087 49.9783 68.8087V70.3087C49.0118 70.3087 48.2283 69.5252 48.2283 68.5587H49.7283ZM49.9783 22.2364C49.8402 22.2364 49.7283 22.3483 49.7283 22.4864H48.2283C48.2283 21.5199 49.0118 20.7364 49.9783 20.7364V22.2364Z" fill="#FAFAFA"/>
<path d="M22.3027 39.9514L42.2125 27.4656" stroke="#FAFAFA" stroke-width="1.5" stroke-linecap="round"/>
<path d="M68.8887 39.9514L48.9789 27.4656" stroke="#FAFAFA" stroke-width="1.5" stroke-linecap="round"/>
<path d="M22.3027 60.6701L42.2125 48.1843" stroke="#FAFAFA" stroke-width="1.5" stroke-linecap="round"/>
<path d="M68.8887 60.6701L48.9789 48.1843" stroke="#FAFAFA" stroke-width="1.5" stroke-linecap="round"/>
<path d="M22.3965 47.2766L41.9882 35.0224" stroke="#FAFAFA" stroke-width="1.5" stroke-linecap="round"/>
<path d="M68.7949 47.2766L49.2032 35.0224" stroke="#FAFAFA" stroke-width="1.5" stroke-linecap="round"/>
<path d="M22.3965 64.7955L41.9882 52.5413" stroke="#FAFAFA" stroke-width="1.5" stroke-linecap="round"/>
<path d="M68.7949 64.7955L49.2032 52.5413" stroke="#FAFAFA" stroke-width="1.5" stroke-linecap="round"/>
</g>
</g>
<defs>
<clipPath id="clip0_560_4776">
<path d="M0.5 12C0.5 5.37258 5.87258 0 12.5 0H78.5C85.1274 0 90.5 5.37258 90.5 12V78C90.5 84.6274 85.1274 90 78.5 90H12.5C5.87258 90 0.5 84.6274 0.5 78V12Z" fill="white"/>
</clipPath>
<clipPath id="clip1_560_4776">
<rect x="0.5" width="90" height="90" rx="12" fill="white"/>
</clipPath>
</defs>
</svg>
